M48
; DRILL file {KiCad 9.0.3} date 2025-08-15T22:13:23-0400
; FORMAT={-:-/ absolute / metric / decimal}
; #@! TF.CreationDate,2025-08-15T22:13:23-04:00
; #@! TF.GenerationSoftware,Kicad,Pcbnew,9.0.3
; #@! TF.FileFunction,Plated,1,2,PTH
FMAT,2
METRIC
; #@! TA.AperFunction,Plated,PTH,ComponentDrill
T1C0.200
; #@! TA.AperFunction,Plated,PTH,ViaDrill
T2C0.300
; #@! TA.AperFunction,Plated,PTH,ComponentDrill
T3C0.400
; #@! TA.AperFunction,Plated,PTH,ComponentDrill
T4C0.600
; #@! TA.AperFunction,Plated,PTH,ComponentDrill
T5C1.000
%
G90
G05
T1
X110.775Y-42.76
X110.775Y-44.16
X111.475Y-42.06
X111.475Y-43.46
X111.475Y-44.86
X112.175Y-42.76
X112.175Y-44.16
X112.875Y-42.06
X112.875Y-43.46
X112.875Y-44.86
X113.575Y-42.76
X113.575Y-44.16
T2
X97.223Y-57.332
X97.472Y-55.488
X97.822Y-54.697
X98.547Y-91.912
X99.021Y-55.861
X99.542Y-57.958
X101.142Y-50.13
X101.28Y-69.84
X101.393Y-51.065
X101.393Y-59.631
X101.87Y-70.97
X102.031Y-50.343
X102.199Y-57.525
X102.911Y-58.256
X103.119Y-37.45
X103.143Y-56.936
X103.194Y-59.199
X104.329Y-55.74
X104.82Y-72.45
X104.93Y-67.89
X105.16Y-65.64
X106.154Y-45.7
X106.957Y-55.857
X107.066Y-67.01
X108.685Y-55.588
X108.989Y-73.273
X109.14Y-69.69
X109.166Y-55.991
X110.384Y-54.899
X110.96Y-55.88
X111.068Y-86.535
X111.363Y-54.773
X112.07Y-68.0
X113.52Y-74.24
X113.75Y-86.568
X113.951Y-55.438
X116.424Y-73.998
X116.519Y-86.7
X116.52Y-62.1
X118.48Y-54.574
X118.51Y-76.95
X118.8Y-96.97
X119.1Y-95.03
X119.113Y-55.225
X120.484Y-59.585
X121.428Y-55.997
X121.552Y-55.366
X122.292Y-55.79
X123.508Y-47.931
X123.75Y-62.01
X130.303Y-55.303
X131.275Y-48.51
X132.762Y-55.821
X133.726Y-72.312
T3
X110.7Y-93.975
X110.7Y-95.325
X111.55Y-93.975
X111.55Y-95.325
X112.4Y-93.975
X112.4Y-95.325
X113.25Y-93.975
X113.25Y-95.325
X114.1Y-93.975
X114.1Y-95.325
X114.95Y-93.975
X114.95Y-95.325
X115.8Y-93.975
X115.8Y-95.325
X116.65Y-93.975
X116.65Y-95.325
T5
X96.0Y-50.02
X96.0Y-52.56
X96.0Y-55.1
X96.0Y-57.64
X96.0Y-60.18
X96.0Y-62.72
X96.0Y-65.26
X96.0Y-67.8
X96.0Y-70.34
X96.0Y-72.88
X96.0Y-75.42
X96.0Y-77.96
X96.0Y-80.5
X96.0Y-83.04
X96.0Y-85.58
X96.0Y-88.12
X127.5Y-60.84
X127.5Y-63.38
X127.5Y-65.92
X127.5Y-68.46
X127.5Y-71.0
X131.5Y-50.42
X131.5Y-52.96
X131.5Y-55.5
X131.5Y-58.04
X131.5Y-60.58
X131.5Y-63.12
X131.5Y-65.66
X131.5Y-68.2
X131.5Y-70.74
X131.5Y-73.28
X131.5Y-75.82
X131.5Y-78.36
X131.5Y-80.9
X131.5Y-83.44
X131.5Y-85.98
X131.5Y-88.52
T4
X109.35Y-94.205G85X109.35Y-95.705
G05
X109.35Y-97.935G85X109.35Y-98.735
G05
X118.0Y-94.205G85X118.0Y-95.705
G05
X118.0Y-97.935G85X118.0Y-98.735
G05
M30
