%TF.GenerationSoftware,KiCad,Pcbnew,9.0.3*%
%TF.CreationDate,2025-08-15T22:13:15-04:00*%
%TF.ProjectId,bioimpedance,62696f69-6d70-4656-9461-6e63652e6b69,rev?*%
%TF.SameCoordinates,Original*%
%TF.FileFunction,Copper,L2,Bot*%
%TF.FilePolarity,Positive*%
%FSLAX46Y46*%
G04 Gerber Fmt 4.6, Leading zero omitted, Abs format (unit mm)*
G04 Created by KiCad (PCBNEW 9.0.3) date 2025-08-15 22:13:15*
%MOMM*%
%LPD*%
G01*
G04 APERTURE LIST*
%TA.AperFunction,ComponentPad*%
%ADD10R,1.700000X1.700000*%
%TD*%
%TA.AperFunction,ComponentPad*%
%ADD11C,1.700000*%
%TD*%
%TA.AperFunction,HeatsinkPad*%
%ADD12C,0.600000*%
%TD*%
%TA.AperFunction,ComponentPad*%
%ADD13C,0.700000*%
%TD*%
%TA.AperFunction,ComponentPad*%
%ADD14O,0.900000X2.400000*%
%TD*%
%TA.AperFunction,ComponentPad*%
%ADD15O,0.900000X1.700000*%
%TD*%
%TA.AperFunction,ViaPad*%
%ADD16C,0.600000*%
%TD*%
%TA.AperFunction,Conductor*%
%ADD17C,0.100000*%
%TD*%
%TA.AperFunction,Conductor*%
%ADD18C,0.200000*%
%TD*%
G04 APERTURE END LIST*
D10*
%TO.P,J8,1,Pin_1*%
%TO.N,GND*%
X96000000Y-88120000D03*
D11*
%TO.P,J8,2,Pin_2*%
%TO.N,14*%
X96000000Y-85580000D03*
%TO.P,J8,3,Pin_3*%
%TO.N,MOSI*%
X96000000Y-83040000D03*
%TO.P,J8,4,Pin_4*%
%TO.N,MISO*%
X96000000Y-80500000D03*
%TO.P,J8,5,Pin_5*%
%TO.N,11*%
X96000000Y-77960000D03*
%TO.P,J8,6,Pin_6*%
%TO.N,10*%
X96000000Y-75420000D03*
%TO.P,J8,7,Pin_7*%
%TO.N,09*%
X96000000Y-72880000D03*
%TO.P,J8,8,Pin_8*%
%TO.N,46*%
X96000000Y-70340000D03*
%TO.P,J8,9,Pin_9*%
%TO.N,03*%
X96000000Y-67800000D03*
%TO.P,J8,10,Pin_10*%
%TO.N,08*%
X96000000Y-65260000D03*
%TO.P,J8,11,Pin_11*%
%TO.N,SCLK*%
X96000000Y-62720000D03*
%TO.P,J8,12,Pin_12*%
%TO.N,15*%
X96000000Y-60180000D03*
%TO.P,J8,13,Pin_13*%
%TO.N,07*%
X96000000Y-57640000D03*
%TO.P,J8,14,Pin_14*%
%TO.N,06*%
X96000000Y-55100000D03*
%TO.P,J8,15,Pin_15*%
%TO.N,04*%
X96000000Y-52560000D03*
%TO.P,J8,16,Pin_16*%
%TO.N,+3V3*%
X96000000Y-50020000D03*
%TD*%
D12*
%TO.P,U1,41,GND*%
%TO.N,GND*%
X110775000Y-42760000D03*
X110775000Y-44160000D03*
X111475000Y-42060000D03*
X111475000Y-43460000D03*
X111475000Y-44860000D03*
X112175000Y-42760000D03*
X112175000Y-44160000D03*
X112875000Y-42060000D03*
X112875000Y-43460000D03*
X112875000Y-44860000D03*
X113575000Y-42760000D03*
X113575000Y-44160000D03*
%TD*%
D10*
%TO.P,J6,1,Pin_1*%
%TO.N,+3V3*%
X131500000Y-50420000D03*
D11*
%TO.P,J6,2,Pin_2*%
%TO.N,AOUT*%
X131500000Y-52960000D03*
%TO.P,J6,3,Pin_3*%
%TO.N,01*%
X131500000Y-55500000D03*
%TO.P,J6,4,Pin_4*%
%TO.N,02*%
X131500000Y-58040000D03*
%TO.P,J6,5,Pin_5*%
%TO.N,42*%
X131500000Y-60580000D03*
%TO.P,J6,6,Pin_6*%
%TO.N,41*%
X131500000Y-63120000D03*
%TO.P,J6,7,Pin_7*%
%TO.N,40*%
X131500000Y-65660000D03*
%TO.P,J6,8,Pin_8*%
%TO.N,39*%
X131500000Y-68200000D03*
%TO.P,J6,9,Pin_9*%
%TO.N,38*%
X131500000Y-70740000D03*
%TO.P,J6,10,Pin_10*%
%TO.N,37*%
X131500000Y-73280000D03*
%TO.P,J6,11,Pin_11*%
%TO.N,36*%
X131500000Y-75820000D03*
%TO.P,J6,12,Pin_12*%
%TO.N,35*%
X131500000Y-78360000D03*
%TO.P,J6,13,Pin_13*%
%TO.N,45*%
X131500000Y-80900000D03*
%TO.P,J6,14,Pin_14*%
%TO.N,48*%
X131500000Y-83440000D03*
%TO.P,J6,15,Pin_15*%
%TO.N,47*%
X131500000Y-85980000D03*
%TO.P,J6,16,Pin_16*%
%TO.N,GND*%
X131500000Y-88520000D03*
%TD*%
D13*
%TO.P,J3,A1,GND*%
%TO.N,GND*%
X110700000Y-93975000D03*
%TO.P,J3,A4,VBUS*%
%TO.N,VBUS*%
X111550000Y-93975000D03*
%TO.P,J3,A5,CC1*%
%TO.N,Net-(J3-CC1)*%
X112400000Y-93975000D03*
%TO.P,J3,A6,D+*%
%TO.N,D+*%
X113250000Y-93975000D03*
%TO.P,J3,A7,D-*%
%TO.N,D-*%
X114100000Y-93975000D03*
%TO.P,J3,A8,SBU1*%
%TO.N,unconnected-(J3-SBU1-PadA8)*%
X114950000Y-93975000D03*
%TO.P,J3,A9,VBUS*%
%TO.N,VBUS*%
X115800000Y-93975000D03*
%TO.P,J3,A12,GND*%
%TO.N,GND*%
X116650000Y-93975000D03*
%TO.P,J3,B1,GND*%
X116650000Y-95325000D03*
%TO.P,J3,B4,VBUS*%
%TO.N,VBUS*%
X115800000Y-95325000D03*
%TO.P,J3,B5,CC2*%
%TO.N,Net-(J3-CC2)*%
X114950000Y-95325000D03*
%TO.P,J3,B6,D+*%
%TO.N,D+*%
X114100000Y-95325000D03*
%TO.P,J3,B7,D-*%
%TO.N,D-*%
X113250000Y-95325000D03*
%TO.P,J3,B8,SBU2*%
%TO.N,unconnected-(J3-SBU2-PadB8)*%
X112400000Y-95325000D03*
%TO.P,J3,B9,VBUS*%
%TO.N,VBUS*%
X111550000Y-95325000D03*
%TO.P,J3,B12,GND*%
%TO.N,GND*%
X110700000Y-95325000D03*
D14*
%TO.P,J3,S1,SHIELD*%
%TO.N,unconnected-(J3-SHIELD-PadS1)_2*%
X109350000Y-94955000D03*
D15*
%TO.N,unconnected-(J3-SHIELD-PadS1)_3*%
X109350000Y-98335000D03*
D14*
%TO.N,unconnected-(J3-SHIELD-PadS1)*%
X118000000Y-94955000D03*
D15*
%TO.N,unconnected-(J3-SHIELD-PadS1)_1*%
X118000000Y-98335000D03*
%TD*%
D10*
%TO.P,J1,1,Pin_1*%
%TO.N,DVRP*%
X127500000Y-60840000D03*
D11*
%TO.P,J1,2,Pin_2*%
%TO.N,ECGP*%
X127500000Y-63380000D03*
%TO.P,J1,3,Pin_3*%
%TO.N,ECGN*%
X127500000Y-65920000D03*
%TO.P,J1,4,Pin_4*%
%TO.N,DVRN*%
X127500000Y-68460000D03*
%TO.P,J1,5,Pin_5*%
%TO.N,BIAS*%
X127500000Y-71000000D03*
%TD*%
D16*
%TO.N,GND*%
X104820000Y-72450000D03*
X112070000Y-68000000D03*
X116520000Y-62100000D03*
X105160000Y-65640000D03*
X104930000Y-67890000D03*
X118800000Y-96970000D03*
X119100000Y-95030000D03*
%TO.N,MOSI*%
X101280000Y-69840000D03*
%TO.N,+3V3*%
X113520000Y-74240000D03*
X118510000Y-76950000D03*
%TO.N,INT2B*%
X102911100Y-58255600D03*
X103193800Y-59198800D03*
%TO.N,07*%
X101393500Y-51065100D03*
%TO.N,10*%
X97471700Y-55488000D03*
X110383800Y-54898700D03*
%TO.N,04*%
X106154300Y-45700000D03*
%TO.N,15*%
X102031400Y-50342600D03*
%TO.N,08*%
X102199100Y-57524800D03*
%TO.N,14*%
X97223400Y-57331600D03*
X113950700Y-55438000D03*
%TO.N,06*%
X101141800Y-50130500D03*
%TO.N,03*%
X106957300Y-55857000D03*
%TO.N,11*%
X97822300Y-54697100D03*
X111363200Y-54772800D03*
%TO.N,09*%
X109166500Y-55990800D03*
%TO.N,40*%
X122292400Y-55790000D03*
%TO.N,38*%
X133726400Y-72312500D03*
X131275000Y-48510000D03*
X123508400Y-47931000D03*
%TO.N,46*%
X108684600Y-55588400D03*
%TO.N,48*%
X130302800Y-55302600D03*
X119112600Y-55225300D03*
%TO.N,AOUT*%
X107066300Y-67010000D03*
%TO.N,47*%
X118480200Y-54573900D03*
X132762400Y-55821100D03*
%TO.N,41*%
X121428400Y-55996800D03*
%TO.N,MISO*%
X110960000Y-55880000D03*
X101870000Y-70970000D03*
%TO.N,SCLK*%
X101393500Y-59631500D03*
%TO.N,BOOT*%
X121552300Y-55366400D03*
X120484000Y-59585300D03*
%TO.N,D+*%
X104328900Y-55740400D03*
X99021100Y-55861500D03*
X98546700Y-91912500D03*
%TO.N,D-*%
X99542100Y-57957900D03*
X103143000Y-56936200D03*
%TO.N,ECGN*%
X123750000Y-62010000D03*
%TO.N,+1V8*%
X116424500Y-73997800D03*
X108989500Y-73273400D03*
%TO.N,BIAS*%
X109140000Y-69690000D03*
%TO.N,+3V3*%
X116519100Y-86699700D03*
X113750300Y-86568200D03*
X111068200Y-86535000D03*
X103118900Y-37450500D03*
%TD*%
D17*
%TO.N,GND*%
X104820000Y-72450000D02*
X104930000Y-72340000D01*
X104930000Y-72340000D02*
X104930000Y-67890000D01*
X116520000Y-62100000D02*
X110730000Y-67890000D01*
X110730000Y-67890000D02*
X104930000Y-67890000D01*
X104930000Y-67890000D02*
X104930000Y-65870000D01*
X104930000Y-65870000D02*
X105160000Y-65640000D01*
X118800000Y-96970000D02*
X119100000Y-96670000D01*
X119100000Y-96670000D02*
X119100000Y-95030000D01*
%TO.N,MOSI*%
X101280000Y-69840000D02*
X101280000Y-72280000D01*
X96790000Y-76770000D02*
X95620000Y-76770000D01*
X101280000Y-72280000D02*
X96790000Y-76770000D01*
X95620000Y-76770000D02*
X94770000Y-77620000D01*
X94770000Y-81810000D02*
X96000000Y-83040000D01*
X94770000Y-77620000D02*
X94770000Y-81810000D01*
%TO.N,+3V3*%
X116230000Y-76950000D02*
X113520000Y-74240000D01*
X118510000Y-76950000D02*
X116230000Y-76950000D01*
%TO.N,INT2B*%
X103193800Y-58538300D02*
X103193800Y-59198800D01*
X102911100Y-58255600D02*
X103193800Y-58538300D01*
%TO.N,07*%
X97082100Y-56557900D02*
X96000000Y-57640000D01*
X97082100Y-54903100D02*
X97082100Y-56557900D01*
X100920100Y-51065100D02*
X97082100Y-54903100D01*
X101393500Y-51065100D02*
X100920100Y-51065100D01*
%TO.N,10*%
X97542900Y-55488000D02*
X97471700Y-55488000D01*
X98132200Y-54898700D02*
X97542900Y-55488000D01*
X110383800Y-54898700D02*
X98132200Y-54898700D01*
%TO.N,04*%
X98978800Y-45700000D02*
X106154300Y-45700000D01*
X95055600Y-49623200D02*
X98978800Y-45700000D01*
X95055600Y-51615600D02*
X95055600Y-49623200D01*
X96000000Y-52560000D02*
X95055600Y-51615600D01*
%TO.N,15*%
X95088300Y-59268300D02*
X96000000Y-60180000D01*
X95088300Y-57184700D02*
X95088300Y-59268300D01*
X95903000Y-56370000D02*
X95088300Y-57184700D01*
X96043100Y-56370000D02*
X95903000Y-56370000D01*
X96941100Y-55472000D02*
X96043100Y-56370000D01*
X96941100Y-54886200D02*
X96941100Y-55472000D01*
X101484700Y-50342600D02*
X96941100Y-54886200D01*
X102031400Y-50342600D02*
X101484700Y-50342600D01*
%TO.N,08*%
X102199100Y-59337400D02*
X102199100Y-57524800D01*
X96276500Y-65260000D02*
X102199100Y-59337400D01*
X96000000Y-65260000D02*
X96276500Y-65260000D01*
%TO.N,14*%
X97223400Y-57147800D02*
X97223400Y-57331600D01*
X99165400Y-55205800D02*
X97223400Y-57147800D01*
X109958200Y-55205800D02*
X99165400Y-55205800D01*
X110190400Y-55438000D02*
X109958200Y-55205800D01*
X113950700Y-55438000D02*
X110190400Y-55438000D01*
%TO.N,06*%
X100969500Y-50130500D02*
X101141800Y-50130500D01*
X96000000Y-55100000D02*
X100969500Y-50130500D01*
%TO.N,03*%
X106957300Y-56842700D02*
X106957300Y-55857000D01*
X96000000Y-67800000D02*
X106957300Y-56842700D01*
%TO.N,11*%
X111127300Y-54536900D02*
X111363200Y-54772800D01*
X97982500Y-54536900D02*
X111127300Y-54536900D01*
X97822300Y-54697100D02*
X97982500Y-54536900D01*
%TO.N,09*%
X109166500Y-57488700D02*
X109166500Y-55990800D01*
X101359200Y-65296000D02*
X109166500Y-57488700D01*
X101359200Y-67520800D02*
X101359200Y-65296000D01*
X96000000Y-72880000D02*
X101359200Y-67520800D01*
%TO.N,40*%
X122292400Y-57480700D02*
X122292400Y-55790000D01*
X126982500Y-62170800D02*
X122292400Y-57480700D01*
X128010800Y-62170800D02*
X126982500Y-62170800D01*
X131500000Y-65660000D02*
X128010800Y-62170800D01*
%TO.N,38*%
X132153900Y-70740000D02*
X133726400Y-72312500D01*
X131500000Y-70740000D02*
X132153900Y-70740000D01*
X124087400Y-48510000D02*
X123508400Y-47931000D01*
X131275000Y-48510000D02*
X124087400Y-48510000D01*
%TO.N,46*%
X108684600Y-57655400D02*
X96000000Y-70340000D01*
X108684600Y-55588400D02*
X108684600Y-57655400D01*
%TO.N,48*%
X119333200Y-55004700D02*
X119112600Y-55225300D01*
X130004900Y-55004700D02*
X119333200Y-55004700D01*
X130302800Y-55302600D02*
X130004900Y-55004700D01*
%TO.N,AOUT*%
X119500600Y-52960000D02*
X131500000Y-52960000D01*
X107066300Y-65394300D02*
X119500600Y-52960000D01*
X107066300Y-67010000D02*
X107066300Y-65394300D01*
%TO.N,47*%
X132762400Y-55416800D02*
X132762400Y-55821100D01*
X131919500Y-54573900D02*
X132762400Y-55416800D01*
X118480200Y-54573900D02*
X131919500Y-54573900D01*
%TO.N,41*%
X131500000Y-63033400D02*
X131500000Y-63120000D01*
X123894900Y-55428300D02*
X131500000Y-63033400D01*
X122001900Y-55428300D02*
X123894900Y-55428300D01*
X121433400Y-55996800D02*
X122001900Y-55428300D01*
X121428400Y-55996800D02*
X121433400Y-55996800D01*
%TO.N,MISO*%
X101870000Y-64990000D02*
X101870000Y-70970000D01*
X110960000Y-55900000D02*
X101870000Y-64990000D01*
X110960000Y-55880000D02*
X110960000Y-55900000D01*
X101870000Y-74630000D02*
X101870000Y-70970000D01*
X96000000Y-80500000D02*
X101870000Y-74630000D01*
%TO.N,SCLK*%
X99088500Y-59631500D02*
X96000000Y-62720000D01*
X101393500Y-59631500D02*
X99088500Y-59631500D01*
%TO.N,BOOT*%
X120484000Y-56331200D02*
X120484000Y-59585300D01*
X121448800Y-55366400D02*
X120484000Y-56331200D01*
X121552300Y-55366400D02*
X121448800Y-55366400D01*
%TO.N,D+*%
X114100000Y-94825000D02*
X114100000Y-95325000D01*
X113250000Y-93975000D02*
X114100000Y-94825000D01*
X99142200Y-55740400D02*
X99021100Y-55861500D01*
X104328900Y-55740400D02*
X99142200Y-55740400D01*
X111187500Y-91912500D02*
X113250000Y-93975000D01*
X98546700Y-91912500D02*
X111187500Y-91912500D01*
%TO.N,D-*%
X100563800Y-56936200D02*
X103143000Y-56936200D01*
X99542100Y-57957900D02*
X100563800Y-56936200D01*
%TO.N,VBUS*%
X115383400Y-95741600D02*
X115800000Y-95325000D01*
X111966600Y-95741600D02*
X115383400Y-95741600D01*
X111550000Y-95325000D02*
X111966600Y-95741600D01*
D18*
%TO.N,ECGN*%
X123750000Y-62170000D02*
X127500000Y-65920000D01*
X123750000Y-62010000D02*
X123750000Y-62170000D01*
D17*
%TO.N,+1V8*%
X115700100Y-73273400D02*
X108989500Y-73273400D01*
X116424500Y-73997800D02*
X115700100Y-73273400D01*
%TO.N,BIAS*%
X126190000Y-69690000D02*
X127500000Y-71000000D01*
X109140000Y-69690000D02*
X126190000Y-69690000D01*
%TD*%
%TA.AperFunction,Conductor*%
%TO.N,+3V3*%
G36*
X95647244Y-49313690D02*
G01*
X95870591Y-49537037D01*
X95807007Y-49554075D01*
X95692993Y-49619901D01*
X95599901Y-49712993D01*
X95534075Y-49827007D01*
X95517037Y-49890591D01*
X95293690Y-49667244D01*
X95279338Y-49632596D01*
X95293689Y-49597949D01*
X95577949Y-49313689D01*
X95612596Y-49299338D01*
X95647244Y-49313690D01*
G37*
%TD.AperFunction*%
%TA.AperFunction,Conductor*%
G36*
X134485148Y-34264352D02*
G01*
X134499500Y-34299000D01*
X134499500Y-99450500D01*
X134485148Y-99485148D01*
X134450500Y-99499500D01*
X93049500Y-99499500D01*
X93014852Y-99485148D01*
X93000500Y-99450500D01*
X93000500Y-97862522D01*
X108799500Y-97862522D01*
X108799500Y-98807477D01*
X108837015Y-98947483D01*
X108837016Y-98947487D01*
X108909491Y-99073015D01*
X109011985Y-99175509D01*
X109057930Y-99202035D01*
X109137512Y-99247983D01*
X109137514Y-99247983D01*
X109137515Y-99247984D01*
X109172517Y-99257363D01*
X109277522Y-99285500D01*
X109277525Y-99285500D01*
X109422477Y-99285500D01*
X109492480Y-99266742D01*
X109562485Y-99247984D01*
X109688015Y-99175509D01*
X109790509Y-99073015D01*
X109862984Y-98947485D01*
X109881742Y-98877480D01*
X109900500Y-98807477D01*
X109900500Y-97862522D01*
X117449500Y-97862522D01*
X117449500Y-98807477D01*
X117487015Y-98947483D01*
X117487016Y-98947487D01*
X117559491Y-99073015D01*
X117661985Y-99175509D01*
X117707930Y-99202035D01*
X117787512Y-99247983D01*
X117787514Y-99247983D01*
X117787515Y-99247984D01*
X117822517Y-99257363D01*
X117927522Y-99285500D01*
X117927525Y-99285500D01*
X118072477Y-99285500D01*
X118142480Y-99266742D01*
X118212485Y-99247984D01*
X118338015Y-99175509D01*
X118440509Y-99073015D01*
X118512984Y-98947485D01*
X118531742Y-98877480D01*
X118550500Y-98807477D01*
X118550500Y-97862522D01*
X118512984Y-97722516D01*
X118512983Y-97722512D01*
X118440508Y-97596984D01*
X118338015Y-97494491D01*
X118212487Y-97422016D01*
X118212483Y-97422015D01*
X118072478Y-97384500D01*
X118072475Y-97384500D01*
X117927525Y-97384500D01*
X117927522Y-97384500D01*
X117787516Y-97422015D01*
X117787512Y-97422016D01*
X117661984Y-97494491D01*
X117661984Y-97494492D01*
X117559492Y-97596984D01*
X117559491Y-97596984D01*
X117487016Y-97722512D01*
X117487015Y-97722516D01*
X117449500Y-97862522D01*
X109900500Y-97862522D01*
X109862984Y-97722516D01*
X109862983Y-97722512D01*
X109790508Y-97596984D01*
X109688015Y-97494491D01*
X109562487Y-97422016D01*
X109562483Y-97422015D01*
X109422478Y-97384500D01*
X109422475Y-97384500D01*
X109277525Y-97384500D01*
X109277522Y-97384500D01*
X109137516Y-97422015D01*
X109137512Y-97422016D01*
X109011984Y-97494491D01*
X109011984Y-97494492D01*
X108909492Y-97596984D01*
X108909491Y-97596984D01*
X108837016Y-97722512D01*
X108837015Y-97722516D01*
X108799500Y-97862522D01*
X93000500Y-97862522D01*
X93000500Y-96917269D01*
X118399500Y-96917269D01*
X118399500Y-97022730D01*
X118426792Y-97124585D01*
X118426793Y-97124589D01*
X118479520Y-97215913D01*
X118554087Y-97290480D01*
X118587513Y-97309778D01*
X118645410Y-97343206D01*
X118645412Y-97343206D01*
X118645413Y-97343207D01*
X118725747Y-97364732D01*
X118747269Y-97370499D01*
X118747270Y-97370500D01*
X118747273Y-97370500D01*
X118852730Y-97370500D01*
X118852730Y-97370499D01*
X118954587Y-97343207D01*
X119045913Y-97290480D01*
X119120480Y-97215913D01*
X119173207Y-97124587D01*
X119200499Y-97022730D01*
X119200500Y-97022730D01*
X119200500Y-96917270D01*
X119179307Y-96838179D01*
X119184202Y-96800997D01*
X119191986Y-96790852D01*
X119227587Y-96755252D01*
X119242396Y-96719500D01*
X119250500Y-96699936D01*
X119250500Y-95433856D01*
X119264852Y-95399208D01*
X119274997Y-95391423D01*
X119345913Y-95350480D01*
X119420480Y-95275913D01*
X119473207Y-95184587D01*
X119500499Y-95082730D01*
X119500500Y-95082730D01*
X119500500Y-94977270D01*
X119500499Y-94977269D01*
X119485698Y-94922031D01*
X119473207Y-94875413D01*
X119473206Y-94875412D01*
X119473206Y-94875410D01*
X119439778Y-94817513D01*
X119420480Y-94784087D01*
X119345913Y-94709520D01*
X119254589Y-94656793D01*
X119254585Y-94656792D01*
X119152730Y-94629500D01*
X119152727Y-94629500D01*
X119047273Y-94629500D01*
X119047270Y-94629500D01*
X118945414Y-94656792D01*
X118945410Y-94656793D01*
X118854086Y-94709520D01*
X118854086Y-94709521D01*
X118779521Y-94784086D01*
X118779520Y-94784086D01*
X118726793Y-94875410D01*
X118726792Y-94875414D01*
X118699500Y-94977269D01*
X118699500Y-95082730D01*
X118726792Y-95184585D01*
X118726793Y-95184589D01*
X118773618Y-95265691D01*
X118779520Y-95275913D01*
X118854087Y-95350480D01*
X118925000Y-95391422D01*
X118947830Y-95421174D01*
X118949500Y-95433856D01*
X118949500Y-96531571D01*
X118935148Y-96566219D01*
X118900500Y-96580571D01*
X118887819Y-96578902D01*
X118852728Y-96569500D01*
X118852727Y-96569500D01*
X118747273Y-96569500D01*
X118747270Y-96569500D01*
X118645414Y-96596792D01*
X118645410Y-96596793D01*
X118554086Y-96649520D01*
X118554086Y-96649521D01*
X118479521Y-96724086D01*
X118479520Y-96724086D01*
X118426793Y-96815410D01*
X118426792Y-96815414D01*
X118399500Y-96917269D01*
X93000500Y-96917269D01*
X93000500Y-94132522D01*
X108799500Y-94132522D01*
X108799500Y-95777477D01*
X108837015Y-95917483D01*
X108837016Y-95917487D01*
X108909491Y-96043015D01*
X109011985Y-96145509D01*
X109057930Y-96172035D01*
X109137512Y-96217983D01*
X109137514Y-96217983D01*
X109137515Y-96217984D01*
X109172517Y-96227363D01*
X109277522Y-96255500D01*
X109277525Y-96255500D01*
X109422477Y-96255500D01*
X109492480Y-96236742D01*
X109562485Y-96217984D01*
X109688015Y-96145509D01*
X109790509Y-96043015D01*
X109862984Y-95917485D01*
X109881742Y-95847480D01*
X109900500Y-95777477D01*
X109900500Y-94132522D01*
X109862984Y-93992516D01*
X109862983Y-93992512D01*
X109790508Y-93866984D01*
X109688015Y-93764491D01*
X109562487Y-93692016D01*
X109562483Y-93692015D01*
X109422478Y-93654500D01*
X109422475Y-93654500D01*
X109277525Y-93654500D01*
X109277522Y-93654500D01*
X109137516Y-93692015D01*
X109137512Y-93692016D01*
X109011984Y-93764491D01*
X109011984Y-93764492D01*
X108909492Y-93866984D01*
X108909491Y-93866984D01*
X108837016Y-93992512D01*
X108837015Y-93992516D01*
X108799500Y-94132522D01*
X93000500Y-94132522D01*
X93000500Y-91859769D01*
X98146200Y-91859769D01*
X98146200Y-91965230D01*
X98173492Y-92067085D01*
X98173493Y-92067089D01*
X98185278Y-92087500D01*
X98226220Y-92158413D01*
X98300787Y-92232980D01*
X98334213Y-92252278D01*
X98392110Y-92285706D01*
X98392112Y-92285706D01*
X98392113Y-92285707D01*
X98472447Y-92307232D01*
X98493969Y-92312999D01*
X98493970Y-92313000D01*
X98493973Y-92313000D01*
X98599430Y-92313000D01*
X98599430Y-92312999D01*
X98701287Y-92285707D01*
X98792613Y-92232980D01*
X98867180Y-92158413D01*
X98908122Y-92087499D01*
X98937874Y-92064670D01*
X98950556Y-92063000D01*
X111104864Y-92063000D01*
X111139512Y-92077352D01*
X112503964Y-93441804D01*
X112518316Y-93476452D01*
X112503964Y-93511100D01*
X112469316Y-93525452D01*
X112462542Y-93524563D01*
X112462496Y-93524919D01*
X112459312Y-93524500D01*
X112459309Y-93524500D01*
X112340691Y-93524500D01*
X112340688Y-93524500D01*
X112226115Y-93555200D01*
X112226112Y-93555201D01*
X112123386Y-93614511D01*
X112123386Y-93614512D01*
X112039513Y-93698384D01*
X112017435Y-93736624D01*
X111987681Y-93759454D01*
X111950499Y-93754558D01*
X111932565Y-93736624D01*
X111910489Y-93698387D01*
X111826613Y-93614511D01*
X111723887Y-93555201D01*
X111723884Y-93555200D01*
X111609312Y-93524500D01*
X111609309Y-93524500D01*
X111490691Y-93524500D01*
X111490688Y-93524500D01*
X111376115Y-93555200D01*
X111376112Y-93555201D01*
X111273386Y-93614511D01*
X111273386Y-93614512D01*
X111189513Y-93698384D01*
X111167435Y-93736624D01*
X111137681Y-93759454D01*
X111100499Y-93754558D01*
X111082565Y-93736624D01*
X111060489Y-93698387D01*
X110976613Y-93614511D01*
X110873887Y-93555201D01*
X110873884Y-93555200D01*
X110759312Y-93524500D01*
X110759309Y-93524500D01*
X110640691Y-93524500D01*
X110640688Y-93524500D01*
X110526115Y-93555200D01*
X110526112Y-93555201D01*
X110423386Y-93614511D01*
X110423386Y-93614512D01*
X110339512Y-93698386D01*
X110339511Y-93698386D01*
X110280201Y-93801112D01*
X110280200Y-93801115D01*
X110249500Y-93915688D01*
X110249500Y-94034311D01*
X110280200Y-94148884D01*
X110280201Y-94148887D01*
X110339511Y-94251613D01*
X110423387Y-94335489D01*
X110526114Y-94394799D01*
X110545625Y-94400027D01*
X110640688Y-94425500D01*
X110640691Y-94425500D01*
X110759311Y-94425500D01*
X110816597Y-94410149D01*
X110873886Y-94394799D01*
X110976613Y-94335489D01*
X111060489Y-94251613D01*
X111082565Y-94213375D01*
X111112318Y-94190546D01*
X111149500Y-94195441D01*
X111167434Y-94213375D01*
X111189511Y-94251613D01*
X111273387Y-94335489D01*
X111376114Y-94394799D01*
X111395625Y-94400027D01*
X111490688Y-94425500D01*
X111490691Y-94425500D01*
X111609311Y-94425500D01*
X111666597Y-94410149D01*
X111723886Y-94394799D01*
X111826613Y-94335489D01*
X111910489Y-94251613D01*
X111932565Y-94213375D01*
X111962318Y-94190546D01*
X111999500Y-94195441D01*
X112017434Y-94213375D01*
X112039511Y-94251613D01*
X112123387Y-94335489D01*
X112226114Y-94394799D01*
X112245625Y-94400027D01*
X112340688Y-94425500D01*
X112340691Y-94425500D01*
X112459311Y-94425500D01*
X112516597Y-94410149D01*
X112573886Y-94394799D01*
X112676613Y-94335489D01*
X112760489Y-94251613D01*
X112782565Y-94213375D01*
X112812318Y-94190546D01*
X112849500Y-94195441D01*
X112867434Y-94213375D01*
X112889511Y-94251613D01*
X112973387Y-94335489D01*
X113076114Y-94394799D01*
X113095625Y-94400027D01*
X113190688Y-94425500D01*
X113190691Y-94425500D01*
X113309311Y-94425500D01*
X113422644Y-94395132D01*
X113459826Y-94400027D01*
X113469974Y-94407814D01*
X113691660Y-94629500D01*
X113907109Y-94844948D01*
X113921461Y-94879596D01*
X113907109Y-94914244D01*
X113896962Y-94922031D01*
X113823384Y-94964513D01*
X113739513Y-95048384D01*
X113717435Y-95086624D01*
X113687681Y-95109454D01*
X113650499Y-95104558D01*
X113632565Y-95086624D01*
X113630315Y-95082727D01*
X113610489Y-95048387D01*
X113526613Y-94964511D01*
X113423887Y-94905201D01*
X113423884Y-94905200D01*
X113309312Y-94874500D01*
X113309309Y-94874500D01*
X113190691Y-94874500D01*
X113190688Y-94874500D01*
X113076115Y-94905200D01*
X113076112Y-94905201D01*
X112973386Y-94964511D01*
X112973386Y-94964512D01*
X112889513Y-95048384D01*
X112867435Y-95086624D01*
X112837681Y-95109454D01*
X112800499Y-95104558D01*
X112782565Y-95086624D01*
X112780315Y-95082727D01*
X112760489Y-95048387D01*
X112676613Y-94964511D01*
X112573887Y-94905201D01*
X112573884Y-94905200D01*
X112459312Y-94874500D01*
X112459309Y-94874500D01*
X112340691Y-94874500D01*
X112340688Y-94874500D01*
X112226115Y-94905200D01*
X112226112Y-94905201D01*
X112123386Y-94964511D01*
X112123386Y-94964512D01*
X112039513Y-95048384D01*
X112017435Y-95086624D01*
X111987681Y-95109454D01*
X111950499Y-95104558D01*
X111932565Y-95086624D01*
X111930315Y-95082727D01*
X111910489Y-95048387D01*
X111826613Y-94964511D01*
X111723887Y-94905201D01*
X111723884Y-94905200D01*
X111609312Y-94874500D01*
X111609309Y-94874500D01*
X111490691Y-94874500D01*
X111490688Y-94874500D01*
X111376115Y-94905200D01*
X111376112Y-94905201D01*
X111273386Y-94964511D01*
X111273386Y-94964512D01*
X111189513Y-95048384D01*
X111167435Y-95086624D01*
X111137681Y-95109454D01*
X111100499Y-95104558D01*
X111082565Y-95086624D01*
X111080315Y-95082727D01*
X111060489Y-95048387D01*
X110976613Y-94964511D01*
X110873887Y-94905201D01*
X110873884Y-94905200D01*
X110759312Y-94874500D01*
X110759309Y-94874500D01*
X110640691Y-94874500D01*
X110640688Y-94874500D01*
X110526115Y-94905200D01*
X110526112Y-94905201D01*
X110423386Y-94964511D01*
X110423386Y-94964512D01*
X110339512Y-95048386D01*
X110339511Y-95048386D01*
X110280201Y-95151112D01*
X110280200Y-95151115D01*
X110249500Y-95265688D01*
X110249500Y-95384311D01*
X110280200Y-95498884D01*
X110280201Y-95498887D01*
X110333441Y-95591100D01*
X110339511Y-95601613D01*
X110423387Y-95685489D01*
X110498585Y-95728905D01*
X110523796Y-95743461D01*
X110526114Y-95744799D01*
X110545625Y-95750027D01*
X110640688Y-95775500D01*
X110640691Y-95775500D01*
X110759311Y-95775500D01*
X110816597Y-95760149D01*
X110873886Y-95744799D01*
X110976613Y-95685489D01*
X111060489Y-95601613D01*
X111082565Y-95563375D01*
X111112318Y-95540546D01*
X111149500Y-95545441D01*
X111167434Y-95563375D01*
X111189511Y-95601613D01*
X111273387Y-95685489D01*
X111348585Y-95728905D01*
X111373796Y-95743461D01*
X111376114Y-95744799D01*
X111395625Y-95750027D01*
X111490688Y-95775500D01*
X111490691Y-95775500D01*
X111609311Y-95775500D01*
X111722644Y-95745132D01*
X111759826Y-95750027D01*
X111769973Y-95757813D01*
X111881348Y-95869187D01*
X111897546Y-95875895D01*
X111897549Y-95875898D01*
X111897550Y-95875897D01*
X111936664Y-95892100D01*
X111936665Y-95892100D01*
X115413334Y-95892100D01*
X115413336Y-95892100D01*
X115436248Y-95882609D01*
X115468652Y-95869188D01*
X115580027Y-95757811D01*
X115614672Y-95743461D01*
X115627350Y-95745130D01*
X115695051Y-95763270D01*
X115740689Y-95775500D01*
X115740691Y-95775500D01*
X115859311Y-95775500D01*
X115916597Y-95760149D01*
X115973886Y-95744799D01*
X116076613Y-95685489D01*
X116160489Y-95601613D01*
X116182565Y-95563375D01*
X116212318Y-95540546D01*
X116249500Y-95545441D01*
X116267434Y-95563375D01*
X116289511Y-95601613D01*
X116373387Y-95685489D01*
X116448585Y-95728905D01*
X116473796Y-95743461D01*
X116476114Y-95744799D01*
X116495625Y-95750027D01*
X116590688Y-95775500D01*
X116590691Y-95775500D01*
X116709311Y-95775500D01*
X116766597Y-95760149D01*
X116823886Y-95744799D01*
X116926613Y-95685489D01*
X117010489Y-95601613D01*
X117069799Y-95498886D01*
X117095143Y-95404302D01*
X117100500Y-95384311D01*
X117100500Y-95265688D01*
X117069799Y-95151115D01*
X117069798Y-95151112D01*
X117010488Y-95048386D01*
X116926613Y-94964511D01*
X116823887Y-94905201D01*
X116823884Y-94905200D01*
X116709312Y-94874500D01*
X116709309Y-94874500D01*
X116590691Y-94874500D01*
X116590688Y-94874500D01*
X116476115Y-94905200D01*
X116476112Y-94905201D01*
X116373386Y-94964511D01*
X116373386Y-94964512D01*
X116289513Y-95048384D01*
X116267435Y-95086624D01*
X116237681Y-95109454D01*
X116200499Y-95104558D01*
X116182565Y-95086624D01*
X116180315Y-95082727D01*
X116160489Y-95048387D01*
X116076613Y-94964511D01*
X115973887Y-94905201D01*
X115973884Y-94905200D01*
X115859312Y-94874500D01*
X115859309Y-94874500D01*
X115740691Y-94874500D01*
X115740688Y-94874500D01*
X115626115Y-94905200D01*
X115626112Y-94905201D01*
X115523386Y-94964511D01*
X115523386Y-94964512D01*
X115439513Y-95048384D01*
X115417435Y-95086624D01*
X115387681Y-95109454D01*
X115350499Y-95104558D01*
X115332565Y-95086624D01*
X115330315Y-95082727D01*
X115310489Y-95048387D01*
X115226613Y-94964511D01*
X115123887Y-94905201D01*
X115123884Y-94905200D01*
X115009312Y-94874500D01*
X115009309Y-94874500D01*
X114890691Y-94874500D01*
X114890688Y-94874500D01*
X114776115Y-94905200D01*
X114776112Y-94905201D01*
X114673386Y-94964511D01*
X114673386Y-94964512D01*
X114589513Y-95048384D01*
X114567435Y-95086624D01*
X114537681Y-95109454D01*
X114500499Y-95104558D01*
X114482565Y-95086624D01*
X114480315Y-95082727D01*
X114460489Y-95048387D01*
X114376613Y-94964511D01*
X114289549Y-94914244D01*
X114274999Y-94905843D01*
X114252169Y-94876089D01*
X114250500Y-94863408D01*
X114250500Y-94795066D01*
X114250499Y-94795062D01*
X114244053Y-94779500D01*
X114227588Y-94739749D01*
X114227586Y-94739746D01*
X113996035Y-94508195D01*
X113981683Y-94473547D01*
X113996035Y-94438899D01*
X114030683Y-94424547D01*
X114037456Y-94425440D01*
X114037504Y-94425081D01*
X114040688Y-94425500D01*
X114040691Y-94425500D01*
X114159311Y-94425500D01*
X114216597Y-94410149D01*
X114273886Y-94394799D01*
X114376613Y-94335489D01*
X114460489Y-94251613D01*
X114482565Y-94213375D01*
X114512318Y-94190546D01*
X114549500Y-94195441D01*
X114567434Y-94213375D01*
X114589511Y-94251613D01*
X114673387Y-94335489D01*
X114776114Y-94394799D01*
X114795625Y-94400027D01*
X114890688Y-94425500D01*
X114890691Y-94425500D01*
X115009311Y-94425500D01*
X115066597Y-94410149D01*
X115123886Y-94394799D01*
X115226613Y-94335489D01*
X115310489Y-94251613D01*
X115332565Y-94213375D01*
X115362318Y-94190546D01*
X115399500Y-94195441D01*
X115417434Y-94213375D01*
X115439511Y-94251613D01*
X115523387Y-94335489D01*
X115626114Y-94394799D01*
X115645625Y-94400027D01*
X115740688Y-94425500D01*
X115740691Y-94425500D01*
X115859311Y-94425500D01*
X115916597Y-94410149D01*
X115973886Y-94394799D01*
X116076613Y-94335489D01*
X116160489Y-94251613D01*
X116182565Y-94213375D01*
X116212318Y-94190546D01*
X116249500Y-94195441D01*
X116267434Y-94213375D01*
X116289511Y-94251613D01*
X116373387Y-94335489D01*
X116476114Y-94394799D01*
X116495625Y-94400027D01*
X116590688Y-94425500D01*
X116590691Y-94425500D01*
X116709311Y-94425500D01*
X116766597Y-94410149D01*
X116823886Y-94394799D01*
X116926613Y-94335489D01*
X117010489Y-94251613D01*
X117069799Y-94148886D01*
X117074184Y-94132522D01*
X117449500Y-94132522D01*
X117449500Y-95777477D01*
X117487015Y-95917483D01*
X117487016Y-95917487D01*
X117559491Y-96043015D01*
X117661985Y-96145509D01*
X117707930Y-96172035D01*
X117787512Y-96217983D01*
X117787514Y-96217983D01*
X117787515Y-96217984D01*
X117822517Y-96227363D01*
X117927522Y-96255500D01*
X117927525Y-96255500D01*
X118072477Y-96255500D01*
X118142480Y-96236742D01*
X118212485Y-96217984D01*
X118338015Y-96145509D01*
X118440509Y-96043015D01*
X118512984Y-95917485D01*
X118531742Y-95847480D01*
X118550500Y-95777477D01*
X118550500Y-94132522D01*
X118512984Y-93992516D01*
X118512983Y-93992512D01*
X118440508Y-93866984D01*
X118338015Y-93764491D01*
X118212487Y-93692016D01*
X118212483Y-93692015D01*
X118072478Y-93654500D01*
X118072475Y-93654500D01*
X117927525Y-93654500D01*
X117927522Y-93654500D01*
X117787516Y-93692015D01*
X117787512Y-93692016D01*
X117661984Y-93764491D01*
X117661984Y-93764492D01*
X117559492Y-93866984D01*
X117559491Y-93866984D01*
X117487016Y-93992512D01*
X117487015Y-93992516D01*
X117449500Y-94132522D01*
X117074184Y-94132522D01*
X117078442Y-94116631D01*
X117100500Y-94034311D01*
X117100500Y-93915688D01*
X117069799Y-93801115D01*
X117069798Y-93801112D01*
X117048655Y-93764492D01*
X117010489Y-93698387D01*
X116926613Y-93614511D01*
X116823887Y-93555201D01*
X116823884Y-93555200D01*
X116709312Y-93524500D01*
X116709309Y-93524500D01*
X116590691Y-93524500D01*
X116590688Y-93524500D01*
X116476115Y-93555200D01*
X116476112Y-93555201D01*
X116373386Y-93614511D01*
X116373386Y-93614512D01*
X116289513Y-93698384D01*
X116267435Y-93736624D01*
X116237681Y-93759454D01*
X116200499Y-93754558D01*
X116182565Y-93736624D01*
X116160489Y-93698387D01*
X116076613Y-93614511D01*
X115973887Y-93555201D01*
X115973884Y-93555200D01*
X115859312Y-93524500D01*
X115859309Y-93524500D01*
X115740691Y-93524500D01*
X115740688Y-93524500D01*
X115626115Y-93555200D01*
X115626112Y-93555201D01*
X115523386Y-93614511D01*
X115523386Y-93614512D01*
X115439513Y-93698384D01*
X115417435Y-93736624D01*
X115387681Y-93759454D01*
X115350499Y-93754558D01*
X115332565Y-93736624D01*
X115310489Y-93698387D01*
X115226613Y-93614511D01*
X115123887Y-93555201D01*
X115123884Y-93555200D01*
X115009312Y-93524500D01*
X115009309Y-93524500D01*
X114890691Y-93524500D01*
X114890688Y-93524500D01*
X114776115Y-93555200D01*
X114776112Y-93555201D01*
X114673386Y-93614511D01*
X114673386Y-93614512D01*
X114589513Y-93698384D01*
X114567435Y-93736624D01*
X114537681Y-93759454D01*
X114500499Y-93754558D01*
X114482565Y-93736624D01*
X114460489Y-93698387D01*
X114376613Y-93614511D01*
X114273887Y-93555201D01*
X114273884Y-93555200D01*
X114159312Y-93524500D01*
X114159309Y-93524500D01*
X114040691Y-93524500D01*
X114040688Y-93524500D01*
X113926115Y-93555200D01*
X113926112Y-93555201D01*
X113823386Y-93614511D01*
X113823386Y-93614512D01*
X113739513Y-93698384D01*
X113717435Y-93736624D01*
X113687681Y-93759454D01*
X113650499Y-93754558D01*
X113632565Y-93736624D01*
X113610489Y-93698387D01*
X113526613Y-93614511D01*
X113423887Y-93555201D01*
X113423884Y-93555200D01*
X113309312Y-93524500D01*
X113309309Y-93524500D01*
X113190691Y-93524500D01*
X113190688Y-93524500D01*
X113077355Y-93554867D01*
X113040173Y-93549972D01*
X113030025Y-93542185D01*
X111272751Y-91784911D01*
X111255478Y-91777757D01*
X111238205Y-91770603D01*
X111217437Y-91762000D01*
X111217436Y-91762000D01*
X98950556Y-91762000D01*
X98915908Y-91747648D01*
X98908123Y-91737502D01*
X98867180Y-91666587D01*
X98792613Y-91592020D01*
X98701289Y-91539293D01*
X98701285Y-91539292D01*
X98599430Y-91512000D01*
X98599427Y-91512000D01*
X98493973Y-91512000D01*
X98493970Y-91512000D01*
X98392114Y-91539292D01*
X98392110Y-91539293D01*
X98300786Y-91592020D01*
X98300786Y-91592021D01*
X98226221Y-91666586D01*
X98226220Y-91666586D01*
X98173493Y-91757910D01*
X98173492Y-91757914D01*
X98146200Y-91859769D01*
X93000500Y-91859769D01*
X93000500Y-87260095D01*
X95049500Y-87260095D01*
X95049500Y-88979894D01*
X95049501Y-88979898D01*
X95055331Y-89009213D01*
X95055331Y-89009214D01*
X95055332Y-89009215D01*
X95055332Y-89009216D01*
X95077542Y-89042456D01*
X95077543Y-89042457D01*
X95110787Y-89064669D01*
X95140101Y-89070500D01*
X96859898Y-89070499D01*
X96889213Y-89064669D01*
X96922457Y-89042457D01*
X96944669Y-89009213D01*
X96950500Y-88979899D01*
X96950499Y-88426384D01*
X130549500Y-88426384D01*
X130549500Y-88613616D01*
X130573740Y-88735479D01*
X130586026Y-88797248D01*
X130586029Y-88797258D01*
X130657675Y-88970225D01*
X130657676Y-88970227D01*
X130657678Y-88970231D01*
X130761698Y-89125908D01*
X130894092Y-89258302D01*
X131049769Y-89362322D01*
X131049774Y-89362324D01*
X131222741Y-89433970D01*
X131222743Y-89433970D01*
X131222749Y-89433973D01*
X131406384Y-89470500D01*
X131406387Y-89470500D01*
X131593613Y-89470500D01*
X131593616Y-89470500D01*
X131777251Y-89433973D01*
X131950231Y-89362322D01*
X132105908Y-89258302D01*
X132238302Y-89125908D01*
X132342322Y-88970231D01*
X132413973Y-88797251D01*
X132450500Y-88613616D01*
X132450500Y-88426384D01*
X132413973Y-88242749D01*
X132342322Y-88069769D01*
X132238302Y-87914092D01*
X132105908Y-87781698D01*
X131950231Y-87677678D01*
X131950227Y-87677676D01*
X131950225Y-87677675D01*
X131777258Y-87606029D01*
X131777248Y-87606026D01*
X131703194Y-87591296D01*
X131593616Y-87569500D01*
X131406384Y-87569500D01*
X131314986Y-87587680D01*
X131222751Y-87606026D01*
X131222741Y-87606029D01*
X131049774Y-87677675D01*
X131049770Y-87677677D01*
X131049769Y-87677678D01*
X131010195Y-87704120D01*
X130894092Y-87781697D01*
X130761697Y-87914092D01*
X130657675Y-88069774D01*
X130586029Y-88242741D01*
X130586026Y-88242751D01*
X130567680Y-88334986D01*
X130549500Y-88426384D01*
X96950499Y-88426384D01*
X96950499Y-88069774D01*
X96950499Y-87260105D01*
X96950499Y-87260102D01*
X96944669Y-87230787D01*
X96944667Y-87230784D01*
X96944667Y-87230783D01*
X96922457Y-87197543D01*
X96889212Y-87175330D01*
X96859901Y-87169500D01*
X95140105Y-87169500D01*
X95140104Y-87169500D01*
X95140102Y-87169501D01*
X95110787Y-87175331D01*
X95110786Y-87175331D01*
X95110784Y-87175332D01*
X95110783Y-87175332D01*
X95077543Y-87197542D01*
X95055330Y-87230786D01*
X95055330Y-87230787D01*
X95049500Y-87260095D01*
X93000500Y-87260095D01*
X93000500Y-85486384D01*
X95049500Y-85486384D01*
X95049500Y-85673616D01*
X95073740Y-85795479D01*
X95086026Y-85857248D01*
X95086029Y-85857258D01*
X95157675Y-86030225D01*
X95157676Y-86030227D01*
X95157678Y-86030231D01*
X95261698Y-86185908D01*
X95394092Y-86318302D01*
X95549769Y-86422322D01*
X95568863Y-86430231D01*
X95722741Y-86493970D01*
X95722743Y-86493970D01*
X95722749Y-86493973D01*
X95906384Y-86530500D01*
X95906387Y-86530500D01*
X96093613Y-86530500D01*
X96093616Y-86530500D01*
X96277251Y-86493973D01*
X96450231Y-86422322D01*
X96605908Y-86318302D01*
X96738302Y-86185908D01*
X96842322Y-86030231D01*
X96901906Y-85886384D01*
X130549500Y-85886384D01*
X130549500Y-86073616D01*
X130571836Y-86185907D01*
X130586026Y-86257248D01*
X130586029Y-86257258D01*
X130657675Y-86430225D01*
X130657676Y-86430227D01*
X130657678Y-86430231D01*
X130761698Y-86585908D01*
X130894092Y-86718302D01*
X131049769Y-86822322D01*
X131049774Y-86822324D01*
X131222741Y-86893970D01*
X131222743Y-86893970D01*
X131222749Y-86893973D01*
X131406384Y-86930500D01*
X131406387Y-86930500D01*
X131593613Y-86930500D01*
X131593616Y-86930500D01*
X131777251Y-86893973D01*
X131950231Y-86822322D01*
X132105908Y-86718302D01*
X132238302Y-86585908D01*
X132342322Y-86430231D01*
X132413973Y-86257251D01*
X132450500Y-86073616D01*
X132450500Y-85886384D01*
X132413973Y-85702749D01*
X132342322Y-85529769D01*
X132238302Y-85374092D01*
X132105908Y-85241698D01*
X131950231Y-85137678D01*
X131950227Y-85137676D01*
X131950225Y-85137675D01*
X131777258Y-85066029D01*
X131777248Y-85066026D01*
X131703194Y-85051296D01*
X131593616Y-85029500D01*
X131406384Y-85029500D01*
X131314986Y-85047680D01*
X131222751Y-85066026D01*
X131222741Y-85066029D01*
X131049774Y-85137675D01*
X131049770Y-85137677D01*
X131049769Y-85137678D01*
X131010195Y-85164120D01*
X130894092Y-85241697D01*
X130761697Y-85374092D01*
X130657675Y-85529774D01*
X130586029Y-85702741D01*
X130586026Y-85702751D01*
X130567680Y-85794986D01*
X130549500Y-85886384D01*
X96901906Y-85886384D01*
X96913973Y-85857251D01*
X96950500Y-85673616D01*
X96950500Y-85486384D01*
X96913973Y-85302749D01*
X96842322Y-85129769D01*
X96738302Y-84974092D01*
X96605908Y-84841698D01*
X96450231Y-84737678D01*
X96450227Y-84737676D01*
X96450225Y-84737675D01*
X96277258Y-84666029D01*
X96277248Y-84666026D01*
X96203194Y-84651296D01*
X96093616Y-84629500D01*
X95906384Y-84629500D01*
X95814986Y-84647680D01*
X95722751Y-84666026D01*
X95722741Y-84666029D01*
X95549774Y-84737675D01*
X95549770Y-84737677D01*
X95549769Y-84737678D01*
X95510195Y-84764120D01*
X95394092Y-84841697D01*
X95261697Y-84974092D01*
X95157675Y-85129774D01*
X95086029Y-85302741D01*
X95086026Y-85302751D01*
X95071836Y-85374092D01*
X95049500Y-85486384D01*
X93000500Y-85486384D01*
X93000500Y-77590064D01*
X94619500Y-77590064D01*
X94619500Y-77590065D01*
X94619500Y-81839937D01*
X94623876Y-81850500D01*
X94623877Y-81850502D01*
X94642411Y-81895250D01*
X94642414Y-81895255D01*
X95201041Y-82453880D01*
X95215393Y-82488528D01*
X95207135Y-82515751D01*
X95157677Y-82589770D01*
X95086028Y-82762745D01*
X95086026Y-82762751D01*
X95071836Y-82834092D01*
X95049500Y-82946384D01*
X95049500Y-83133616D01*
X95073740Y-83255479D01*
X95086026Y-83317248D01*
X95086029Y-83317258D01*
X95157675Y-83490225D01*
X95157676Y-83490227D01*
X95157678Y-83490231D01*
X95261698Y-83645908D01*
X95394092Y-83778302D01*
X95549769Y-83882322D01*
X95568863Y-83890231D01*
X95722741Y-83953970D01*
X95722743Y-83953970D01*
X95722749Y-83953973D01*
X95906384Y-83990500D01*
X95906387Y-83990500D01*
X96093613Y-83990500D01*
X96093616Y-83990500D01*
X96277251Y-83953973D01*
X96450231Y-83882322D01*
X96605908Y-83778302D01*
X96738302Y-83645908D01*
X96842322Y-83490231D01*
X96901906Y-83346384D01*
X130549500Y-83346384D01*
X130549500Y-83533616D01*
X130571836Y-83645907D01*
X130586026Y-83717248D01*
X130586029Y-83717258D01*
X130657675Y-83890225D01*
X130657676Y-83890227D01*
X130657678Y-83890231D01*
X130761698Y-84045908D01*
X130894092Y-84178302D01*
X131049769Y-84282322D01*
X131049774Y-84282324D01*
X131222741Y-84353970D01*
X131222743Y-84353970D01*
X131222749Y-84353973D01*
X131406384Y-84390500D01*
X131406387Y-84390500D01*
X131593613Y-84390500D01*
X131593616Y-84390500D01*
X131777251Y-84353973D01*
X131950231Y-84282322D01*
X132105908Y-84178302D01*
X132238302Y-84045908D01*
X132342322Y-83890231D01*
X132413973Y-83717251D01*
X132450500Y-83533616D01*
X132450500Y-83346384D01*
X132413973Y-83162749D01*
X132342322Y-82989769D01*
X132238302Y-82834092D01*
X132105908Y-82701698D01*
X131950231Y-82597678D01*
X131950227Y-82597676D01*
X131950225Y-82597675D01*
X131777258Y-82526029D01*
X131777248Y-82526026D01*
X131703194Y-82511296D01*
X131593616Y-82489500D01*
X131406384Y-82489500D01*
X131314986Y-82507680D01*
X131222751Y-82526026D01*
X131222741Y-82526029D01*
X131049774Y-82597675D01*
X131049770Y-82597677D01*
X131049769Y-82597678D01*
X131010195Y-82624120D01*
X130894092Y-82701697D01*
X130761697Y-82834092D01*
X130657675Y-82989774D01*
X130586029Y-83162741D01*
X130586026Y-83162751D01*
X130567680Y-83254986D01*
X130549500Y-83346384D01*
X96901906Y-83346384D01*
X96913973Y-83317251D01*
X96950500Y-83133616D01*
X96950500Y-82946384D01*
X96913973Y-82762749D01*
X96842322Y-82589769D01*
X96738302Y-82434092D01*
X96605908Y-82301698D01*
X96450231Y-82197678D01*
X96450227Y-82197676D01*
X96450225Y-82197675D01*
X96277258Y-82126029D01*
X96277248Y-82126026D01*
X96203194Y-82111296D01*
X96093616Y-82089500D01*
X95906384Y-82089500D01*
X95814986Y-82107680D01*
X95722751Y-82126026D01*
X95722745Y-82126028D01*
X95549770Y-82197677D01*
X95475751Y-82247135D01*
X95438968Y-82254451D01*
X95413880Y-82241041D01*
X94934852Y-81762012D01*
X94920500Y-81727364D01*
X94920500Y-77702635D01*
X94934852Y-77667987D01*
X94981142Y-77621697D01*
X95029175Y-77573663D01*
X95063822Y-77559312D01*
X95098470Y-77573664D01*
X95112822Y-77608312D01*
X95109092Y-77627063D01*
X95086029Y-77682741D01*
X95086026Y-77682751D01*
X95082071Y-77702635D01*
X95049500Y-77866384D01*
X95049500Y-78053616D01*
X95073740Y-78175479D01*
X95086026Y-78237248D01*
X95086029Y-78237258D01*
X95157675Y-78410225D01*
X95157676Y-78410227D01*
X95157678Y-78410231D01*
X95261698Y-78565908D01*
X95394092Y-78698302D01*
X95549769Y-78802322D01*
X95568863Y-78810231D01*
X95722741Y-78873970D01*
X95722743Y-78873970D01*
X95722749Y-78873973D01*
X95906384Y-78910500D01*
X95906387Y-78910500D01*
X96093613Y-78910500D01*
X96093616Y-78910500D01*
X96277251Y-78873973D01*
X96450231Y-78802322D01*
X96605908Y-78698302D01*
X96738302Y-78565908D01*
X96842322Y-78410231D01*
X96913973Y-78237251D01*
X96950500Y-78053616D01*
X96950500Y-77866384D01*
X96913973Y-77682749D01*
X96907858Y-77667987D01*
X96842324Y-77509774D01*
X96842322Y-77509769D01*
X96738302Y-77354092D01*
X96605908Y-77221698D01*
X96450231Y-77117678D01*
X96450227Y-77117676D01*
X96450225Y-77117675D01*
X96277258Y-77046029D01*
X96277248Y-77046026D01*
X96214965Y-77033637D01*
X96134127Y-77017558D01*
X96102946Y-76996723D01*
X96095629Y-76959941D01*
X96116465Y-76928758D01*
X96143688Y-76920500D01*
X96819934Y-76920500D01*
X96819936Y-76920500D01*
X96842848Y-76911009D01*
X96875252Y-76897588D01*
X101407588Y-72365252D01*
X101422396Y-72329500D01*
X101430500Y-72309936D01*
X101430500Y-71192634D01*
X101444852Y-71157986D01*
X101479500Y-71143634D01*
X101514148Y-71157986D01*
X101521934Y-71168133D01*
X101549520Y-71215913D01*
X101624087Y-71290480D01*
X101695000Y-71331422D01*
X101717830Y-71361174D01*
X101719500Y-71373856D01*
X101719500Y-74547363D01*
X101705148Y-74582011D01*
X96586118Y-79701040D01*
X96551470Y-79715392D01*
X96524248Y-79707134D01*
X96450231Y-79657678D01*
X96277256Y-79586029D01*
X96277254Y-79586028D01*
X96277248Y-79586026D01*
X96203194Y-79571296D01*
X96093616Y-79549500D01*
X95906384Y-79549500D01*
X95814986Y-79567680D01*
X95722751Y-79586026D01*
X95722741Y-79586029D01*
X95549774Y-79657675D01*
X95549770Y-79657677D01*
X95549769Y-79657678D01*
X95510195Y-79684120D01*
X95394092Y-79761697D01*
X95261697Y-79894092D01*
X95157675Y-80049774D01*
X95086029Y-80222741D01*
X95086026Y-80222751D01*
X95071836Y-80294092D01*
X95049500Y-80406384D01*
X95049500Y-80593616D01*
X95073740Y-80715479D01*
X95086026Y-80777248D01*
X95086029Y-80777258D01*
X95157675Y-80950225D01*
X95157676Y-80950227D01*
X95157678Y-80950231D01*
X95261698Y-81105908D01*
X95394092Y-81238302D01*
X95549769Y-81342322D01*
X95568863Y-81350231D01*
X95722741Y-81413970D01*
X95722743Y-81413970D01*
X95722749Y-81413973D01*
X95906384Y-81450500D01*
X95906387Y-81450500D01*
X96093613Y-81450500D01*
X96093616Y-81450500D01*
X96277251Y-81413973D01*
X96450231Y-81342322D01*
X96605908Y-81238302D01*
X96738302Y-81105908D01*
X96842322Y-80950231D01*
X96901906Y-80806384D01*
X130549500Y-80806384D01*
X130549500Y-80993616D01*
X130571836Y-81105907D01*
X130586026Y-81177248D01*
X130586029Y-81177258D01*
X130657675Y-81350225D01*
X130657676Y-81350227D01*
X130657678Y-81350231D01*
X130761698Y-81505908D01*
X130894092Y-81638302D01*
X131049769Y-81742322D01*
X131049774Y-81742324D01*
X131222741Y-81813970D01*
X131222743Y-81813970D01*
X131222749Y-81813973D01*
X131406384Y-81850500D01*
X131406387Y-81850500D01*
X131593613Y-81850500D01*
X131593616Y-81850500D01*
X131777251Y-81813973D01*
X131950231Y-81742322D01*
X132105908Y-81638302D01*
X132238302Y-81505908D01*
X132342322Y-81350231D01*
X132413973Y-81177251D01*
X132450500Y-80993616D01*
X132450500Y-80806384D01*
X132413973Y-80622749D01*
X132342322Y-80449769D01*
X132238302Y-80294092D01*
X132105908Y-80161698D01*
X131950231Y-80057678D01*
X131950227Y-80057676D01*
X131950225Y-80057675D01*
X131777258Y-79986029D01*
X131777248Y-79986026D01*
X131703194Y-79971296D01*
X131593616Y-79949500D01*
X131406384Y-79949500D01*
X131314986Y-79967680D01*
X131222751Y-79986026D01*
X131222741Y-79986029D01*
X131049774Y-80057675D01*
X131049770Y-80057677D01*
X131049769Y-80057678D01*
X131010195Y-80084120D01*
X130894092Y-80161697D01*
X130761697Y-80294092D01*
X130657675Y-80449774D01*
X130586029Y-80622741D01*
X130586026Y-80622751D01*
X130567680Y-80714986D01*
X130549500Y-80806384D01*
X96901906Y-80806384D01*
X96913973Y-80777251D01*
X96950500Y-80593616D01*
X96950500Y-80406384D01*
X96913973Y-80222749D01*
X96842322Y-80049769D01*
X96792863Y-79975748D01*
X96785548Y-79938969D01*
X96798956Y-79913882D01*
X98446454Y-78266384D01*
X130549500Y-78266384D01*
X130549500Y-78453616D01*
X130571836Y-78565907D01*
X130586026Y-78637248D01*
X130586029Y-78637258D01*
X130657675Y-78810225D01*
X130657676Y-78810227D01*
X130657678Y-78810231D01*
X130761698Y-78965908D01*
X130894092Y-79098302D01*
X131049769Y-79202322D01*
X131049774Y-79202324D01*
X131222741Y-79273970D01*
X131222743Y-79273970D01*
X131222749Y-79273973D01*
X131406384Y-79310500D01*
X131406387Y-79310500D01*
X131593613Y-79310500D01*
X131593616Y-79310500D01*
X131777251Y-79273973D01*
X131950231Y-79202322D01*
X132105908Y-79098302D01*
X132238302Y-78965908D01*
X132342322Y-78810231D01*
X132413973Y-78637251D01*
X132450500Y-78453616D01*
X132450500Y-78266384D01*
X132413973Y-78082749D01*
X132342322Y-77909769D01*
X132238302Y-77754092D01*
X132105908Y-77621698D01*
X132085874Y-77608312D01*
X132034020Y-77573664D01*
X131950231Y-77517678D01*
X131950227Y-77517676D01*
X131950225Y-77517675D01*
X131777258Y-77446029D01*
X131777248Y-77446026D01*
X131703194Y-77431296D01*
X131593616Y-77409500D01*
X131406384Y-77409500D01*
X131314986Y-77427680D01*
X131222751Y-77446026D01*
X131222741Y-77446029D01*
X131049774Y-77517675D01*
X131049770Y-77517677D01*
X131049769Y-77517678D01*
X131024225Y-77534746D01*
X130894092Y-77621697D01*
X130761697Y-77754092D01*
X130657675Y-77909774D01*
X130586029Y-78082741D01*
X130586026Y-78082751D01*
X130567680Y-78174986D01*
X130549500Y-78266384D01*
X98446454Y-78266384D01*
X100986455Y-75726384D01*
X130549500Y-75726384D01*
X130549500Y-75913616D01*
X130571836Y-76025907D01*
X130586026Y-76097248D01*
X130586029Y-76097258D01*
X130657675Y-76270225D01*
X130657676Y-76270227D01*
X130657678Y-76270231D01*
X130761698Y-76425908D01*
X130894092Y-76558302D01*
X131049769Y-76662322D01*
X131049774Y-76662324D01*
X131222741Y-76733970D01*
X131222743Y-76733970D01*
X131222749Y-76733973D01*
X131406384Y-76770500D01*
X131406387Y-76770500D01*
X131593613Y-76770500D01*
X131593616Y-76770500D01*
X131777251Y-76733973D01*
X131950231Y-76662322D01*
X132105908Y-76558302D01*
X132238302Y-76425908D01*
X132342322Y-76270231D01*
X132413973Y-76097251D01*
X132450500Y-75913616D01*
X132450500Y-75726384D01*
X132413973Y-75542749D01*
X132342322Y-75369769D01*
X132238302Y-75214092D01*
X132105908Y-75081698D01*
X131950231Y-74977678D01*
X131950227Y-74977676D01*
X131950225Y-74977675D01*
X131777258Y-74906029D01*
X131777248Y-74906026D01*
X131703194Y-74891296D01*
X131593616Y-74869500D01*
X131406384Y-74869500D01*
X131314986Y-74887680D01*
X131222751Y-74906026D01*
X131222741Y-74906029D01*
X131049774Y-74977675D01*
X131049770Y-74977677D01*
X131049769Y-74977678D01*
X131010195Y-75004120D01*
X130894092Y-75081697D01*
X130761697Y-75214092D01*
X130657675Y-75369774D01*
X130586029Y-75542741D01*
X130586026Y-75542751D01*
X130567680Y-75634986D01*
X130549500Y-75726384D01*
X100986455Y-75726384D01*
X101997588Y-74715251D01*
X102009043Y-74687593D01*
X102020500Y-74659936D01*
X102020500Y-73220669D01*
X108589000Y-73220669D01*
X108589000Y-73326130D01*
X108616292Y-73427985D01*
X108616293Y-73427989D01*
X108669020Y-73519313D01*
X108743587Y-73593880D01*
X108749511Y-73597300D01*
X108834910Y-73646606D01*
X108834912Y-73646606D01*
X108834913Y-73646607D01*
X108915247Y-73668132D01*
X108936769Y-73673899D01*
X108936770Y-73673900D01*
X108936773Y-73673900D01*
X109042230Y-73673900D01*
X109042230Y-73673899D01*
X109144087Y-73646607D01*
X109235413Y-73593880D01*
X109309980Y-73519313D01*
X109350922Y-73448399D01*
X109380674Y-73425570D01*
X109393356Y-73423900D01*
X115617464Y-73423900D01*
X115652112Y-73438252D01*
X116032509Y-73818649D01*
X116046861Y-73853297D01*
X116045192Y-73865978D01*
X116024000Y-73945072D01*
X116024000Y-74050530D01*
X116051292Y-74152385D01*
X116051293Y-74152389D01*
X116096391Y-74230500D01*
X116104020Y-74243713D01*
X116178587Y-74318280D01*
X116212013Y-74337578D01*
X116269910Y-74371006D01*
X116269912Y-74371006D01*
X116269913Y-74371007D01*
X116350247Y-74392532D01*
X116371769Y-74398299D01*
X116371770Y-74398300D01*
X116371773Y-74398300D01*
X116477230Y-74398300D01*
X116477230Y-74398299D01*
X116579087Y-74371007D01*
X116670413Y-74318280D01*
X116744980Y-74243713D01*
X116797707Y-74152387D01*
X116824999Y-74050530D01*
X116825000Y-74050530D01*
X116825000Y-73945070D01*
X116824999Y-73945069D01*
X116797707Y-73843214D01*
X116797706Y-73843210D01*
X116744979Y-73751886D01*
X116670413Y-73677320D01*
X116579089Y-73624593D01*
X116579085Y-73624592D01*
X116477230Y-73597300D01*
X116477227Y-73597300D01*
X116371773Y-73597300D01*
X116371772Y-73597300D01*
X116292678Y-73618492D01*
X116255496Y-73613596D01*
X116245349Y-73605809D01*
X115825924Y-73186384D01*
X130549500Y-73186384D01*
X130549500Y-73373616D01*
X130571836Y-73485907D01*
X130586026Y-73557248D01*
X130586029Y-73557258D01*
X130657675Y-73730225D01*
X130657676Y-73730227D01*
X130657678Y-73730231D01*
X130761698Y-73885908D01*
X130894092Y-74018302D01*
X131049769Y-74122322D01*
X131049774Y-74122324D01*
X131222741Y-74193970D01*
X131222743Y-74193970D01*
X131222749Y-74193973D01*
X131406384Y-74230500D01*
X131406387Y-74230500D01*
X131593613Y-74230500D01*
X131593616Y-74230500D01*
X131777251Y-74193973D01*
X131950231Y-74122322D01*
X132105908Y-74018302D01*
X132238302Y-73885908D01*
X132342322Y-73730231D01*
X132413973Y-73557251D01*
X132450500Y-73373616D01*
X132450500Y-73186384D01*
X132413973Y-73002749D01*
X132393333Y-72952921D01*
X132342324Y-72829774D01*
X132342322Y-72829769D01*
X132238302Y-72674092D01*
X132105908Y-72541698D01*
X131950231Y-72437678D01*
X131950227Y-72437676D01*
X131950225Y-72437675D01*
X131777258Y-72366029D01*
X131777248Y-72366026D01*
X131703194Y-72351296D01*
X131593616Y-72329500D01*
X131406384Y-72329500D01*
X131314986Y-72347680D01*
X131222751Y-72366026D01*
X131222741Y-72366029D01*
X131049774Y-72437675D01*
X131049770Y-72437677D01*
X131049769Y-72437678D01*
X131010195Y-72464120D01*
X130894092Y-72541697D01*
X130761697Y-72674092D01*
X130686667Y-72786384D01*
X130662064Y-72823206D01*
X130657675Y-72829774D01*
X130586029Y-73002741D01*
X130586026Y-73002751D01*
X130581106Y-73027487D01*
X130549500Y-73186384D01*
X115825924Y-73186384D01*
X115785351Y-73145811D01*
X115768078Y-73138657D01*
X115750805Y-73131503D01*
X115730037Y-73122900D01*
X115730036Y-73122900D01*
X109393356Y-73122900D01*
X109358708Y-73108548D01*
X109350923Y-73098402D01*
X109309980Y-73027487D01*
X109235413Y-72952920D01*
X109144089Y-72900193D01*
X109144085Y-72900192D01*
X109042230Y-72872900D01*
X109042227Y-72872900D01*
X108936773Y-72872900D01*
X108936770Y-72872900D01*
X108834914Y-72900192D01*
X108834910Y-72900193D01*
X108743586Y-72952920D01*
X108743586Y-72952921D01*
X108669021Y-73027486D01*
X108669020Y-73027486D01*
X108616293Y-73118810D01*
X108616292Y-73118814D01*
X108589000Y-73220669D01*
X102020500Y-73220669D01*
X102020500Y-72397269D01*
X104419500Y-72397269D01*
X104419500Y-72502730D01*
X104446792Y-72604585D01*
X104446793Y-72604589D01*
X104499520Y-72695913D01*
X104574087Y-72770480D01*
X104601634Y-72786384D01*
X104665410Y-72823206D01*
X104665412Y-72823206D01*
X104665413Y-72823207D01*
X104689922Y-72829774D01*
X104767269Y-72850499D01*
X104767270Y-72850500D01*
X104767273Y-72850500D01*
X104872730Y-72850500D01*
X104872730Y-72850499D01*
X104974587Y-72823207D01*
X105065913Y-72770480D01*
X105140480Y-72695913D01*
X105193207Y-72604587D01*
X105220499Y-72502730D01*
X105220500Y-72502730D01*
X105220500Y-72397270D01*
X105220499Y-72397269D01*
X105199519Y-72318969D01*
X105193207Y-72295413D01*
X105193206Y-72295412D01*
X105193206Y-72295410D01*
X105140479Y-72204086D01*
X105094852Y-72158459D01*
X105080500Y-72123811D01*
X105080500Y-69637269D01*
X108739500Y-69637269D01*
X108739500Y-69742730D01*
X108766792Y-69844585D01*
X108766793Y-69844589D01*
X108794588Y-69892730D01*
X108819520Y-69935913D01*
X108894087Y-70010480D01*
X108910921Y-70020199D01*
X108985410Y-70063206D01*
X108985412Y-70063206D01*
X108985413Y-70063207D01*
X109065747Y-70084732D01*
X109087269Y-70090499D01*
X109087270Y-70090500D01*
X109087273Y-70090500D01*
X109192730Y-70090500D01*
X109192730Y-70090499D01*
X109294587Y-70063207D01*
X109295381Y-70062749D01*
X109318328Y-70049500D01*
X109385913Y-70010480D01*
X109460480Y-69935913D01*
X109501422Y-69864999D01*
X109531174Y-69842170D01*
X109543856Y-69840500D01*
X126107364Y-69840500D01*
X126142012Y-69854852D01*
X126701041Y-70413880D01*
X126715393Y-70448528D01*
X126707135Y-70475751D01*
X126657677Y-70549770D01*
X126586028Y-70722745D01*
X126586026Y-70722751D01*
X126578608Y-70760047D01*
X126549500Y-70906384D01*
X126549500Y-71093616D01*
X126573740Y-71215479D01*
X126586026Y-71277248D01*
X126586029Y-71277258D01*
X126657675Y-71450225D01*
X126657676Y-71450227D01*
X126657678Y-71450231D01*
X126761698Y-71605908D01*
X126894092Y-71738302D01*
X127049769Y-71842322D01*
X127049774Y-71842324D01*
X127222741Y-71913970D01*
X127222743Y-71913970D01*
X127222749Y-71913973D01*
X127406384Y-71950500D01*
X127406387Y-71950500D01*
X127593613Y-71950500D01*
X127593616Y-71950500D01*
X127777251Y-71913973D01*
X127950231Y-71842322D01*
X128105908Y-71738302D01*
X128238302Y-71605908D01*
X128342322Y-71450231D01*
X128413973Y-71277251D01*
X128450500Y-71093616D01*
X128450500Y-70906384D01*
X128413973Y-70722749D01*
X128413970Y-70722741D01*
X128389112Y-70662728D01*
X128382342Y-70646384D01*
X130549500Y-70646384D01*
X130549500Y-70833616D01*
X130571836Y-70945907D01*
X130586026Y-71017248D01*
X130586029Y-71017258D01*
X130657675Y-71190225D01*
X130657676Y-71190227D01*
X130657678Y-71190231D01*
X130761698Y-71345908D01*
X130894092Y-71478302D01*
X131049769Y-71582322D01*
X131049774Y-71582324D01*
X131222741Y-71653970D01*
X131222743Y-71653970D01*
X131222749Y-71653973D01*
X131406384Y-71690500D01*
X131406387Y-71690500D01*
X131593613Y-71690500D01*
X131593616Y-71690500D01*
X131777251Y-71653973D01*
X131950231Y-71582322D01*
X132105908Y-71478302D01*
X132238302Y-71345908D01*
X132328765Y-71210519D01*
X132359947Y-71189685D01*
X132396730Y-71197001D01*
X132404155Y-71203095D01*
X133334409Y-72133349D01*
X133348761Y-72167997D01*
X133347092Y-72180678D01*
X133325900Y-72259772D01*
X133325900Y-72365230D01*
X133353192Y-72467085D01*
X133353193Y-72467089D01*
X133405920Y-72558413D01*
X133480487Y-72632980D01*
X133513913Y-72652278D01*
X133571810Y-72685706D01*
X133571812Y-72685706D01*
X133571813Y-72685707D01*
X133652147Y-72707232D01*
X133673669Y-72712999D01*
X133673670Y-72713000D01*
X133673673Y-72713000D01*
X133779130Y-72713000D01*
X133779130Y-72712999D01*
X133880987Y-72685707D01*
X133972313Y-72632980D01*
X134046880Y-72558413D01*
X134099607Y-72467087D01*
X134126899Y-72365230D01*
X134126900Y-72365230D01*
X134126900Y-72259770D01*
X134126899Y-72259769D01*
X134099607Y-72157914D01*
X134099606Y-72157910D01*
X134066178Y-72100013D01*
X134046880Y-72066587D01*
X133972313Y-71992020D01*
X133880989Y-71939293D01*
X133880985Y-71939292D01*
X133779130Y-71912000D01*
X133779127Y-71912000D01*
X133673673Y-71912000D01*
X133673672Y-71912000D01*
X133594578Y-71933192D01*
X133557396Y-71928296D01*
X133547249Y-71920509D01*
X132464852Y-70838112D01*
X132450500Y-70803464D01*
X132450500Y-70646387D01*
X132450500Y-70646384D01*
X132413973Y-70462749D01*
X132408082Y-70448528D01*
X132342324Y-70289774D01*
X132342322Y-70289769D01*
X132238302Y-70134092D01*
X132105908Y-70001698D01*
X131950231Y-69897678D01*
X131950227Y-69897676D01*
X131950225Y-69897675D01*
X131777258Y-69826029D01*
X131777248Y-69826026D01*
X131703194Y-69811296D01*
X131593616Y-69789500D01*
X131406384Y-69789500D01*
X131314986Y-69807680D01*
X131222751Y-69826026D01*
X131222741Y-69826029D01*
X131049774Y-69897675D01*
X131049770Y-69897677D01*
X131049769Y-69897678D01*
X131010195Y-69924120D01*
X130894092Y-70001697D01*
X130761697Y-70134092D01*
X130716964Y-70201041D01*
X130676435Y-70261698D01*
X130657675Y-70289774D01*
X130586029Y-70462741D01*
X130586026Y-70462751D01*
X130568718Y-70549769D01*
X130549500Y-70646384D01*
X128382342Y-70646384D01*
X128342323Y-70549772D01*
X128342322Y-70549770D01*
X128342322Y-70549769D01*
X128238302Y-70394092D01*
X128105908Y-70261698D01*
X128082993Y-70246387D01*
X128067381Y-70235955D01*
X127950231Y-70157678D01*
X127950227Y-70157676D01*
X127950225Y-70157675D01*
X127777258Y-70086029D01*
X127777248Y-70086026D01*
X127703194Y-70071296D01*
X127593616Y-70049500D01*
X127406384Y-70049500D01*
X127337474Y-70063207D01*
X127222751Y-70086026D01*
X127222745Y-70086028D01*
X127049770Y-70157677D01*
X126975751Y-70207135D01*
X126938968Y-70214451D01*
X126913880Y-70201041D01*
X126275255Y-69562414D01*
X126275250Y-69562411D01*
X126258303Y-69555392D01*
X126240705Y-69548103D01*
X126238366Y-69547134D01*
X126219937Y-69539500D01*
X126219936Y-69539500D01*
X109543856Y-69539500D01*
X109509208Y-69525148D01*
X109501423Y-69515002D01*
X109460480Y-69444087D01*
X109385913Y-69369520D01*
X109294589Y-69316793D01*
X109294585Y-69316792D01*
X109192730Y-69289500D01*
X109192727Y-69289500D01*
X109087273Y-69289500D01*
X109087270Y-69289500D01*
X108985414Y-69316792D01*
X108985410Y-69316793D01*
X108894086Y-69369520D01*
X108894086Y-69369521D01*
X108819521Y-69444086D01*
X108819520Y-69444086D01*
X108766793Y-69535410D01*
X108766792Y-69535414D01*
X108739500Y-69637269D01*
X105080500Y-69637269D01*
X105080500Y-68293856D01*
X105094852Y-68259208D01*
X105104997Y-68251423D01*
X105175913Y-68210480D01*
X105250480Y-68135913D01*
X105291422Y-68064999D01*
X105321174Y-68042170D01*
X105333856Y-68040500D01*
X110759934Y-68040500D01*
X110759936Y-68040500D01*
X110782848Y-68031009D01*
X110815252Y-68017588D01*
X110885571Y-67947269D01*
X111669500Y-67947269D01*
X111669500Y-68052730D01*
X111696792Y-68154585D01*
X111696793Y-68154589D01*
X111749520Y-68245913D01*
X111824087Y-68320480D01*
X111857513Y-68339778D01*
X111915410Y-68373206D01*
X111915412Y-68373206D01*
X111915413Y-68373207D01*
X111995747Y-68394732D01*
X112017269Y-68400499D01*
X112017270Y-68400500D01*
X112017273Y-68400500D01*
X112122730Y-68400500D01*
X112122730Y-68400499D01*
X112224587Y-68373207D01*
X112236405Y-68366384D01*
X126549500Y-68366384D01*
X126549500Y-68553616D01*
X126567145Y-68642322D01*
X126586026Y-68737248D01*
X126586029Y-68737258D01*
X126657675Y-68910225D01*
X126657676Y-68910227D01*
X126657678Y-68910231D01*
X126761698Y-69065908D01*
X126894092Y-69198302D01*
X127049769Y-69302322D01*
X127049774Y-69302324D01*
X127222741Y-69373970D01*
X127222743Y-69373970D01*
X127222749Y-69373973D01*
X127406384Y-69410500D01*
X127406387Y-69410500D01*
X127593613Y-69410500D01*
X127593616Y-69410500D01*
X127777251Y-69373973D01*
X127950231Y-69302322D01*
X128105908Y-69198302D01*
X128238302Y-69065908D01*
X128342322Y-68910231D01*
X128413973Y-68737251D01*
X128450500Y-68553616D01*
X128450500Y-68366384D01*
X128413973Y-68182749D01*
X128402307Y-68154585D01*
X128389112Y-68122728D01*
X128382342Y-68106384D01*
X130549500Y-68106384D01*
X130549500Y-68293616D01*
X130565332Y-68373207D01*
X130586026Y-68477248D01*
X130586029Y-68477258D01*
X130657675Y-68650225D01*
X130657676Y-68650227D01*
X130657678Y-68650231D01*
X130761698Y-68805908D01*
X130894092Y-68938302D01*
X131049769Y-69042322D01*
X131049774Y-69042324D01*
X131222741Y-69113970D01*
X131222743Y-69113970D01*
X131222749Y-69113973D01*
X131406384Y-69150500D01*
X131406387Y-69150500D01*
X131593613Y-69150500D01*
X131593616Y-69150500D01*
X131777251Y-69113973D01*
X131950231Y-69042322D01*
X132105908Y-68938302D01*
X132238302Y-68805908D01*
X132342322Y-68650231D01*
X132413973Y-68477251D01*
X132450500Y-68293616D01*
X132450500Y-68106384D01*
X132413973Y-67922749D01*
X132342322Y-67749769D01*
X132238302Y-67594092D01*
X132105908Y-67461698D01*
X131950231Y-67357678D01*
X131950227Y-67357676D01*
X131950225Y-67357675D01*
X131777258Y-67286029D01*
X131777248Y-67286026D01*
X131703194Y-67271296D01*
X131593616Y-67249500D01*
X131406384Y-67249500D01*
X131314986Y-67267680D01*
X131222751Y-67286026D01*
X131222741Y-67286029D01*
X131049774Y-67357675D01*
X131049770Y-67357677D01*
X131049769Y-67357678D01*
X131011564Y-67383206D01*
X130894092Y-67461697D01*
X130761697Y-67594092D01*
X130728293Y-67644086D01*
X130667271Y-67735413D01*
X130657675Y-67749774D01*
X130586029Y-67922741D01*
X130586026Y-67922751D01*
X130568718Y-68009769D01*
X130549500Y-68106384D01*
X128382342Y-68106384D01*
X128345561Y-68017588D01*
X128342322Y-68009769D01*
X128238302Y-67854092D01*
X128105908Y-67721698D01*
X128082993Y-67706387D01*
X128067381Y-67695955D01*
X127950231Y-67617678D01*
X127950227Y-67617676D01*
X127950225Y-67617675D01*
X127777258Y-67546029D01*
X127777248Y-67546026D01*
X127689528Y-67528578D01*
X127593616Y-67509500D01*
X127406384Y-67509500D01*
X127314986Y-67527680D01*
X127222751Y-67546026D01*
X127222741Y-67546029D01*
X127049774Y-67617675D01*
X127049770Y-67617677D01*
X127049769Y-67617678D01*
X127010247Y-67644086D01*
X126894092Y-67721697D01*
X126761697Y-67854092D01*
X126657675Y-68009774D01*
X126586029Y-68182741D01*
X126586026Y-68182751D01*
X126580511Y-68210479D01*
X126549500Y-68366384D01*
X112236405Y-68366384D01*
X112315913Y-68320480D01*
X112390480Y-68245913D01*
X112443207Y-68154587D01*
X112470499Y-68052730D01*
X112470500Y-68052730D01*
X112470500Y-67947270D01*
X112470499Y-67947269D01*
X112456122Y-67893612D01*
X112443207Y-67845413D01*
X112443206Y-67845412D01*
X112443206Y-67845410D01*
X112390479Y-67754086D01*
X112315913Y-67679520D01*
X112224589Y-67626793D01*
X112224585Y-67626792D01*
X112122730Y-67599500D01*
X112122727Y-67599500D01*
X112017273Y-67599500D01*
X112017270Y-67599500D01*
X111915414Y-67626792D01*
X111915410Y-67626793D01*
X111824086Y-67679520D01*
X111824086Y-67679521D01*
X111749521Y-67754086D01*
X111749520Y-67754086D01*
X111696793Y-67845410D01*
X111696792Y-67845414D01*
X111669500Y-67947269D01*
X110885571Y-67947269D01*
X116340850Y-62491988D01*
X116375497Y-62477637D01*
X116388179Y-62479307D01*
X116467270Y-62500500D01*
X116467273Y-62500500D01*
X116572730Y-62500500D01*
X116572730Y-62500499D01*
X116674587Y-62473207D01*
X116765913Y-62420480D01*
X116840480Y-62345913D01*
X116891092Y-62258251D01*
X116893206Y-62254589D01*
X116893206Y-62254588D01*
X116893207Y-62254587D01*
X116920499Y-62152730D01*
X116920500Y-62152730D01*
X116920500Y-62047270D01*
X116920499Y-62047269D01*
X116898923Y-61966743D01*
X116896384Y-61957269D01*
X123349500Y-61957269D01*
X123349500Y-62062730D01*
X123376792Y-62164585D01*
X123376793Y-62164589D01*
X123426940Y-62251445D01*
X123429520Y-62255913D01*
X123504087Y-62330480D01*
X123530818Y-62345913D01*
X123595410Y-62383206D01*
X123595413Y-62383207D01*
X123697810Y-62410644D01*
X123719776Y-62423326D01*
X126672717Y-65376267D01*
X126687069Y-65410915D01*
X126678812Y-65438136D01*
X126657679Y-65469765D01*
X126586028Y-65642745D01*
X126586026Y-65642751D01*
X126576086Y-65692727D01*
X126549500Y-65826384D01*
X126549500Y-66013616D01*
X126564594Y-66089500D01*
X126586026Y-66197248D01*
X126586029Y-66197258D01*
X126657675Y-66370225D01*
X126657676Y-66370227D01*
X126657678Y-66370231D01*
X126761698Y-66525908D01*
X126894092Y-66658302D01*
X127049769Y-66762322D01*
X127049774Y-66762324D01*
X127222741Y-66833970D01*
X127222743Y-66833970D01*
X127222749Y-66833973D01*
X127406384Y-66870500D01*
X127406387Y-66870500D01*
X127593613Y-66870500D01*
X127593616Y-66870500D01*
X127777251Y-66833973D01*
X127950231Y-66762322D01*
X128105908Y-66658302D01*
X128238302Y-66525908D01*
X128342322Y-66370231D01*
X128413973Y-66197251D01*
X128450500Y-66013616D01*
X128450500Y-65826384D01*
X128413973Y-65642749D01*
X128390992Y-65587269D01*
X128342324Y-65469774D01*
X128342322Y-65469769D01*
X128238302Y-65314092D01*
X128105908Y-65181698D01*
X128082993Y-65166387D01*
X128037143Y-65135751D01*
X127950231Y-65077678D01*
X127950227Y-65077676D01*
X127950225Y-65077675D01*
X127777258Y-65006029D01*
X127777248Y-65006026D01*
X127703194Y-64991296D01*
X127593616Y-64969500D01*
X127406384Y-64969500D01*
X127314986Y-64987680D01*
X127222751Y-65006026D01*
X127222745Y-65006028D01*
X127049765Y-65077679D01*
X127018136Y-65098812D01*
X126981354Y-65106127D01*
X126956267Y-65092717D01*
X125149934Y-63286384D01*
X126549500Y-63286384D01*
X126549500Y-63473616D01*
X126567145Y-63562322D01*
X126586026Y-63657248D01*
X126586029Y-63657258D01*
X126657675Y-63830225D01*
X126657676Y-63830227D01*
X126657678Y-63830231D01*
X126761698Y-63985908D01*
X126894092Y-64118302D01*
X127049769Y-64222322D01*
X127049774Y-64222324D01*
X127222741Y-64293970D01*
X127222743Y-64293970D01*
X127222749Y-64293973D01*
X127406384Y-64330500D01*
X127406387Y-64330500D01*
X127593613Y-64330500D01*
X127593616Y-64330500D01*
X127777251Y-64293973D01*
X127950231Y-64222322D01*
X128105908Y-64118302D01*
X128238302Y-63985908D01*
X128342322Y-63830231D01*
X128413973Y-63657251D01*
X128450500Y-63473616D01*
X128450500Y-63286384D01*
X128413973Y-63102749D01*
X128382341Y-63026384D01*
X128342324Y-62929774D01*
X128342322Y-62929769D01*
X128238302Y-62774092D01*
X128105908Y-62641698D01*
X128082993Y-62626387D01*
X128067381Y-62615955D01*
X127950231Y-62537678D01*
X127950227Y-62537676D01*
X127950225Y-62537675D01*
X127777258Y-62466029D01*
X127777248Y-62466026D01*
X127703194Y-62451296D01*
X127593616Y-62429500D01*
X127406384Y-62429500D01*
X127314986Y-62447680D01*
X127222751Y-62466026D01*
X127222741Y-62466029D01*
X127049774Y-62537675D01*
X127049770Y-62537677D01*
X127049769Y-62537678D01*
X127040550Y-62543838D01*
X126894092Y-62641697D01*
X126761697Y-62774092D01*
X126657675Y-62929774D01*
X126586029Y-63102741D01*
X126586026Y-63102751D01*
X126572605Y-63170225D01*
X126549500Y-63286384D01*
X125149934Y-63286384D01*
X124114995Y-62251445D01*
X124100643Y-62216797D01*
X124107206Y-62192299D01*
X124123207Y-62164587D01*
X124150499Y-62062730D01*
X124150500Y-62062730D01*
X124150500Y-61957270D01*
X124150499Y-61957269D01*
X124142424Y-61927134D01*
X124123207Y-61855413D01*
X124123206Y-61855412D01*
X124123206Y-61855410D01*
X124070479Y-61764086D01*
X123995913Y-61689520D01*
X123904589Y-61636793D01*
X123904585Y-61636792D01*
X123802730Y-61609500D01*
X123802727Y-61609500D01*
X123697273Y-61609500D01*
X123697270Y-61609500D01*
X123595414Y-61636792D01*
X123595410Y-61636793D01*
X123504086Y-61689520D01*
X123504086Y-61689521D01*
X123429521Y-61764086D01*
X123429520Y-61764086D01*
X123376793Y-61855410D01*
X123376792Y-61855414D01*
X123349500Y-61957269D01*
X116896384Y-61957269D01*
X116893207Y-61945414D01*
X116893207Y-61945413D01*
X116893206Y-61945411D01*
X116893206Y-61945410D01*
X116854100Y-61877677D01*
X116840480Y-61854087D01*
X116765913Y-61779520D01*
X116748558Y-61769500D01*
X116674589Y-61726793D01*
X116674585Y-61726792D01*
X116572730Y-61699500D01*
X116572727Y-61699500D01*
X116467273Y-61699500D01*
X116467270Y-61699500D01*
X116365414Y-61726792D01*
X116365410Y-61726793D01*
X116274086Y-61779520D01*
X116274086Y-61779521D01*
X116199521Y-61854086D01*
X116199520Y-61854086D01*
X116146793Y-61945410D01*
X116146792Y-61945414D01*
X116119500Y-62047269D01*
X116119500Y-62152730D01*
X116140692Y-62231818D01*
X116135797Y-62269000D01*
X116128010Y-62279148D01*
X110682012Y-67725148D01*
X110647364Y-67739500D01*
X105333856Y-67739500D01*
X105299208Y-67725148D01*
X105291423Y-67715002D01*
X105250480Y-67644087D01*
X105175913Y-67569520D01*
X105143378Y-67550736D01*
X105105000Y-67528578D01*
X105082170Y-67498825D01*
X105080500Y-67486143D01*
X105080500Y-66957269D01*
X106665800Y-66957269D01*
X106665800Y-67062730D01*
X106693092Y-67164585D01*
X106693093Y-67164589D01*
X106721552Y-67213880D01*
X106745820Y-67255913D01*
X106820387Y-67330480D01*
X106853797Y-67349769D01*
X106911710Y-67383206D01*
X106911712Y-67383206D01*
X106911713Y-67383207D01*
X106992047Y-67404732D01*
X107013569Y-67410499D01*
X107013570Y-67410500D01*
X107013573Y-67410500D01*
X107119030Y-67410500D01*
X107119030Y-67410499D01*
X107220887Y-67383207D01*
X107312213Y-67330480D01*
X107386780Y-67255913D01*
X107439507Y-67164587D01*
X107466799Y-67062730D01*
X107466800Y-67062730D01*
X107466800Y-66957270D01*
X107466799Y-66957269D01*
X107447710Y-66886027D01*
X107439507Y-66855413D01*
X107439506Y-66855412D01*
X107439506Y-66855410D01*
X107386779Y-66764086D01*
X107312213Y-66689520D01*
X107241300Y-66648578D01*
X107218470Y-66618825D01*
X107216800Y-66606143D01*
X107216800Y-65476935D01*
X107231152Y-65442287D01*
X112604429Y-60069010D01*
X118012738Y-54660700D01*
X118047385Y-54646349D01*
X118082033Y-54660701D01*
X118094715Y-54682667D01*
X118106992Y-54728485D01*
X118106993Y-54728489D01*
X118126167Y-54761698D01*
X118159720Y-54819813D01*
X118234287Y-54894380D01*
X118262397Y-54910609D01*
X118325610Y-54947106D01*
X118325612Y-54947106D01*
X118325613Y-54947107D01*
X118394030Y-54965439D01*
X118427469Y-54974399D01*
X118427470Y-54974400D01*
X118427473Y-54974400D01*
X118532930Y-54974400D01*
X118532930Y-54974399D01*
X118634787Y-54947107D01*
X118726113Y-54894380D01*
X118800680Y-54819813D01*
X118841622Y-54748899D01*
X118871374Y-54726070D01*
X118884056Y-54724400D01*
X130813094Y-54724400D01*
X130847742Y-54738752D01*
X130862094Y-54773400D01*
X130847742Y-54808048D01*
X130761697Y-54894092D01*
X130674300Y-55024892D01*
X130643117Y-55045727D01*
X130606335Y-55038411D01*
X130598910Y-55032317D01*
X130548713Y-54982120D01*
X130457389Y-54929393D01*
X130457385Y-54929392D01*
X130355530Y-54902100D01*
X130355527Y-54902100D01*
X130250073Y-54902100D01*
X130227451Y-54908161D01*
X130170980Y-54923292D01*
X130133797Y-54918396D01*
X130123650Y-54910609D01*
X130090155Y-54877114D01*
X130090152Y-54877112D01*
X130057748Y-54863690D01*
X130034836Y-54854200D01*
X119363136Y-54854200D01*
X119303264Y-54854200D01*
X119303263Y-54854200D01*
X119298533Y-54855141D01*
X119298079Y-54852858D01*
X119270308Y-54852852D01*
X119270289Y-54852924D01*
X119270021Y-54852852D01*
X119269021Y-54852852D01*
X119267189Y-54852093D01*
X119165330Y-54824800D01*
X119165327Y-54824800D01*
X119059873Y-54824800D01*
X119059870Y-54824800D01*
X118958014Y-54852092D01*
X118958010Y-54852093D01*
X118866686Y-54904820D01*
X118866686Y-54904821D01*
X118792121Y-54979386D01*
X118792120Y-54979386D01*
X118739393Y-55070710D01*
X118739392Y-55070714D01*
X118712100Y-55172569D01*
X118712100Y-55278030D01*
X118739392Y-55379885D01*
X118739393Y-55379889D01*
X118782048Y-55453768D01*
X118792120Y-55471213D01*
X118866687Y-55545780D01*
X118900113Y-55565078D01*
X118958010Y-55598506D01*
X118958012Y-55598506D01*
X118958013Y-55598507D01*
X119029027Y-55617535D01*
X119059869Y-55625799D01*
X119059870Y-55625800D01*
X119059873Y-55625800D01*
X119165330Y-55625800D01*
X119165330Y-55625799D01*
X119267187Y-55598507D01*
X119268097Y-55597982D01*
X119289172Y-55585814D01*
X119358513Y-55545780D01*
X119433080Y-55471213D01*
X119485807Y-55379887D01*
X119513099Y-55278030D01*
X119513100Y-55278030D01*
X119513100Y-55204200D01*
X119527452Y-55169552D01*
X119562100Y-55155200D01*
X121130405Y-55155200D01*
X121165053Y-55169552D01*
X121179405Y-55204200D01*
X121177735Y-55216882D01*
X121151800Y-55313670D01*
X121151800Y-55419129D01*
X121152219Y-55422313D01*
X121150332Y-55422561D01*
X121146228Y-55453768D01*
X121138438Y-55463921D01*
X120356414Y-56245945D01*
X120356410Y-56245951D01*
X120349765Y-56261997D01*
X120349764Y-56262000D01*
X120333500Y-56301262D01*
X120333500Y-59181443D01*
X120319148Y-59216091D01*
X120309000Y-59223878D01*
X120238086Y-59264820D01*
X120238086Y-59264821D01*
X120163521Y-59339386D01*
X120163520Y-59339386D01*
X120110793Y-59430710D01*
X120110792Y-59430714D01*
X120083500Y-59532569D01*
X120083500Y-59638030D01*
X120110792Y-59739885D01*
X120110793Y-59739889D01*
X120143393Y-59796352D01*
X120163520Y-59831213D01*
X120238087Y-59905780D01*
X120258461Y-59917543D01*
X120329410Y-59958506D01*
X120329412Y-59958506D01*
X120329413Y-59958507D01*
X120387578Y-59974092D01*
X120431269Y-59985799D01*
X120431270Y-59985800D01*
X120431273Y-59985800D01*
X120536730Y-59985800D01*
X120536730Y-59985799D01*
X120638587Y-59958507D01*
X120729913Y-59905780D01*
X120804480Y-59831213D01*
X120857207Y-59739887D01*
X120884499Y-59638030D01*
X120884500Y-59638030D01*
X120884500Y-59532570D01*
X120884499Y-59532569D01*
X120873751Y-59492456D01*
X120857207Y-59430713D01*
X120857206Y-59430712D01*
X120857206Y-59430710D01*
X120812563Y-59353387D01*
X120804480Y-59339387D01*
X120729913Y-59264820D01*
X120718606Y-59258292D01*
X120659000Y-59223878D01*
X120636170Y-59194125D01*
X120634500Y-59181443D01*
X120634500Y-56413835D01*
X120648852Y-56379187D01*
X120801831Y-56226208D01*
X120957451Y-56070587D01*
X120992098Y-56056236D01*
X121026746Y-56070588D01*
X121039428Y-56092553D01*
X121055193Y-56151387D01*
X121055193Y-56151389D01*
X121093535Y-56217798D01*
X121107920Y-56242713D01*
X121182487Y-56317280D01*
X121215913Y-56336578D01*
X121273810Y-56370006D01*
X121273812Y-56370006D01*
X121273813Y-56370007D01*
X121308074Y-56379187D01*
X121375669Y-56397299D01*
X121375670Y-56397300D01*
X121375673Y-56397300D01*
X121481130Y-56397300D01*
X121481130Y-56397299D01*
X121582987Y-56370007D01*
X121674313Y-56317280D01*
X121748880Y-56242713D01*
X121797092Y-56159208D01*
X121801606Y-56151389D01*
X121801606Y-56151388D01*
X121801607Y-56151387D01*
X121828899Y-56049530D01*
X121828900Y-56049530D01*
X121828900Y-55971065D01*
X121843252Y-55936417D01*
X121877900Y-55922065D01*
X121912548Y-55936417D01*
X121920334Y-55946564D01*
X121971920Y-56035913D01*
X122046487Y-56110480D01*
X122117400Y-56151422D01*
X122140230Y-56181174D01*
X122141900Y-56193856D01*
X122141900Y-57510637D01*
X122145213Y-57518635D01*
X122145215Y-57518638D01*
X122164811Y-57565950D01*
X122164814Y-57565955D01*
X125729361Y-61130500D01*
X126897248Y-62298387D01*
X126913446Y-62305095D01*
X126913449Y-62305098D01*
X126913450Y-62305097D01*
X126952564Y-62321300D01*
X127928164Y-62321300D01*
X127962812Y-62335652D01*
X130701040Y-65073880D01*
X130715392Y-65108528D01*
X130707134Y-65135751D01*
X130657679Y-65209766D01*
X130586028Y-65382745D01*
X130586026Y-65382751D01*
X130581660Y-65404703D01*
X130549500Y-65566384D01*
X130549500Y-65753616D01*
X130571836Y-65865907D01*
X130586026Y-65937248D01*
X130586029Y-65937258D01*
X130657675Y-66110225D01*
X130657676Y-66110227D01*
X130657678Y-66110231D01*
X130761698Y-66265908D01*
X130894092Y-66398302D01*
X131049769Y-66502322D01*
X131049774Y-66502324D01*
X131222741Y-66573970D01*
X131222743Y-66573970D01*
X131222749Y-66573973D01*
X131406384Y-66610500D01*
X131406387Y-66610500D01*
X131593613Y-66610500D01*
X131593616Y-66610500D01*
X131777251Y-66573973D01*
X131950231Y-66502322D01*
X132105908Y-66398302D01*
X132238302Y-66265908D01*
X132342322Y-66110231D01*
X132413973Y-65937251D01*
X132450500Y-65753616D01*
X132450500Y-65566384D01*
X132413973Y-65382749D01*
X132342322Y-65209769D01*
X132238302Y-65054092D01*
X132105908Y-64921698D01*
X131950231Y-64817678D01*
X131950227Y-64817676D01*
X131950225Y-64817675D01*
X131777258Y-64746029D01*
X131777248Y-64746026D01*
X131703194Y-64731296D01*
X131593616Y-64709500D01*
X131406384Y-64709500D01*
X131314986Y-64727680D01*
X131222751Y-64746026D01*
X131222745Y-64746028D01*
X131049766Y-64817679D01*
X130975751Y-64867134D01*
X130938968Y-64874450D01*
X130913880Y-64861040D01*
X128096054Y-62043213D01*
X128096052Y-62043212D01*
X128063648Y-62029790D01*
X128040736Y-62020300D01*
X127065135Y-62020300D01*
X127030487Y-62005948D01*
X126898686Y-61874147D01*
X126884334Y-61839499D01*
X126898686Y-61804851D01*
X126933334Y-61790499D01*
X128359895Y-61790499D01*
X128359898Y-61790499D01*
X128389213Y-61784669D01*
X128422457Y-61762457D01*
X128444669Y-61729213D01*
X128450500Y-61699899D01*
X128450499Y-60315033D01*
X128464851Y-60280386D01*
X128499499Y-60266034D01*
X128534147Y-60280386D01*
X130735728Y-62481967D01*
X130750080Y-62516615D01*
X130741822Y-62543838D01*
X130657675Y-62669773D01*
X130657675Y-62669774D01*
X130586029Y-62842741D01*
X130586026Y-62842751D01*
X130568718Y-62929769D01*
X130549500Y-63026384D01*
X130549500Y-63213616D01*
X130563975Y-63286387D01*
X130586026Y-63397248D01*
X130586029Y-63397258D01*
X130657675Y-63570225D01*
X130657676Y-63570227D01*
X130657678Y-63570231D01*
X130761698Y-63725908D01*
X130894092Y-63858302D01*
X131049769Y-63962322D01*
X131049774Y-63962324D01*
X131222741Y-64033970D01*
X131222743Y-64033970D01*
X131222749Y-64033973D01*
X131406384Y-64070500D01*
X131406387Y-64070500D01*
X131593613Y-64070500D01*
X131593616Y-64070500D01*
X131777251Y-64033973D01*
X131950231Y-63962322D01*
X132105908Y-63858302D01*
X132238302Y-63725908D01*
X132342322Y-63570231D01*
X132413973Y-63397251D01*
X132450500Y-63213616D01*
X132450500Y-63026384D01*
X132413973Y-62842749D01*
X132342322Y-62669769D01*
X132238302Y-62514092D01*
X132105908Y-62381698D01*
X131950231Y-62277678D01*
X131950227Y-62277676D01*
X131950225Y-62277675D01*
X131777258Y-62206029D01*
X131777248Y-62206026D01*
X131703194Y-62191296D01*
X131593616Y-62169500D01*
X131406384Y-62169500D01*
X131314986Y-62187680D01*
X131222751Y-62206026D01*
X131222745Y-62206028D01*
X131049771Y-62277676D01*
X131036784Y-62286354D01*
X131027662Y-62292449D01*
X130990880Y-62299764D01*
X130965793Y-62286354D01*
X129198064Y-60518625D01*
X129165823Y-60486384D01*
X130549500Y-60486384D01*
X130549500Y-60673616D01*
X130571836Y-60785907D01*
X130586026Y-60857248D01*
X130586029Y-60857258D01*
X130657675Y-61030225D01*
X130657676Y-61030227D01*
X130657678Y-61030231D01*
X130761698Y-61185908D01*
X130894092Y-61318302D01*
X131049769Y-61422322D01*
X131049774Y-61422324D01*
X131222741Y-61493970D01*
X131222743Y-61493970D01*
X131222749Y-61493973D01*
X131406384Y-61530500D01*
X131406387Y-61530500D01*
X131593613Y-61530500D01*
X131593616Y-61530500D01*
X131777251Y-61493973D01*
X131950231Y-61422322D01*
X132105908Y-61318302D01*
X132238302Y-61185908D01*
X132342322Y-61030231D01*
X132413973Y-60857251D01*
X132450500Y-60673616D01*
X132450500Y-60486384D01*
X132413973Y-60302749D01*
X132342322Y-60129769D01*
X132238302Y-59974092D01*
X132105908Y-59841698D01*
X132104115Y-59840500D01*
X132053230Y-59806500D01*
X131950231Y-59737678D01*
X131950227Y-59737676D01*
X131950225Y-59737675D01*
X131777258Y-59666029D01*
X131777248Y-59666026D01*
X131703194Y-59651296D01*
X131593616Y-59629500D01*
X131406384Y-59629500D01*
X131314986Y-59647680D01*
X131222751Y-59666026D01*
X131222741Y-59666029D01*
X131049774Y-59737675D01*
X131049770Y-59737677D01*
X131049769Y-59737678D01*
X131046466Y-59739885D01*
X130894092Y-59841697D01*
X130761697Y-59974092D01*
X130657675Y-60129774D01*
X130586029Y-60302741D01*
X130586026Y-60302751D01*
X130583583Y-60315034D01*
X130549500Y-60486384D01*
X129165823Y-60486384D01*
X126658065Y-57978625D01*
X126625824Y-57946384D01*
X130549500Y-57946384D01*
X130549500Y-58133616D01*
X130571836Y-58245907D01*
X130586026Y-58317248D01*
X130586029Y-58317258D01*
X130657675Y-58490225D01*
X130657676Y-58490227D01*
X130657678Y-58490231D01*
X130761698Y-58645908D01*
X130894092Y-58778302D01*
X131049769Y-58882322D01*
X131049774Y-58882324D01*
X131222741Y-58953970D01*
X131222743Y-58953970D01*
X131222749Y-58953973D01*
X131406384Y-58990500D01*
X131406387Y-58990500D01*
X131593613Y-58990500D01*
X131593616Y-58990500D01*
X131777251Y-58953973D01*
X131950231Y-58882322D01*
X132105908Y-58778302D01*
X132238302Y-58645908D01*
X132342322Y-58490231D01*
X132413973Y-58317251D01*
X132450500Y-58133616D01*
X132450500Y-57946384D01*
X132413973Y-57762749D01*
X132401277Y-57732099D01*
X132342324Y-57589774D01*
X132342322Y-57589769D01*
X132238302Y-57434092D01*
X132105908Y-57301698D01*
X132071743Y-57278870D01*
X132067381Y-57275955D01*
X131950231Y-57197678D01*
X131950227Y-57197676D01*
X131950225Y-57197675D01*
X131777258Y-57126029D01*
X131777248Y-57126026D01*
X131702710Y-57111200D01*
X131593616Y-57089500D01*
X131406384Y-57089500D01*
X131314986Y-57107680D01*
X131222751Y-57126026D01*
X131222741Y-57126029D01*
X131049774Y-57197675D01*
X131049770Y-57197677D01*
X131049769Y-57197678D01*
X131039829Y-57204320D01*
X130894092Y-57301697D01*
X130761697Y-57434092D01*
X130692293Y-57537964D01*
X130659657Y-57586808D01*
X130657675Y-57589774D01*
X130586029Y-57762741D01*
X130586026Y-57762751D01*
X130578687Y-57799648D01*
X130549500Y-57946384D01*
X126625824Y-57946384D01*
X123980154Y-55300713D01*
X123980152Y-55300712D01*
X123947748Y-55287290D01*
X123924836Y-55277800D01*
X121980787Y-55277800D01*
X121968970Y-55272905D01*
X121956288Y-55271236D01*
X121952256Y-55265981D01*
X121946139Y-55263448D01*
X121933457Y-55241483D01*
X121926865Y-55216883D01*
X121931759Y-55179701D01*
X121961512Y-55156870D01*
X121974195Y-55155200D01*
X129863809Y-55155200D01*
X129898457Y-55169552D01*
X129912809Y-55204200D01*
X129911139Y-55216882D01*
X129902300Y-55249869D01*
X129902300Y-55355330D01*
X129929592Y-55457185D01*
X129929593Y-55457189D01*
X129980742Y-55545780D01*
X129982320Y-55548513D01*
X130056887Y-55623080D01*
X130081863Y-55637500D01*
X130148210Y-55675806D01*
X130148212Y-55675806D01*
X130148213Y-55675807D01*
X130192487Y-55687670D01*
X130250069Y-55703099D01*
X130250070Y-55703100D01*
X130250073Y-55703100D01*
X130355530Y-55703100D01*
X130355530Y-55703099D01*
X130457387Y-55675807D01*
X130495457Y-55653826D01*
X130532639Y-55648931D01*
X130562392Y-55671761D01*
X130568015Y-55686703D01*
X130586024Y-55777242D01*
X130586027Y-55777253D01*
X130657675Y-55950225D01*
X130657676Y-55950227D01*
X130657678Y-55950231D01*
X130724676Y-56050500D01*
X130759696Y-56102913D01*
X130761698Y-56105908D01*
X130894092Y-56238302D01*
X131049769Y-56342322D01*
X131049774Y-56342324D01*
X131222741Y-56413970D01*
X131222743Y-56413970D01*
X131222749Y-56413973D01*
X131406384Y-56450500D01*
X131406387Y-56450500D01*
X131593613Y-56450500D01*
X131593616Y-56450500D01*
X131777251Y-56413973D01*
X131950231Y-56342322D01*
X132105908Y-56238302D01*
X132238302Y-56105908D01*
X132315806Y-55989914D01*
X132346985Y-55969082D01*
X132383768Y-55976398D01*
X132398980Y-55992640D01*
X132438379Y-56060880D01*
X132441920Y-56067013D01*
X132516487Y-56141580D01*
X132547020Y-56159208D01*
X132607810Y-56194306D01*
X132607812Y-56194306D01*
X132607813Y-56194307D01*
X132648273Y-56205148D01*
X132709669Y-56221599D01*
X132709670Y-56221600D01*
X132709673Y-56221600D01*
X132815130Y-56221600D01*
X132815130Y-56221599D01*
X132916987Y-56194307D01*
X133008313Y-56141580D01*
X133082880Y-56067013D01*
X133135607Y-55975687D01*
X133162899Y-55873830D01*
X133162900Y-55873830D01*
X133162900Y-55768370D01*
X133162899Y-55768369D01*
X133145410Y-55703099D01*
X133135607Y-55666513D01*
X133135606Y-55666512D01*
X133135606Y-55666510D01*
X133096041Y-55597982D01*
X133082880Y-55575187D01*
X133008313Y-55500620D01*
X132997689Y-55494486D01*
X132937400Y-55459678D01*
X132914570Y-55429925D01*
X132914140Y-55428195D01*
X132912900Y-55422787D01*
X132912900Y-55386864D01*
X132896016Y-55346103D01*
X132889988Y-55331549D01*
X132671803Y-55113364D01*
X132004755Y-54446314D01*
X132004750Y-54446311D01*
X131996922Y-54443069D01*
X131970205Y-54432003D01*
X131949437Y-54423400D01*
X131949436Y-54423400D01*
X118884056Y-54423400D01*
X118849408Y-54409048D01*
X118841623Y-54398902D01*
X118800680Y-54327987D01*
X118726113Y-54253420D01*
X118706626Y-54242169D01*
X118634789Y-54200693D01*
X118634785Y-54200692D01*
X118588967Y-54188415D01*
X118559214Y-54165585D01*
X118554319Y-54128403D01*
X118566999Y-54106439D01*
X119548587Y-53124852D01*
X119583235Y-53110500D01*
X130520601Y-53110500D01*
X130555249Y-53124852D01*
X130568659Y-53149940D01*
X130586024Y-53237240D01*
X130586029Y-53237258D01*
X130657675Y-53410225D01*
X130657676Y-53410227D01*
X130657678Y-53410231D01*
X130761698Y-53565908D01*
X130894092Y-53698302D01*
X131049769Y-53802322D01*
X131049774Y-53802324D01*
X131222741Y-53873970D01*
X131222743Y-53873970D01*
X131222749Y-53873973D01*
X131406384Y-53910500D01*
X131406387Y-53910500D01*
X131593613Y-53910500D01*
X131593616Y-53910500D01*
X131777251Y-53873973D01*
X131950231Y-53802322D01*
X132105908Y-53698302D01*
X132238302Y-53565908D01*
X132342322Y-53410231D01*
X132413973Y-53237251D01*
X132450500Y-53053616D01*
X132450500Y-52866384D01*
X132413973Y-52682749D01*
X132342322Y-52509769D01*
X132238302Y-52354092D01*
X132105908Y-52221698D01*
X131950231Y-52117678D01*
X131950227Y-52117676D01*
X131950225Y-52117675D01*
X131777258Y-52046029D01*
X131777248Y-52046026D01*
X131703194Y-52031296D01*
X131593616Y-52009500D01*
X131406384Y-52009500D01*
X131314986Y-52027680D01*
X131222751Y-52046026D01*
X131222741Y-52046029D01*
X131049774Y-52117675D01*
X131049770Y-52117677D01*
X131049769Y-52117678D01*
X131010195Y-52144120D01*
X130894092Y-52221697D01*
X130761697Y-52354092D01*
X130657675Y-52509774D01*
X130586029Y-52682741D01*
X130586024Y-52682759D01*
X130568659Y-52770060D01*
X130547824Y-52801242D01*
X130520601Y-52809500D01*
X119470664Y-52809500D01*
X119443006Y-52820955D01*
X119443006Y-52820956D01*
X119415349Y-52832412D01*
X119415347Y-52832413D01*
X119415346Y-52832414D01*
X106938714Y-65309045D01*
X106938711Y-65309050D01*
X106926284Y-65339055D01*
X106926283Y-65339057D01*
X106915800Y-65364362D01*
X106915800Y-66606143D01*
X106901448Y-66640791D01*
X106891300Y-66648578D01*
X106820386Y-66689520D01*
X106820386Y-66689521D01*
X106745821Y-66764086D01*
X106745820Y-66764086D01*
X106693093Y-66855410D01*
X106693092Y-66855414D01*
X106665800Y-66957269D01*
X105080500Y-66957269D01*
X105080500Y-66089500D01*
X105094852Y-66054852D01*
X105129500Y-66040500D01*
X105212730Y-66040500D01*
X105212730Y-66040499D01*
X105314587Y-66013207D01*
X105405913Y-65960480D01*
X105480480Y-65885913D01*
X105526142Y-65806823D01*
X105533206Y-65794589D01*
X105533206Y-65794588D01*
X105533207Y-65794587D01*
X105560499Y-65692730D01*
X105560500Y-65692730D01*
X105560500Y-65587270D01*
X105560499Y-65587269D01*
X105533207Y-65485414D01*
X105533206Y-65485410D01*
X105499778Y-65427513D01*
X105480480Y-65394087D01*
X105405913Y-65319520D01*
X105314589Y-65266793D01*
X105314585Y-65266792D01*
X105212730Y-65239500D01*
X105212727Y-65239500D01*
X105107273Y-65239500D01*
X105107270Y-65239500D01*
X105005414Y-65266792D01*
X105005410Y-65266793D01*
X104914086Y-65319520D01*
X104914086Y-65319521D01*
X104839521Y-65394086D01*
X104839520Y-65394086D01*
X104786793Y-65485410D01*
X104786792Y-65485414D01*
X104759500Y-65587269D01*
X104759500Y-65692730D01*
X104787022Y-65795442D01*
X104784963Y-65826873D01*
X104779500Y-65840063D01*
X104779500Y-67486143D01*
X104765148Y-67520791D01*
X104755000Y-67528578D01*
X104684086Y-67569520D01*
X104684086Y-67569521D01*
X104609521Y-67644086D01*
X104609520Y-67644086D01*
X104556793Y-67735410D01*
X104556792Y-67735414D01*
X104529500Y-67837269D01*
X104529500Y-67942730D01*
X104556792Y-68044585D01*
X104556793Y-68044589D01*
X104609520Y-68135913D01*
X104684087Y-68210480D01*
X104755000Y-68251422D01*
X104777830Y-68281174D01*
X104779500Y-68293856D01*
X104779500Y-72008624D01*
X104765148Y-72043272D01*
X104743183Y-72055954D01*
X104665412Y-72076793D01*
X104665410Y-72076793D01*
X104574086Y-72129520D01*
X104574086Y-72129521D01*
X104499521Y-72204086D01*
X104499520Y-72204086D01*
X104446793Y-72295410D01*
X104446792Y-72295414D01*
X104419500Y-72397269D01*
X102020500Y-72397269D01*
X102020500Y-71373856D01*
X102034852Y-71339208D01*
X102044997Y-71331423D01*
X102115913Y-71290480D01*
X102190480Y-71215913D01*
X102243207Y-71124587D01*
X102270499Y-71022730D01*
X102270500Y-71022730D01*
X102270500Y-70917270D01*
X102270499Y-70917269D01*
X102248083Y-70833612D01*
X102243207Y-70815413D01*
X102243206Y-70815412D01*
X102243206Y-70815410D01*
X102209778Y-70757513D01*
X102190480Y-70724087D01*
X102115913Y-70649520D01*
X102045000Y-70608578D01*
X102022170Y-70578825D01*
X102020500Y-70566143D01*
X102020500Y-65072634D01*
X102034851Y-65037987D01*
X110796623Y-56276214D01*
X110831270Y-56261863D01*
X110843953Y-56263533D01*
X110907271Y-56280500D01*
X110907273Y-56280500D01*
X111012730Y-56280500D01*
X111012730Y-56280499D01*
X111114587Y-56253207D01*
X111123305Y-56248174D01*
X111133281Y-56242414D01*
X111205913Y-56200480D01*
X111280480Y-56125913D01*
X111328044Y-56043530D01*
X111333206Y-56034589D01*
X111333206Y-56034588D01*
X111333207Y-56034587D01*
X111360499Y-55932730D01*
X111360500Y-55932730D01*
X111360500Y-55827270D01*
X111360499Y-55827269D01*
X111354336Y-55804269D01*
X111333207Y-55725413D01*
X111296594Y-55661998D01*
X111291700Y-55624818D01*
X111314530Y-55595065D01*
X111339030Y-55588500D01*
X113546844Y-55588500D01*
X113581492Y-55602852D01*
X113589276Y-55612997D01*
X113630220Y-55683913D01*
X113704787Y-55758480D01*
X113737284Y-55777242D01*
X113796110Y-55811206D01*
X113796112Y-55811206D01*
X113796113Y-55811207D01*
X113856058Y-55827269D01*
X113897969Y-55838499D01*
X113897970Y-55838500D01*
X113897973Y-55838500D01*
X114003430Y-55838500D01*
X114003430Y-55838499D01*
X114105287Y-55811207D01*
X114196613Y-55758480D01*
X114271180Y-55683913D01*
X114323907Y-55592587D01*
X114351199Y-55490730D01*
X114351200Y-55490730D01*
X114351200Y-55385270D01*
X114351199Y-55385269D01*
X114343176Y-55355327D01*
X114323907Y-55283413D01*
X114323906Y-55283412D01*
X114323906Y-55283410D01*
X114278173Y-55204200D01*
X114271180Y-55192087D01*
X114196613Y-55117520D01*
X114178818Y-55107246D01*
X114105289Y-55064793D01*
X114105285Y-55064792D01*
X114003430Y-55037500D01*
X114003427Y-55037500D01*
X113897973Y-55037500D01*
X113897970Y-55037500D01*
X113796114Y-55064792D01*
X113796110Y-55064793D01*
X113704786Y-55117520D01*
X113704786Y-55117521D01*
X113630221Y-55192086D01*
X113630220Y-55192086D01*
X113615904Y-55216883D01*
X113589277Y-55263000D01*
X113559526Y-55285830D01*
X113546844Y-55287500D01*
X110679689Y-55287500D01*
X110645041Y-55273148D01*
X110630689Y-55238500D01*
X110645041Y-55203852D01*
X110704279Y-55144614D01*
X110704280Y-55144613D01*
X110757007Y-55053287D01*
X110784299Y-54951430D01*
X110784300Y-54951430D01*
X110784300Y-54845970D01*
X110784299Y-54845969D01*
X110758339Y-54749082D01*
X110763234Y-54711900D01*
X110792987Y-54689070D01*
X110805669Y-54687400D01*
X110913700Y-54687400D01*
X110948348Y-54701752D01*
X110962700Y-54736400D01*
X110962700Y-54825530D01*
X110989992Y-54927385D01*
X110989993Y-54927389D01*
X111042066Y-55017580D01*
X111042720Y-55018713D01*
X111117287Y-55093280D01*
X111125809Y-55098200D01*
X111208610Y-55146006D01*
X111208612Y-55146006D01*
X111208613Y-55146007D01*
X111288947Y-55167532D01*
X111310469Y-55173299D01*
X111310470Y-55173300D01*
X111310473Y-55173300D01*
X111415930Y-55173300D01*
X111415930Y-55173299D01*
X111517787Y-55146007D01*
X111520202Y-55144613D01*
X111549468Y-55127716D01*
X111609113Y-55093280D01*
X111683680Y-55018713D01*
X111735249Y-54929393D01*
X111736406Y-54927389D01*
X111736406Y-54927388D01*
X111736407Y-54927387D01*
X111763699Y-54825530D01*
X111763700Y-54825530D01*
X111763700Y-54720070D01*
X111763699Y-54720069D01*
X111754945Y-54687400D01*
X111736407Y-54618213D01*
X111736406Y-54618212D01*
X111736406Y-54618210D01*
X111692587Y-54542315D01*
X111683680Y-54526887D01*
X111609113Y-54452320D01*
X111517789Y-54399593D01*
X111517785Y-54399592D01*
X111415930Y-54372300D01*
X111415927Y-54372300D01*
X111310473Y-54372300D01*
X111310470Y-54372300D01*
X111212823Y-54398464D01*
X111181404Y-54396410D01*
X111180162Y-54395896D01*
X111180148Y-54395890D01*
X111157236Y-54386400D01*
X98097591Y-54386400D01*
X98071406Y-54377511D01*
X98070994Y-54378226D01*
X98068213Y-54376620D01*
X98042366Y-54361697D01*
X97976889Y-54323893D01*
X97973922Y-54322665D01*
X97974400Y-54321510D01*
X97948083Y-54301320D01*
X97943186Y-54264138D01*
X97955867Y-54242171D01*
X100959788Y-51238250D01*
X100994435Y-51223899D01*
X101029083Y-51238251D01*
X101036869Y-51248398D01*
X101073020Y-51311013D01*
X101147587Y-51385580D01*
X101181013Y-51404878D01*
X101238910Y-51438306D01*
X101238912Y-51438306D01*
X101238913Y-51438307D01*
X101319247Y-51459832D01*
X101340769Y-51465599D01*
X101340770Y-51465600D01*
X101340773Y-51465600D01*
X101446230Y-51465600D01*
X101446230Y-51465599D01*
X101548087Y-51438307D01*
X101639413Y-51385580D01*
X101713980Y-51311013D01*
X101766707Y-51219687D01*
X101793999Y-51117830D01*
X101794000Y-51117830D01*
X101794000Y-51012370D01*
X101793999Y-51012369D01*
X101766707Y-50910514D01*
X101766706Y-50910510D01*
X101717726Y-50825676D01*
X101713980Y-50819187D01*
X101639413Y-50744620D01*
X101636779Y-50743099D01*
X101548089Y-50691893D01*
X101548085Y-50691892D01*
X101472455Y-50671627D01*
X101442702Y-50648797D01*
X101437807Y-50611615D01*
X101450487Y-50589651D01*
X101532687Y-50507452D01*
X101567335Y-50493100D01*
X101627544Y-50493100D01*
X101662192Y-50507452D01*
X101669976Y-50517597D01*
X101710920Y-50588513D01*
X101785487Y-50663080D01*
X101788120Y-50664600D01*
X101876810Y-50715806D01*
X101876812Y-50715806D01*
X101876813Y-50715807D01*
X101957147Y-50737332D01*
X101978669Y-50743099D01*
X101978670Y-50743100D01*
X101978673Y-50743100D01*
X102084130Y-50743100D01*
X102084130Y-50743099D01*
X102185987Y-50715807D01*
X102277313Y-50663080D01*
X102351880Y-50588513D01*
X102404607Y-50497187D01*
X102431899Y-50395330D01*
X102431900Y-50395330D01*
X102431900Y-50289870D01*
X102431899Y-50289869D01*
X102405702Y-50192100D01*
X102404607Y-50188013D01*
X102404606Y-50188012D01*
X102404606Y-50188010D01*
X102368946Y-50126246D01*
X102351880Y-50096687D01*
X102277313Y-50022120D01*
X102273470Y-50019901D01*
X102185989Y-49969393D01*
X102185985Y-49969392D01*
X102084130Y-49942100D01*
X102084127Y-49942100D01*
X101978673Y-49942100D01*
X101978670Y-49942100D01*
X101876814Y-49969392D01*
X101876810Y-49969393D01*
X101785486Y-50022120D01*
X101785486Y-50022121D01*
X101710921Y-50096686D01*
X101710920Y-50096686D01*
X101694248Y-50125563D01*
X101669977Y-50167600D01*
X101664725Y-50171630D01*
X101662192Y-50177748D01*
X101650373Y-50182643D01*
X101640226Y-50190430D01*
X101627544Y-50192100D01*
X101591300Y-50192100D01*
X101556652Y-50177748D01*
X101542300Y-50143100D01*
X101542300Y-50077770D01*
X101542299Y-50077769D01*
X101515007Y-49975914D01*
X101515006Y-49975910D01*
X101462279Y-49884586D01*
X101387713Y-49810020D01*
X101296389Y-49757293D01*
X101296385Y-49757292D01*
X101194530Y-49730000D01*
X101194527Y-49730000D01*
X101089073Y-49730000D01*
X101089070Y-49730000D01*
X100987214Y-49757292D01*
X100987210Y-49757293D01*
X100895886Y-49810020D01*
X100895886Y-49810021D01*
X100821321Y-49884586D01*
X100821320Y-49884586D01*
X100768593Y-49975910D01*
X100768592Y-49975914D01*
X100741300Y-50077769D01*
X100741300Y-50125563D01*
X100726948Y-50160211D01*
X96586118Y-54301040D01*
X96551470Y-54315392D01*
X96524248Y-54307134D01*
X96450231Y-54257678D01*
X96450224Y-54257675D01*
X96277254Y-54186028D01*
X96277248Y-54186026D01*
X96174481Y-54165585D01*
X96093616Y-54149500D01*
X95906384Y-54149500D01*
X95825519Y-54165585D01*
X95722751Y-54186026D01*
X95722741Y-54186029D01*
X95549774Y-54257675D01*
X95549770Y-54257677D01*
X95549769Y-54257678D01*
X95540101Y-54264138D01*
X95394092Y-54361697D01*
X95261697Y-54494092D01*
X95157675Y-54649774D01*
X95086029Y-54822741D01*
X95086026Y-54822751D01*
X95075213Y-54877114D01*
X95049500Y-55006384D01*
X95049500Y-55193616D01*
X95068133Y-55287290D01*
X95086026Y-55377248D01*
X95086029Y-55377258D01*
X95157675Y-55550225D01*
X95157676Y-55550227D01*
X95157678Y-55550231D01*
X95217982Y-55640482D01*
X95259821Y-55703100D01*
X95261698Y-55705908D01*
X95394092Y-55838302D01*
X95549769Y-55942322D01*
X95568863Y-55950231D01*
X95722741Y-56013970D01*
X95722743Y-56013970D01*
X95722749Y-56013973D01*
X95906384Y-56050500D01*
X95906387Y-56050500D01*
X96031464Y-56050500D01*
X96066112Y-56064852D01*
X96080464Y-56099500D01*
X96066112Y-56134148D01*
X95995112Y-56205148D01*
X95960464Y-56219500D01*
X95873062Y-56219500D01*
X95847216Y-56230207D01*
X95840538Y-56232972D01*
X95817750Y-56242411D01*
X95817745Y-56242414D01*
X94960713Y-57099445D01*
X94960713Y-57099446D01*
X94947290Y-57131849D01*
X94947290Y-57131851D01*
X94937800Y-57154764D01*
X94937800Y-57154765D01*
X94937800Y-59298236D01*
X94947290Y-59321148D01*
X94960712Y-59353552D01*
X94960713Y-59353554D01*
X95201040Y-59593880D01*
X95215392Y-59628528D01*
X95207134Y-59655751D01*
X95157679Y-59729766D01*
X95086028Y-59902745D01*
X95086026Y-59902751D01*
X95076234Y-59951980D01*
X95049500Y-60086384D01*
X95049500Y-60273616D01*
X95073740Y-60395479D01*
X95086026Y-60457248D01*
X95086029Y-60457258D01*
X95157675Y-60630225D01*
X95157676Y-60630227D01*
X95157678Y-60630231D01*
X95261698Y-60785908D01*
X95394092Y-60918302D01*
X95549769Y-61022322D01*
X95568863Y-61030231D01*
X95722741Y-61093970D01*
X95722743Y-61093970D01*
X95722749Y-61093973D01*
X95906384Y-61130500D01*
X95906387Y-61130500D01*
X96093613Y-61130500D01*
X96093616Y-61130500D01*
X96277251Y-61093973D01*
X96450231Y-61022322D01*
X96605908Y-60918302D01*
X96738302Y-60785908D01*
X96842322Y-60630231D01*
X96913973Y-60457251D01*
X96950500Y-60273616D01*
X96950500Y-60086384D01*
X96913973Y-59902749D01*
X96910900Y-59895331D01*
X96842324Y-59729774D01*
X96842322Y-59729769D01*
X96738302Y-59574092D01*
X96605908Y-59441698D01*
X96589469Y-59430714D01*
X96524247Y-59387134D01*
X96450231Y-59337678D01*
X96450227Y-59337676D01*
X96450225Y-59337675D01*
X96277258Y-59266029D01*
X96277248Y-59266026D01*
X96203194Y-59251296D01*
X96093616Y-59229500D01*
X95906384Y-59229500D01*
X95814986Y-59247680D01*
X95722751Y-59266026D01*
X95722745Y-59266028D01*
X95549766Y-59337679D01*
X95475751Y-59387134D01*
X95438968Y-59394450D01*
X95413880Y-59381040D01*
X95253152Y-59220312D01*
X95238800Y-59185664D01*
X95238800Y-58341306D01*
X95253152Y-58306658D01*
X95287800Y-58292306D01*
X95322448Y-58306658D01*
X95394092Y-58378302D01*
X95549769Y-58482322D01*
X95568863Y-58490231D01*
X95722741Y-58553970D01*
X95722743Y-58553970D01*
X95722749Y-58553973D01*
X95906384Y-58590500D01*
X95906387Y-58590500D01*
X96093613Y-58590500D01*
X96093616Y-58590500D01*
X96277251Y-58553973D01*
X96450231Y-58482322D01*
X96605908Y-58378302D01*
X96738302Y-58245908D01*
X96842322Y-58090231D01*
X96913973Y-57917251D01*
X96950500Y-57733616D01*
X96950500Y-57721369D01*
X96964852Y-57686721D01*
X96999500Y-57672369D01*
X97023999Y-57678933D01*
X97068813Y-57704807D01*
X97130624Y-57721369D01*
X97170669Y-57732099D01*
X97170670Y-57732100D01*
X97170673Y-57732100D01*
X97276130Y-57732100D01*
X97276130Y-57732099D01*
X97377987Y-57704807D01*
X97469313Y-57652080D01*
X97543880Y-57577513D01*
X97596607Y-57486187D01*
X97623899Y-57384330D01*
X97623900Y-57384330D01*
X97623900Y-57278870D01*
X97623899Y-57278869D01*
X97597974Y-57182114D01*
X97596607Y-57177013D01*
X97546013Y-57089382D01*
X97541118Y-57052203D01*
X97553799Y-57030239D01*
X98573478Y-56010559D01*
X98608125Y-55996208D01*
X98642773Y-56010560D01*
X98650560Y-56020708D01*
X98699751Y-56105908D01*
X98700620Y-56107413D01*
X98775187Y-56181980D01*
X98796538Y-56194307D01*
X98866510Y-56234706D01*
X98866512Y-56234706D01*
X98866513Y-56234707D01*
X98908477Y-56245951D01*
X98968369Y-56261999D01*
X98968370Y-56262000D01*
X98968373Y-56262000D01*
X99073830Y-56262000D01*
X99073830Y-56261999D01*
X99175687Y-56234707D01*
X99267013Y-56181980D01*
X99341580Y-56107413D01*
X99394307Y-56016087D01*
X99404942Y-55976398D01*
X99418120Y-55927218D01*
X99440950Y-55897465D01*
X99465450Y-55890900D01*
X103925044Y-55890900D01*
X103959692Y-55905252D01*
X103967476Y-55915397D01*
X104008420Y-55986313D01*
X104082987Y-56060880D01*
X104099802Y-56070588D01*
X104174310Y-56113606D01*
X104174312Y-56113606D01*
X104174313Y-56113607D01*
X104220244Y-56125914D01*
X104276169Y-56140899D01*
X104276170Y-56140900D01*
X104276173Y-56140900D01*
X104381630Y-56140900D01*
X104381630Y-56140899D01*
X104483487Y-56113607D01*
X104574813Y-56060880D01*
X104649380Y-55986313D01*
X104700676Y-55897465D01*
X104702106Y-55894989D01*
X104702106Y-55894988D01*
X104702107Y-55894987D01*
X104729399Y-55793130D01*
X104729400Y-55793130D01*
X104729400Y-55687670D01*
X104729399Y-55687669D01*
X104712558Y-55624818D01*
X104702107Y-55585813D01*
X104702106Y-55585812D01*
X104702106Y-55585810D01*
X104649379Y-55494486D01*
X104594841Y-55439948D01*
X104580489Y-55405300D01*
X104594841Y-55370652D01*
X104629489Y-55356300D01*
X108271275Y-55356300D01*
X108305923Y-55370652D01*
X108320275Y-55405300D01*
X108313709Y-55429802D01*
X108311392Y-55433812D01*
X108311392Y-55433814D01*
X108284100Y-55535669D01*
X108284100Y-55641130D01*
X108311392Y-55742985D01*
X108311393Y-55742989D01*
X108351476Y-55812413D01*
X108364120Y-55834313D01*
X108438687Y-55908880D01*
X108509600Y-55949822D01*
X108532430Y-55979574D01*
X108534100Y-55992256D01*
X108534100Y-57572763D01*
X108519748Y-57607411D01*
X96586118Y-69541040D01*
X96551470Y-69555392D01*
X96524248Y-69547134D01*
X96450231Y-69497678D01*
X96450224Y-69497675D01*
X96277254Y-69426028D01*
X96277248Y-69426026D01*
X96199191Y-69410500D01*
X96093616Y-69389500D01*
X95906384Y-69389500D01*
X95814986Y-69407680D01*
X95722751Y-69426026D01*
X95722741Y-69426029D01*
X95549774Y-69497675D01*
X95549770Y-69497677D01*
X95549769Y-69497678D01*
X95523845Y-69515000D01*
X95394092Y-69601697D01*
X95261697Y-69734092D01*
X95157675Y-69889774D01*
X95086029Y-70062741D01*
X95086026Y-70062751D01*
X95081396Y-70086029D01*
X95049500Y-70246384D01*
X95049500Y-70433616D01*
X95072604Y-70549769D01*
X95086026Y-70617248D01*
X95086029Y-70617258D01*
X95157675Y-70790225D01*
X95157676Y-70790227D01*
X95157678Y-70790231D01*
X95261698Y-70945908D01*
X95394092Y-71078302D01*
X95549769Y-71182322D01*
X95568863Y-71190231D01*
X95722741Y-71253970D01*
X95722743Y-71253970D01*
X95722749Y-71253973D01*
X95906384Y-71290500D01*
X95906387Y-71290500D01*
X96093613Y-71290500D01*
X96093616Y-71290500D01*
X96277251Y-71253973D01*
X96450231Y-71182322D01*
X96605908Y-71078302D01*
X96738302Y-70945908D01*
X96842322Y-70790231D01*
X96913973Y-70617251D01*
X96950500Y-70433616D01*
X96950500Y-70246384D01*
X96913973Y-70062749D01*
X96842322Y-69889769D01*
X96792863Y-69815748D01*
X96785548Y-69778969D01*
X96798956Y-69753882D01*
X101125052Y-65427787D01*
X101159700Y-65413435D01*
X101194348Y-65427787D01*
X101208700Y-65462435D01*
X101208700Y-67438163D01*
X101194348Y-67472811D01*
X96586118Y-72081040D01*
X96551470Y-72095392D01*
X96524248Y-72087134D01*
X96450231Y-72037678D01*
X96380089Y-72008624D01*
X96277254Y-71966028D01*
X96277248Y-71966026D01*
X96199191Y-71950500D01*
X96093616Y-71929500D01*
X95906384Y-71929500D01*
X95814986Y-71947680D01*
X95722751Y-71966026D01*
X95722741Y-71966029D01*
X95549774Y-72037675D01*
X95549770Y-72037677D01*
X95549769Y-72037678D01*
X95541397Y-72043272D01*
X95394092Y-72141697D01*
X95261697Y-72274092D01*
X95157675Y-72429774D01*
X95086029Y-72602741D01*
X95086026Y-72602751D01*
X95071836Y-72674092D01*
X95049500Y-72786384D01*
X95049500Y-72973616D01*
X95060216Y-73027487D01*
X95086026Y-73157248D01*
X95086029Y-73157258D01*
X95157675Y-73330225D01*
X95157676Y-73330227D01*
X95157678Y-73330231D01*
X95261698Y-73485908D01*
X95394092Y-73618302D01*
X95549769Y-73722322D01*
X95568863Y-73730231D01*
X95722741Y-73793970D01*
X95722743Y-73793970D01*
X95722749Y-73793973D01*
X95906384Y-73830500D01*
X95906387Y-73830500D01*
X96093613Y-73830500D01*
X96093616Y-73830500D01*
X96277251Y-73793973D01*
X96450231Y-73722322D01*
X96605908Y-73618302D01*
X96738302Y-73485908D01*
X96842322Y-73330231D01*
X96913973Y-73157251D01*
X96950500Y-72973616D01*
X96950500Y-72786384D01*
X96913973Y-72602749D01*
X96842322Y-72429769D01*
X96792863Y-72355748D01*
X96785548Y-72318969D01*
X96798956Y-72293882D01*
X101486787Y-67606052D01*
X101502459Y-67568216D01*
X101509700Y-67550736D01*
X101509700Y-65378635D01*
X101524052Y-65343987D01*
X101635852Y-65232187D01*
X101670500Y-65217835D01*
X101705148Y-65232187D01*
X101719500Y-65266835D01*
X101719500Y-69617365D01*
X101705148Y-69652013D01*
X101670500Y-69666365D01*
X101635852Y-69652013D01*
X101628065Y-69641865D01*
X101604874Y-69601698D01*
X101600480Y-69594087D01*
X101525913Y-69519520D01*
X101518084Y-69515000D01*
X101434589Y-69466793D01*
X101434585Y-69466792D01*
X101332730Y-69439500D01*
X101332727Y-69439500D01*
X101227273Y-69439500D01*
X101227270Y-69439500D01*
X101125414Y-69466792D01*
X101125410Y-69466793D01*
X101034086Y-69519520D01*
X101034086Y-69519521D01*
X100959521Y-69594086D01*
X100959520Y-69594086D01*
X100906793Y-69685410D01*
X100906792Y-69685414D01*
X100879500Y-69787269D01*
X100879500Y-69892730D01*
X100906792Y-69994585D01*
X100906793Y-69994589D01*
X100959520Y-70085913D01*
X101034087Y-70160480D01*
X101105000Y-70201422D01*
X101127830Y-70231174D01*
X101129500Y-70243856D01*
X101129500Y-72197364D01*
X101115148Y-72232012D01*
X96742012Y-76605148D01*
X96707364Y-76619500D01*
X95590062Y-76619500D01*
X95534747Y-76642413D01*
X95534745Y-76642414D01*
X94642413Y-77534745D01*
X94642413Y-77534746D01*
X94628990Y-77567149D01*
X94628990Y-77567151D01*
X94619500Y-77590064D01*
X93000500Y-77590064D01*
X93000500Y-75326384D01*
X95049500Y-75326384D01*
X95049500Y-75513616D01*
X95073740Y-75635479D01*
X95086026Y-75697248D01*
X95086029Y-75697258D01*
X95157675Y-75870225D01*
X95157676Y-75870227D01*
X95157678Y-75870231D01*
X95261698Y-76025908D01*
X95394092Y-76158302D01*
X95549769Y-76262322D01*
X95568863Y-76270231D01*
X95722741Y-76333970D01*
X95722743Y-76333970D01*
X95722749Y-76333973D01*
X95906384Y-76370500D01*
X95906387Y-76370500D01*
X96093613Y-76370500D01*
X96093616Y-76370500D01*
X96277251Y-76333973D01*
X96450231Y-76262322D01*
X96605908Y-76158302D01*
X96738302Y-76025908D01*
X96842322Y-75870231D01*
X96913973Y-75697251D01*
X96950500Y-75513616D01*
X96950500Y-75326384D01*
X96913973Y-75142749D01*
X96842322Y-74969769D01*
X96738302Y-74814092D01*
X96605908Y-74681698D01*
X96450231Y-74577678D01*
X96450227Y-74577676D01*
X96450225Y-74577675D01*
X96277258Y-74506029D01*
X96277248Y-74506026D01*
X96203194Y-74491296D01*
X96093616Y-74469500D01*
X95906384Y-74469500D01*
X95814986Y-74487680D01*
X95722751Y-74506026D01*
X95722741Y-74506029D01*
X95549774Y-74577675D01*
X95549770Y-74577677D01*
X95549769Y-74577678D01*
X95510195Y-74604120D01*
X95394092Y-74681697D01*
X95261697Y-74814092D01*
X95157675Y-74969774D01*
X95086029Y-75142741D01*
X95086026Y-75142751D01*
X95071836Y-75214092D01*
X95049500Y-75326384D01*
X93000500Y-75326384D01*
X93000500Y-67706384D01*
X95049500Y-67706384D01*
X95049500Y-67893616D01*
X95060173Y-67947273D01*
X95086026Y-68077248D01*
X95086029Y-68077258D01*
X95157675Y-68250225D01*
X95157676Y-68250227D01*
X95157678Y-68250231D01*
X95261698Y-68405908D01*
X95394092Y-68538302D01*
X95549769Y-68642322D01*
X95568863Y-68650231D01*
X95722741Y-68713970D01*
X95722743Y-68713970D01*
X95722749Y-68713973D01*
X95906384Y-68750500D01*
X95906387Y-68750500D01*
X96093613Y-68750500D01*
X96093616Y-68750500D01*
X96277251Y-68713973D01*
X96450231Y-68642322D01*
X96605908Y-68538302D01*
X96738302Y-68405908D01*
X96842322Y-68250231D01*
X96913973Y-68077251D01*
X96950500Y-67893616D01*
X96950500Y-67706384D01*
X96913973Y-67522749D01*
X96842322Y-67349769D01*
X96792863Y-67275748D01*
X96785548Y-67238969D01*
X96798956Y-67213882D01*
X107084887Y-56927952D01*
X107093870Y-56906264D01*
X107107800Y-56872636D01*
X107107800Y-56260856D01*
X107122152Y-56226208D01*
X107132297Y-56218423D01*
X107203213Y-56177480D01*
X107277780Y-56102913D01*
X107327910Y-56016085D01*
X107330506Y-56011589D01*
X107330506Y-56011588D01*
X107330507Y-56011587D01*
X107357799Y-55909730D01*
X107357800Y-55909730D01*
X107357800Y-55804270D01*
X107357799Y-55804269D01*
X107341378Y-55742985D01*
X107330507Y-55702413D01*
X107330506Y-55702412D01*
X107330506Y-55702410D01*
X107295968Y-55642589D01*
X107277780Y-55611087D01*
X107203213Y-55536520D01*
X107201739Y-55535669D01*
X107111889Y-55483793D01*
X107111885Y-55483792D01*
X107010030Y-55456500D01*
X107010027Y-55456500D01*
X106904573Y-55456500D01*
X106904570Y-55456500D01*
X106802714Y-55483792D01*
X106802710Y-55483793D01*
X106711386Y-55536520D01*
X106711386Y-55536521D01*
X106636821Y-55611086D01*
X106636820Y-55611086D01*
X106584093Y-55702410D01*
X106584092Y-55702414D01*
X106556800Y-55804269D01*
X106556800Y-55909730D01*
X106584092Y-56011585D01*
X106584093Y-56011589D01*
X106636820Y-56102913D01*
X106711387Y-56177480D01*
X106782300Y-56218422D01*
X106805130Y-56248174D01*
X106806800Y-56260856D01*
X106806800Y-56760063D01*
X106792448Y-56794711D01*
X96586118Y-67001040D01*
X96551470Y-67015392D01*
X96524248Y-67007134D01*
X96450231Y-66957678D01*
X96450224Y-66957675D01*
X96277254Y-66886028D01*
X96277248Y-66886026D01*
X96199191Y-66870500D01*
X96093616Y-66849500D01*
X95906384Y-66849500D01*
X95814986Y-66867680D01*
X95722751Y-66886026D01*
X95722741Y-66886029D01*
X95549774Y-66957675D01*
X95549770Y-66957677D01*
X95549769Y-66957678D01*
X95510195Y-66984120D01*
X95394092Y-67061697D01*
X95261697Y-67194092D01*
X95184120Y-67310195D01*
X95170567Y-67330480D01*
X95157675Y-67349774D01*
X95086029Y-67522741D01*
X95086026Y-67522751D01*
X95071836Y-67594092D01*
X95049500Y-67706384D01*
X93000500Y-67706384D01*
X93000500Y-62626384D01*
X95049500Y-62626384D01*
X95049500Y-62813616D01*
X95072604Y-62929769D01*
X95086026Y-62997248D01*
X95086029Y-62997258D01*
X95157675Y-63170225D01*
X95157676Y-63170227D01*
X95157678Y-63170231D01*
X95261698Y-63325908D01*
X95394092Y-63458302D01*
X95549769Y-63562322D01*
X95568863Y-63570231D01*
X95722741Y-63633970D01*
X95722743Y-63633970D01*
X95722749Y-63633973D01*
X95906384Y-63670500D01*
X95906387Y-63670500D01*
X96093613Y-63670500D01*
X96093616Y-63670500D01*
X96277251Y-63633973D01*
X96450231Y-63562322D01*
X96605908Y-63458302D01*
X96738302Y-63325908D01*
X96842322Y-63170231D01*
X96913973Y-62997251D01*
X96950500Y-62813616D01*
X96950500Y-62626384D01*
X96913973Y-62442749D01*
X96842322Y-62269769D01*
X96792863Y-62195748D01*
X96785548Y-62158969D01*
X96798956Y-62133882D01*
X99136487Y-59796352D01*
X99171135Y-59782000D01*
X100989644Y-59782000D01*
X101024292Y-59796352D01*
X101032076Y-59806497D01*
X101073020Y-59877413D01*
X101147587Y-59951980D01*
X101179886Y-59970627D01*
X101234353Y-60002075D01*
X101257183Y-60031828D01*
X101252288Y-60069010D01*
X101244501Y-60079158D01*
X96738583Y-64585077D01*
X96703935Y-64599429D01*
X96669287Y-64585077D01*
X96605907Y-64521697D01*
X96567381Y-64495955D01*
X96450231Y-64417678D01*
X96450227Y-64417676D01*
X96450225Y-64417675D01*
X96277258Y-64346029D01*
X96277248Y-64346026D01*
X96199191Y-64330500D01*
X96093616Y-64309500D01*
X95906384Y-64309500D01*
X95814986Y-64327680D01*
X95722751Y-64346026D01*
X95722741Y-64346029D01*
X95549774Y-64417675D01*
X95549770Y-64417677D01*
X95549769Y-64417678D01*
X95510195Y-64444120D01*
X95394092Y-64521697D01*
X95261697Y-64654092D01*
X95157675Y-64809774D01*
X95086029Y-64982741D01*
X95086026Y-64982751D01*
X95081396Y-65006029D01*
X95049500Y-65166384D01*
X95049500Y-65353616D01*
X95071145Y-65462435D01*
X95086026Y-65537248D01*
X95086029Y-65537258D01*
X95157675Y-65710225D01*
X95157676Y-65710227D01*
X95157678Y-65710231D01*
X95214042Y-65794585D01*
X95244429Y-65840064D01*
X95261698Y-65865908D01*
X95394092Y-65998302D01*
X95549769Y-66102322D01*
X95568863Y-66110231D01*
X95722741Y-66173970D01*
X95722743Y-66173970D01*
X95722749Y-66173973D01*
X95906384Y-66210500D01*
X95906387Y-66210500D01*
X96093613Y-66210500D01*
X96093616Y-66210500D01*
X96277251Y-66173973D01*
X96450231Y-66102322D01*
X96605908Y-65998302D01*
X96738302Y-65865908D01*
X96842322Y-65710231D01*
X96913973Y-65537251D01*
X96950500Y-65353616D01*
X96950500Y-65166384D01*
X96913973Y-64982749D01*
X96883334Y-64908781D01*
X96883334Y-64871279D01*
X96893953Y-64855385D01*
X102326687Y-59422652D01*
X102337773Y-59395887D01*
X102349600Y-59367336D01*
X102349600Y-58202869D01*
X102510600Y-58202869D01*
X102510600Y-58308330D01*
X102537892Y-58410185D01*
X102537893Y-58410189D01*
X102579540Y-58482322D01*
X102590620Y-58501513D01*
X102665187Y-58576080D01*
X102690163Y-58590500D01*
X102756510Y-58628806D01*
X102756512Y-58628806D01*
X102756513Y-58628807D01*
X102820332Y-58645907D01*
X102858369Y-58656099D01*
X102858370Y-58656100D01*
X102858373Y-58656100D01*
X102963828Y-58656100D01*
X102971066Y-58654160D01*
X102981616Y-58651333D01*
X102988182Y-58652197D01*
X102994300Y-58649663D01*
X103006116Y-58654557D01*
X103018799Y-58656227D01*
X103022830Y-58661481D01*
X103028948Y-58664015D01*
X103033842Y-58675830D01*
X103041630Y-58685979D01*
X103043300Y-58698663D01*
X103043300Y-58794943D01*
X103028948Y-58829591D01*
X103018800Y-58837378D01*
X102947886Y-58878320D01*
X102947886Y-58878321D01*
X102873321Y-58952886D01*
X102873320Y-58952886D01*
X102820593Y-59044210D01*
X102820592Y-59044214D01*
X102793300Y-59146069D01*
X102793300Y-59251530D01*
X102820592Y-59353385D01*
X102820593Y-59353389D01*
X102845130Y-59395887D01*
X102873320Y-59444713D01*
X102947887Y-59519280D01*
X102970904Y-59532569D01*
X103039210Y-59572006D01*
X103039212Y-59572006D01*
X103039213Y-59572007D01*
X103119547Y-59593532D01*
X103141069Y-59599299D01*
X103141070Y-59599300D01*
X103141073Y-59599300D01*
X103246530Y-59599300D01*
X103246530Y-59599299D01*
X103348387Y-59572007D01*
X103439713Y-59519280D01*
X103514280Y-59444713D01*
X103567007Y-59353387D01*
X103594299Y-59251530D01*
X103594300Y-59251530D01*
X103594300Y-59146070D01*
X103594299Y-59146069D01*
X103567007Y-59044214D01*
X103567006Y-59044210D01*
X103514279Y-58952886D01*
X103439713Y-58878320D01*
X103368800Y-58837378D01*
X103345970Y-58807625D01*
X103344300Y-58794943D01*
X103344300Y-58508366D01*
X103344299Y-58508362D01*
X103336786Y-58490225D01*
X103321387Y-58453049D01*
X103321387Y-58453048D01*
X103301169Y-58432830D01*
X103299473Y-58430709D01*
X103294952Y-58415104D01*
X103288738Y-58400099D01*
X103289321Y-58395666D01*
X103289038Y-58394687D01*
X103289580Y-58393701D01*
X103290408Y-58387419D01*
X103311599Y-58308330D01*
X103311600Y-58308330D01*
X103311600Y-58202870D01*
X103311599Y-58202869D01*
X103284307Y-58101014D01*
X103284306Y-58101010D01*
X103232124Y-58010630D01*
X103231580Y-58009687D01*
X103157013Y-57935120D01*
X103145817Y-57928656D01*
X103065689Y-57882393D01*
X103065685Y-57882392D01*
X102963830Y-57855100D01*
X102963827Y-57855100D01*
X102858373Y-57855100D01*
X102858370Y-57855100D01*
X102756514Y-57882392D01*
X102756510Y-57882393D01*
X102665186Y-57935120D01*
X102665186Y-57935121D01*
X102590621Y-58009686D01*
X102590620Y-58009686D01*
X102537893Y-58101010D01*
X102537892Y-58101014D01*
X102510600Y-58202869D01*
X102349600Y-58202869D01*
X102349600Y-57928656D01*
X102363952Y-57894008D01*
X102374097Y-57886223D01*
X102445013Y-57845280D01*
X102519580Y-57770713D01*
X102572307Y-57679387D01*
X102599599Y-57577530D01*
X102599600Y-57577530D01*
X102599600Y-57472070D01*
X102599599Y-57472069D01*
X102581913Y-57406064D01*
X102572307Y-57370213D01*
X102572306Y-57370212D01*
X102572306Y-57370210D01*
X102519579Y-57278886D01*
X102445013Y-57204320D01*
X102433509Y-57197678D01*
X102399658Y-57178134D01*
X102376829Y-57148382D01*
X102381724Y-57111200D01*
X102411477Y-57088370D01*
X102424159Y-57086700D01*
X102739144Y-57086700D01*
X102773792Y-57101052D01*
X102781576Y-57111197D01*
X102822520Y-57182113D01*
X102897087Y-57256680D01*
X102904334Y-57260864D01*
X102988410Y-57309406D01*
X102988412Y-57309406D01*
X102988413Y-57309407D01*
X103065865Y-57330160D01*
X103090269Y-57336699D01*
X103090270Y-57336700D01*
X103090273Y-57336700D01*
X103195730Y-57336700D01*
X103195730Y-57336699D01*
X103297587Y-57309407D01*
X103388913Y-57256680D01*
X103463480Y-57182113D01*
X103516207Y-57090787D01*
X103543499Y-56988930D01*
X103543500Y-56988930D01*
X103543500Y-56883470D01*
X103543499Y-56883469D01*
X103523441Y-56808611D01*
X103516207Y-56781613D01*
X103516206Y-56781612D01*
X103516206Y-56781610D01*
X103463479Y-56690286D01*
X103388913Y-56615720D01*
X103297589Y-56562993D01*
X103297585Y-56562992D01*
X103195730Y-56535700D01*
X103195727Y-56535700D01*
X103090273Y-56535700D01*
X103090270Y-56535700D01*
X102988414Y-56562992D01*
X102988410Y-56562993D01*
X102897086Y-56615720D01*
X102897086Y-56615721D01*
X102822521Y-56690286D01*
X102822520Y-56690286D01*
X102807199Y-56716824D01*
X102781577Y-56761200D01*
X102751826Y-56784030D01*
X102739144Y-56785700D01*
X100533862Y-56785700D01*
X100513095Y-56794303D01*
X100513093Y-56794304D01*
X100478548Y-56808611D01*
X99721248Y-57565910D01*
X99686600Y-57580262D01*
X99673918Y-57578592D01*
X99594830Y-57557400D01*
X99594827Y-57557400D01*
X99489373Y-57557400D01*
X99489370Y-57557400D01*
X99387514Y-57584692D01*
X99387510Y-57584693D01*
X99296186Y-57637420D01*
X99296186Y-57637421D01*
X99221621Y-57711986D01*
X99221620Y-57711986D01*
X99168893Y-57803310D01*
X99168892Y-57803314D01*
X99141600Y-57905169D01*
X99141600Y-58010630D01*
X99168892Y-58112485D01*
X99168893Y-58112489D01*
X99221075Y-58202869D01*
X99221620Y-58203813D01*
X99296187Y-58278380D01*
X99320308Y-58292306D01*
X99387510Y-58331106D01*
X99387512Y-58331106D01*
X99387513Y-58331107D01*
X99425577Y-58341306D01*
X99489369Y-58358399D01*
X99489370Y-58358400D01*
X99489373Y-58358400D01*
X99594830Y-58358400D01*
X99594830Y-58358399D01*
X99696687Y-58331107D01*
X99788013Y-58278380D01*
X99862580Y-58203813D01*
X99915307Y-58112487D01*
X99942599Y-58010630D01*
X99942600Y-58010630D01*
X99942600Y-57905170D01*
X99921407Y-57826079D01*
X99926302Y-57788897D01*
X99934085Y-57778753D01*
X100611788Y-57101052D01*
X100646436Y-57086700D01*
X101974041Y-57086700D01*
X102008689Y-57101052D01*
X102023041Y-57135700D01*
X102008689Y-57170348D01*
X101998541Y-57178135D01*
X101953186Y-57204320D01*
X101953186Y-57204321D01*
X101878621Y-57278886D01*
X101878620Y-57278886D01*
X101825893Y-57370210D01*
X101825892Y-57370214D01*
X101798600Y-57472069D01*
X101798600Y-57577530D01*
X101825892Y-57679385D01*
X101825893Y-57679389D01*
X101857202Y-57733616D01*
X101878620Y-57770713D01*
X101953187Y-57845280D01*
X102024100Y-57886222D01*
X102046930Y-57915974D01*
X102048600Y-57928656D01*
X102048600Y-59254764D01*
X102034248Y-59289412D01*
X101841158Y-59482501D01*
X101806510Y-59496853D01*
X101771862Y-59482501D01*
X101764075Y-59472353D01*
X101719928Y-59395889D01*
X101713980Y-59385587D01*
X101639413Y-59311020D01*
X101548089Y-59258293D01*
X101548085Y-59258292D01*
X101446230Y-59231000D01*
X101446227Y-59231000D01*
X101340773Y-59231000D01*
X101340770Y-59231000D01*
X101238914Y-59258292D01*
X101238910Y-59258293D01*
X101147586Y-59311020D01*
X101147586Y-59311021D01*
X101073021Y-59385586D01*
X101073020Y-59385586D01*
X101067073Y-59395887D01*
X101032077Y-59456500D01*
X101002326Y-59479330D01*
X100989644Y-59481000D01*
X99058564Y-59481000D01*
X99030906Y-59492455D01*
X99030906Y-59492456D01*
X99003249Y-59503912D01*
X99003247Y-59503913D01*
X99003245Y-59503914D01*
X96586118Y-61921040D01*
X96551470Y-61935392D01*
X96524248Y-61927134D01*
X96450231Y-61877678D01*
X96450224Y-61877675D01*
X96277254Y-61806028D01*
X96277248Y-61806026D01*
X96199181Y-61790498D01*
X96093616Y-61769500D01*
X95906384Y-61769500D01*
X95830134Y-61784667D01*
X95722751Y-61806026D01*
X95722741Y-61806029D01*
X95549774Y-61877675D01*
X95549770Y-61877677D01*
X95549769Y-61877678D01*
X95510195Y-61904120D01*
X95394092Y-61981697D01*
X95261697Y-62114092D01*
X95193073Y-62216797D01*
X95166937Y-62255913D01*
X95157675Y-62269774D01*
X95086029Y-62442741D01*
X95086026Y-62442751D01*
X95072448Y-62511014D01*
X95049500Y-62626384D01*
X93000500Y-62626384D01*
X93000500Y-49913753D01*
X94650000Y-49913753D01*
X94650000Y-50126246D01*
X94683241Y-50336123D01*
X94683242Y-50336126D01*
X94748905Y-50538218D01*
X94845375Y-50727550D01*
X94895742Y-50796874D01*
X94905100Y-50825676D01*
X94905100Y-51645536D01*
X94914590Y-51668448D01*
X94928012Y-51700852D01*
X94928013Y-51700854D01*
X95201040Y-51973880D01*
X95215392Y-52008528D01*
X95207134Y-52035751D01*
X95157679Y-52109766D01*
X95086028Y-52282745D01*
X95086026Y-52282751D01*
X95071836Y-52354092D01*
X95049500Y-52466384D01*
X95049500Y-52653616D01*
X95055297Y-52682759D01*
X95086026Y-52837248D01*
X95086029Y-52837258D01*
X95157675Y-53010225D01*
X95157676Y-53010227D01*
X95157678Y-53010231D01*
X95224676Y-53110500D01*
X95251028Y-53149940D01*
X95261698Y-53165908D01*
X95394092Y-53298302D01*
X95549769Y-53402322D01*
X95568863Y-53410231D01*
X95722741Y-53473970D01*
X95722743Y-53473970D01*
X95722749Y-53473973D01*
X95906384Y-53510500D01*
X95906387Y-53510500D01*
X96093613Y-53510500D01*
X96093616Y-53510500D01*
X96277251Y-53473973D01*
X96450231Y-53402322D01*
X96605908Y-53298302D01*
X96738302Y-53165908D01*
X96842322Y-53010231D01*
X96913973Y-52837251D01*
X96950500Y-52653616D01*
X96950500Y-52466384D01*
X96913973Y-52282749D01*
X96842322Y-52109769D01*
X96738302Y-51954092D01*
X96605908Y-51821698D01*
X96450231Y-51717678D01*
X96450227Y-51717676D01*
X96450225Y-51717675D01*
X96277258Y-51646029D01*
X96277248Y-51646026D01*
X96182540Y-51627188D01*
X96093616Y-51609500D01*
X95906384Y-51609500D01*
X95817460Y-51627188D01*
X95722751Y-51646026D01*
X95722745Y-51646028D01*
X95549766Y-51717679D01*
X95475751Y-51767134D01*
X95438968Y-51774450D01*
X95413880Y-51761040D01*
X95220452Y-51567612D01*
X95206100Y-51532964D01*
X95206100Y-51208056D01*
X95220452Y-51173408D01*
X95255100Y-51159056D01*
X95283903Y-51168415D01*
X95292448Y-51174624D01*
X95481781Y-51271094D01*
X95683873Y-51336757D01*
X95683876Y-51336758D01*
X95893754Y-51370000D01*
X96106246Y-51370000D01*
X96316123Y-51336758D01*
X96316126Y-51336757D01*
X96518218Y-51271094D01*
X96707553Y-51174622D01*
X96761717Y-51135271D01*
X96129408Y-50502962D01*
X96192993Y-50485925D01*
X96307007Y-50420099D01*
X96400099Y-50327007D01*
X96465925Y-50212993D01*
X96482962Y-50149408D01*
X97115271Y-50781717D01*
X97154622Y-50727553D01*
X97251094Y-50538218D01*
X97316757Y-50336126D01*
X97316758Y-50336123D01*
X97350000Y-50126246D01*
X97350000Y-49913753D01*
X97316758Y-49703876D01*
X97316757Y-49703873D01*
X97262213Y-49536002D01*
X97262213Y-49536001D01*
X97257717Y-49522165D01*
X130150000Y-49522165D01*
X130150000Y-50170000D01*
X131066988Y-50170000D01*
X131034075Y-50227007D01*
X131000000Y-50354174D01*
X131000000Y-50485826D01*
X131034075Y-50612993D01*
X131066988Y-50670000D01*
X130150000Y-50670000D01*
X130150000Y-51317834D01*
X130156401Y-51377372D01*
X130156401Y-51377373D01*
X130206648Y-51512091D01*
X130292811Y-51627188D01*
X130407908Y-51713351D01*
X130542626Y-51763598D01*
X130602166Y-51770000D01*
X131250000Y-51770000D01*
X131250000Y-50853012D01*
X131307007Y-50885925D01*
X131434174Y-50920000D01*
X131565826Y-50920000D01*
X131692993Y-50885925D01*
X131750000Y-50853012D01*
X131750000Y-51770000D01*
X132397834Y-51770000D01*
X132457372Y-51763598D01*
X132457373Y-51763598D01*
X132592091Y-51713351D01*
X132707188Y-51627188D01*
X132793351Y-51512091D01*
X132843598Y-51377373D01*
X132843598Y-51377372D01*
X132850000Y-51317834D01*
X132850000Y-50670000D01*
X131933012Y-50670000D01*
X131965925Y-50612993D01*
X132000000Y-50485826D01*
X132000000Y-50354174D01*
X131965925Y-50227007D01*
X131933012Y-50170000D01*
X132850000Y-50170000D01*
X132850000Y-49522165D01*
X132843598Y-49462627D01*
X132843598Y-49462626D01*
X132793351Y-49327908D01*
X132707188Y-49212811D01*
X132592091Y-49126648D01*
X132457373Y-49076401D01*
X132397834Y-49070000D01*
X131750000Y-49070000D01*
X131750000Y-49986988D01*
X131692993Y-49954075D01*
X131565826Y-49920000D01*
X131434174Y-49920000D01*
X131307007Y-49954075D01*
X131250000Y-49986988D01*
X131250000Y-49070000D01*
X130602166Y-49070000D01*
X130542627Y-49076401D01*
X130542626Y-49076401D01*
X130407908Y-49126648D01*
X130292811Y-49212811D01*
X130206648Y-49327908D01*
X130156401Y-49462626D01*
X130156401Y-49462627D01*
X130150000Y-49522165D01*
X97257717Y-49522165D01*
X97251095Y-49501783D01*
X97154621Y-49312443D01*
X97154619Y-49312440D01*
X97115271Y-49258281D01*
X96482962Y-49890590D01*
X96465925Y-49827007D01*
X96400099Y-49712993D01*
X96307007Y-49619901D01*
X96192993Y-49554075D01*
X96129407Y-49537036D01*
X96761716Y-48904728D01*
X96761716Y-48904727D01*
X96707560Y-48865380D01*
X96707556Y-48865378D01*
X96518218Y-48768905D01*
X96316126Y-48703242D01*
X96316124Y-48703241D01*
X96300843Y-48700821D01*
X96268867Y-48681225D01*
X96260112Y-48644758D01*
X96273858Y-48617780D01*
X97013369Y-47878269D01*
X123107900Y-47878269D01*
X123107900Y-47983730D01*
X123135192Y-48085585D01*
X123135193Y-48085589D01*
X123187920Y-48176913D01*
X123262487Y-48251480D01*
X123284323Y-48264087D01*
X123353810Y-48304206D01*
X123353812Y-48304206D01*
X123353813Y-48304207D01*
X123423913Y-48322990D01*
X123455669Y-48331499D01*
X123455670Y-48331500D01*
X123455673Y-48331500D01*
X123561130Y-48331500D01*
X123561130Y-48331499D01*
X123579065Y-48326693D01*
X123640220Y-48310308D01*
X123677402Y-48315203D01*
X123687550Y-48322990D01*
X124002149Y-48637588D01*
X124029806Y-48649043D01*
X124057464Y-48660500D01*
X130871144Y-48660500D01*
X130905792Y-48674852D01*
X130913576Y-48684997D01*
X130954520Y-48755913D01*
X131029087Y-48830480D01*
X131062513Y-48849778D01*
X131120410Y-48883206D01*
X131120412Y-48883206D01*
X131120413Y-48883207D01*
X131200728Y-48904727D01*
X131222269Y-48910499D01*
X131222270Y-48910500D01*
X131222273Y-48910500D01*
X131327730Y-48910500D01*
X131327730Y-48910499D01*
X131429587Y-48883207D01*
X131520913Y-48830480D01*
X131595480Y-48755913D01*
X131648207Y-48664587D01*
X131675499Y-48562730D01*
X131675500Y-48562730D01*
X131675500Y-48457270D01*
X131675499Y-48457269D01*
X131649302Y-48359500D01*
X131648207Y-48355413D01*
X131648206Y-48355412D01*
X131648206Y-48355410D01*
X131595479Y-48264086D01*
X131520913Y-48189520D01*
X131429589Y-48136793D01*
X131429585Y-48136792D01*
X131327730Y-48109500D01*
X131327727Y-48109500D01*
X131222273Y-48109500D01*
X131222270Y-48109500D01*
X131120414Y-48136792D01*
X131120410Y-48136793D01*
X131029086Y-48189520D01*
X131029086Y-48189521D01*
X130954521Y-48264086D01*
X130954520Y-48264086D01*
X130933904Y-48299794D01*
X130913577Y-48335000D01*
X130883826Y-48357830D01*
X130871144Y-48359500D01*
X124170035Y-48359500D01*
X124135387Y-48345148D01*
X123900390Y-48110150D01*
X123886038Y-48075502D01*
X123887708Y-48062820D01*
X123908899Y-47983730D01*
X123908900Y-47983730D01*
X123908900Y-47878270D01*
X123908899Y-47878269D01*
X123881607Y-47776414D01*
X123881606Y-47776410D01*
X123828879Y-47685086D01*
X123754313Y-47610520D01*
X123662989Y-47557793D01*
X123662985Y-47557792D01*
X123561130Y-47530500D01*
X123561127Y-47530500D01*
X123455673Y-47530500D01*
X123455670Y-47530500D01*
X123353814Y-47557792D01*
X123353810Y-47557793D01*
X123262486Y-47610520D01*
X123262486Y-47610521D01*
X123187921Y-47685086D01*
X123187920Y-47685086D01*
X123135193Y-47776410D01*
X123135192Y-47776414D01*
X123107900Y-47878269D01*
X97013369Y-47878269D01*
X99026787Y-45864852D01*
X99061435Y-45850500D01*
X105750444Y-45850500D01*
X105785092Y-45864852D01*
X105792876Y-45874997D01*
X105833820Y-45945913D01*
X105908387Y-46020480D01*
X105941813Y-46039778D01*
X105999710Y-46073206D01*
X105999712Y-46073206D01*
X105999713Y-46073207D01*
X106080047Y-46094732D01*
X106101569Y-46100499D01*
X106101570Y-46100500D01*
X106101573Y-46100500D01*
X106207030Y-46100500D01*
X106207030Y-46100499D01*
X106308887Y-46073207D01*
X106400213Y-46020480D01*
X106474780Y-45945913D01*
X106527507Y-45854587D01*
X106554799Y-45752730D01*
X106554800Y-45752730D01*
X106554800Y-45647270D01*
X106554799Y-45647269D01*
X106534742Y-45572414D01*
X106527507Y-45545413D01*
X106527506Y-45545412D01*
X106527506Y-45545410D01*
X106474779Y-45454086D01*
X106400213Y-45379520D01*
X106308889Y-45326793D01*
X106308885Y-45326792D01*
X106207030Y-45299500D01*
X106207027Y-45299500D01*
X106101573Y-45299500D01*
X106101570Y-45299500D01*
X105999714Y-45326792D01*
X105999710Y-45326793D01*
X105908386Y-45379520D01*
X105908386Y-45379521D01*
X105833821Y-45454086D01*
X105833820Y-45454086D01*
X105813204Y-45489794D01*
X105792877Y-45525000D01*
X105763126Y-45547830D01*
X105750444Y-45549500D01*
X98948864Y-45549500D01*
X98921206Y-45560955D01*
X98921206Y-45560956D01*
X98893549Y-45572412D01*
X98893547Y-45572413D01*
X98893545Y-45572414D01*
X95788814Y-48677145D01*
X95761832Y-48690894D01*
X95683875Y-48703241D01*
X95683873Y-48703242D01*
X95481781Y-48768905D01*
X95292447Y-48865376D01*
X95292442Y-48865379D01*
X95238282Y-48904727D01*
X95238282Y-48904728D01*
X95365109Y-49031555D01*
X95379461Y-49066203D01*
X95365109Y-49100851D01*
X95080851Y-49385109D01*
X95046203Y-49399461D01*
X95011555Y-49385109D01*
X94884728Y-49258282D01*
X94884727Y-49258282D01*
X94845379Y-49312442D01*
X94845376Y-49312447D01*
X94748905Y-49501781D01*
X94683242Y-49703873D01*
X94683241Y-49703876D01*
X94650000Y-49913753D01*
X93000500Y-49913753D01*
X93000500Y-44807269D01*
X111074500Y-44807269D01*
X111074500Y-44912730D01*
X111101792Y-45014585D01*
X111101793Y-45014589D01*
X111154520Y-45105913D01*
X111229087Y-45180480D01*
X111262513Y-45199778D01*
X111320410Y-45233206D01*
X111320412Y-45233206D01*
X111320413Y-45233207D01*
X111400747Y-45254732D01*
X111422269Y-45260499D01*
X111422270Y-45260500D01*
X111422273Y-45260500D01*
X111527730Y-45260500D01*
X111527730Y-45260499D01*
X111629587Y-45233207D01*
X111720913Y-45180480D01*
X111795480Y-45105913D01*
X111848207Y-45014587D01*
X111875499Y-44912730D01*
X111875500Y-44912730D01*
X111875500Y-44807270D01*
X111875499Y-44807269D01*
X112474500Y-44807269D01*
X112474500Y-44912730D01*
X112501792Y-45014585D01*
X112501793Y-45014589D01*
X112554520Y-45105913D01*
X112629087Y-45180480D01*
X112662513Y-45199778D01*
X112720410Y-45233206D01*
X112720412Y-45233206D01*
X112720413Y-45233207D01*
X112800747Y-45254732D01*
X112822269Y-45260499D01*
X112822270Y-45260500D01*
X112822273Y-45260500D01*
X112927730Y-45260500D01*
X112927730Y-45260499D01*
X113029587Y-45233207D01*
X113120913Y-45180480D01*
X113195480Y-45105913D01*
X113248207Y-45014587D01*
X113275499Y-44912730D01*
X113275500Y-44912730D01*
X113275500Y-44807270D01*
X113275499Y-44807269D01*
X113248207Y-44705414D01*
X113248206Y-44705410D01*
X113195479Y-44614086D01*
X113120913Y-44539520D01*
X113029589Y-44486793D01*
X113029585Y-44486792D01*
X112927730Y-44459500D01*
X112927727Y-44459500D01*
X112822273Y-44459500D01*
X112822270Y-44459500D01*
X112720414Y-44486792D01*
X112720410Y-44486793D01*
X112629086Y-44539520D01*
X112629086Y-44539521D01*
X112554521Y-44614086D01*
X112554520Y-44614086D01*
X112501793Y-44705410D01*
X112501792Y-44705414D01*
X112474500Y-44807269D01*
X111875499Y-44807269D01*
X111848207Y-44705414D01*
X111848206Y-44705410D01*
X111795479Y-44614086D01*
X111720913Y-44539520D01*
X111629589Y-44486793D01*
X111629585Y-44486792D01*
X111527730Y-44459500D01*
X111527727Y-44459500D01*
X111422273Y-44459500D01*
X111422270Y-44459500D01*
X111320414Y-44486792D01*
X111320410Y-44486793D01*
X111229086Y-44539520D01*
X111229086Y-44539521D01*
X111154521Y-44614086D01*
X111154520Y-44614086D01*
X111101793Y-44705410D01*
X111101792Y-44705414D01*
X111074500Y-44807269D01*
X93000500Y-44807269D01*
X93000500Y-44107269D01*
X110374500Y-44107269D01*
X110374500Y-44212730D01*
X110401792Y-44314585D01*
X110401793Y-44314589D01*
X110454520Y-44405913D01*
X110529087Y-44480480D01*
X110562513Y-44499778D01*
X110620410Y-44533206D01*
X110620412Y-44533206D01*
X110620413Y-44533207D01*
X110700747Y-44554732D01*
X110722269Y-44560499D01*
X110722270Y-44560500D01*
X110722273Y-44560500D01*
X110827730Y-44560500D01*
X110827730Y-44560499D01*
X110929587Y-44533207D01*
X111020913Y-44480480D01*
X111095480Y-44405913D01*
X111148207Y-44314587D01*
X111175499Y-44212730D01*
X111175500Y-44212730D01*
X111175500Y-44107270D01*
X111175499Y-44107269D01*
X111774500Y-44107269D01*
X111774500Y-44212730D01*
X111801792Y-44314585D01*
X111801793Y-44314589D01*
X111854520Y-44405913D01*
X111929087Y-44480480D01*
X111962513Y-44499778D01*
X112020410Y-44533206D01*
X112020412Y-44533206D01*
X112020413Y-44533207D01*
X112100747Y-44554732D01*
X112122269Y-44560499D01*
X112122270Y-44560500D01*
X112122273Y-44560500D01*
X112227730Y-44560500D01*
X112227730Y-44560499D01*
X112329587Y-44533207D01*
X112420913Y-44480480D01*
X112495480Y-44405913D01*
X112548207Y-44314587D01*
X112575499Y-44212730D01*
X112575500Y-44212730D01*
X112575500Y-44107270D01*
X112575499Y-44107269D01*
X113174500Y-44107269D01*
X113174500Y-44212730D01*
X113201792Y-44314585D01*
X113201793Y-44314589D01*
X113254520Y-44405913D01*
X113329087Y-44480480D01*
X113362513Y-44499778D01*
X113420410Y-44533206D01*
X113420412Y-44533206D01*
X113420413Y-44533207D01*
X113500747Y-44554732D01*
X113522269Y-44560499D01*
X113522270Y-44560500D01*
X113522273Y-44560500D01*
X113627730Y-44560500D01*
X113627730Y-44560499D01*
X113729587Y-44533207D01*
X113820913Y-44480480D01*
X113895480Y-44405913D01*
X113948207Y-44314587D01*
X113975499Y-44212730D01*
X113975500Y-44212730D01*
X113975500Y-44107270D01*
X113975499Y-44107269D01*
X113948207Y-44005414D01*
X113948206Y-44005410D01*
X113895479Y-43914086D01*
X113820913Y-43839520D01*
X113729589Y-43786793D01*
X113729585Y-43786792D01*
X113627730Y-43759500D01*
X113627727Y-43759500D01*
X113522273Y-43759500D01*
X113522270Y-43759500D01*
X113420414Y-43786792D01*
X113420410Y-43786793D01*
X113329086Y-43839520D01*
X113329086Y-43839521D01*
X113254521Y-43914086D01*
X113254520Y-43914086D01*
X113201793Y-44005410D01*
X113201792Y-44005414D01*
X113174500Y-44107269D01*
X112575499Y-44107269D01*
X112548207Y-44005414D01*
X112548206Y-44005410D01*
X112495479Y-43914086D01*
X112420913Y-43839520D01*
X112329589Y-43786793D01*
X112329585Y-43786792D01*
X112227730Y-43759500D01*
X112227727Y-43759500D01*
X112122273Y-43759500D01*
X112122270Y-43759500D01*
X112020414Y-43786792D01*
X112020410Y-43786793D01*
X111929086Y-43839520D01*
X111929086Y-43839521D01*
X111854521Y-43914086D01*
X111854520Y-43914086D01*
X111801793Y-44005410D01*
X111801792Y-44005414D01*
X111774500Y-44107269D01*
X111175499Y-44107269D01*
X111148207Y-44005414D01*
X111148206Y-44005410D01*
X111095479Y-43914086D01*
X111020913Y-43839520D01*
X110929589Y-43786793D01*
X110929585Y-43786792D01*
X110827730Y-43759500D01*
X110827727Y-43759500D01*
X110722273Y-43759500D01*
X110722270Y-43759500D01*
X110620414Y-43786792D01*
X110620410Y-43786793D01*
X110529086Y-43839520D01*
X110529086Y-43839521D01*
X110454521Y-43914086D01*
X110454520Y-43914086D01*
X110401793Y-44005410D01*
X110401792Y-44005414D01*
X110374500Y-44107269D01*
X93000500Y-44107269D01*
X93000500Y-43407269D01*
X111074500Y-43407269D01*
X111074500Y-43512730D01*
X111101792Y-43614585D01*
X111101793Y-43614589D01*
X111154520Y-43705913D01*
X111229087Y-43780480D01*
X111262513Y-43799778D01*
X111320410Y-43833206D01*
X111320412Y-43833206D01*
X111320413Y-43833207D01*
X111400747Y-43854732D01*
X111422269Y-43860499D01*
X111422270Y-43860500D01*
X111422273Y-43860500D01*
X111527730Y-43860500D01*
X111527730Y-43860499D01*
X111629587Y-43833207D01*
X111720913Y-43780480D01*
X111795480Y-43705913D01*
X111848207Y-43614587D01*
X111875499Y-43512730D01*
X111875500Y-43512730D01*
X111875500Y-43407270D01*
X111875499Y-43407269D01*
X112474500Y-43407269D01*
X112474500Y-43512730D01*
X112501792Y-43614585D01*
X112501793Y-43614589D01*
X112554520Y-43705913D01*
X112629087Y-43780480D01*
X112662513Y-43799778D01*
X112720410Y-43833206D01*
X112720412Y-43833206D01*
X112720413Y-43833207D01*
X112800747Y-43854732D01*
X112822269Y-43860499D01*
X112822270Y-43860500D01*
X112822273Y-43860500D01*
X112927730Y-43860500D01*
X112927730Y-43860499D01*
X113029587Y-43833207D01*
X113120913Y-43780480D01*
X113195480Y-43705913D01*
X113248207Y-43614587D01*
X113275499Y-43512730D01*
X113275500Y-43512730D01*
X113275500Y-43407270D01*
X113275499Y-43407269D01*
X113248207Y-43305414D01*
X113248206Y-43305410D01*
X113195479Y-43214086D01*
X113120913Y-43139520D01*
X113029589Y-43086793D01*
X113029585Y-43086792D01*
X112927730Y-43059500D01*
X112927727Y-43059500D01*
X112822273Y-43059500D01*
X112822270Y-43059500D01*
X112720414Y-43086792D01*
X112720410Y-43086793D01*
X112629086Y-43139520D01*
X112629086Y-43139521D01*
X112554521Y-43214086D01*
X112554520Y-43214086D01*
X112501793Y-43305410D01*
X112501792Y-43305414D01*
X112474500Y-43407269D01*
X111875499Y-43407269D01*
X111848207Y-43305414D01*
X111848206Y-43305410D01*
X111795479Y-43214086D01*
X111720913Y-43139520D01*
X111629589Y-43086793D01*
X111629585Y-43086792D01*
X111527730Y-43059500D01*
X111527727Y-43059500D01*
X111422273Y-43059500D01*
X111422270Y-43059500D01*
X111320414Y-43086792D01*
X111320410Y-43086793D01*
X111229086Y-43139520D01*
X111229086Y-43139521D01*
X111154521Y-43214086D01*
X111154520Y-43214086D01*
X111101793Y-43305410D01*
X111101792Y-43305414D01*
X111074500Y-43407269D01*
X93000500Y-43407269D01*
X93000500Y-42707269D01*
X110374500Y-42707269D01*
X110374500Y-42812730D01*
X110401792Y-42914585D01*
X110401793Y-42914589D01*
X110454520Y-43005913D01*
X110529087Y-43080480D01*
X110562513Y-43099778D01*
X110620410Y-43133206D01*
X110620412Y-43133206D01*
X110620413Y-43133207D01*
X110700747Y-43154732D01*
X110722269Y-43160499D01*
X110722270Y-43160500D01*
X110722273Y-43160500D01*
X110827730Y-43160500D01*
X110827730Y-43160499D01*
X110929587Y-43133207D01*
X111020913Y-43080480D01*
X111095480Y-43005913D01*
X111148207Y-42914587D01*
X111175499Y-42812730D01*
X111175500Y-42812730D01*
X111175500Y-42707270D01*
X111175499Y-42707269D01*
X111774500Y-42707269D01*
X111774500Y-42812730D01*
X111801792Y-42914585D01*
X111801793Y-42914589D01*
X111854520Y-43005913D01*
X111929087Y-43080480D01*
X111962513Y-43099778D01*
X112020410Y-43133206D01*
X112020412Y-43133206D01*
X112020413Y-43133207D01*
X112100747Y-43154732D01*
X112122269Y-43160499D01*
X112122270Y-43160500D01*
X112122273Y-43160500D01*
X112227730Y-43160500D01*
X112227730Y-43160499D01*
X112329587Y-43133207D01*
X112420913Y-43080480D01*
X112495480Y-43005913D01*
X112548207Y-42914587D01*
X112575499Y-42812730D01*
X112575500Y-42812730D01*
X112575500Y-42707270D01*
X112575499Y-42707269D01*
X113174500Y-42707269D01*
X113174500Y-42812730D01*
X113201792Y-42914585D01*
X113201793Y-42914589D01*
X113254520Y-43005913D01*
X113329087Y-43080480D01*
X113362513Y-43099778D01*
X113420410Y-43133206D01*
X113420412Y-43133206D01*
X113420413Y-43133207D01*
X113500747Y-43154732D01*
X113522269Y-43160499D01*
X113522270Y-43160500D01*
X113522273Y-43160500D01*
X113627730Y-43160500D01*
X113627730Y-43160499D01*
X113729587Y-43133207D01*
X113820913Y-43080480D01*
X113895480Y-43005913D01*
X113948207Y-42914587D01*
X113975499Y-42812730D01*
X113975500Y-42812730D01*
X113975500Y-42707270D01*
X113975499Y-42707269D01*
X113948207Y-42605414D01*
X113948206Y-42605410D01*
X113895479Y-42514086D01*
X113820913Y-42439520D01*
X113729589Y-42386793D01*
X113729585Y-42386792D01*
X113627730Y-42359500D01*
X113627727Y-42359500D01*
X113522273Y-42359500D01*
X113522270Y-42359500D01*
X113420414Y-42386792D01*
X113420410Y-42386793D01*
X113329086Y-42439520D01*
X113329086Y-42439521D01*
X113254521Y-42514086D01*
X113254520Y-42514086D01*
X113201793Y-42605410D01*
X113201792Y-42605414D01*
X113174500Y-42707269D01*
X112575499Y-42707269D01*
X112548207Y-42605414D01*
X112548206Y-42605410D01*
X112495479Y-42514086D01*
X112420913Y-42439520D01*
X112329589Y-42386793D01*
X112329585Y-42386792D01*
X112227730Y-42359500D01*
X112227727Y-42359500D01*
X112122273Y-42359500D01*
X112122270Y-42359500D01*
X112020414Y-42386792D01*
X112020410Y-42386793D01*
X111929086Y-42439520D01*
X111929086Y-42439521D01*
X111854521Y-42514086D01*
X111854520Y-42514086D01*
X111801793Y-42605410D01*
X111801792Y-42605414D01*
X111774500Y-42707269D01*
X111175499Y-42707269D01*
X111148207Y-42605414D01*
X111148206Y-42605410D01*
X111095479Y-42514086D01*
X111020913Y-42439520D01*
X110929589Y-42386793D01*
X110929585Y-42386792D01*
X110827730Y-42359500D01*
X110827727Y-42359500D01*
X110722273Y-42359500D01*
X110722270Y-42359500D01*
X110620414Y-42386792D01*
X110620410Y-42386793D01*
X110529086Y-42439520D01*
X110529086Y-42439521D01*
X110454521Y-42514086D01*
X110454520Y-42514086D01*
X110401793Y-42605410D01*
X110401792Y-42605414D01*
X110374500Y-42707269D01*
X93000500Y-42707269D01*
X93000500Y-42007269D01*
X111074500Y-42007269D01*
X111074500Y-42112730D01*
X111101792Y-42214585D01*
X111101793Y-42214589D01*
X111154520Y-42305913D01*
X111229087Y-42380480D01*
X111262513Y-42399778D01*
X111320410Y-42433206D01*
X111320412Y-42433206D01*
X111320413Y-42433207D01*
X111400747Y-42454732D01*
X111422269Y-42460499D01*
X111422270Y-42460500D01*
X111422273Y-42460500D01*
X111527730Y-42460500D01*
X111527730Y-42460499D01*
X111629587Y-42433207D01*
X111720913Y-42380480D01*
X111795480Y-42305913D01*
X111848207Y-42214587D01*
X111875499Y-42112730D01*
X111875500Y-42112730D01*
X111875500Y-42007270D01*
X111875499Y-42007269D01*
X112474500Y-42007269D01*
X112474500Y-42112730D01*
X112501792Y-42214585D01*
X112501793Y-42214589D01*
X112554520Y-42305913D01*
X112629087Y-42380480D01*
X112662513Y-42399778D01*
X112720410Y-42433206D01*
X112720412Y-42433206D01*
X112720413Y-42433207D01*
X112800747Y-42454732D01*
X112822269Y-42460499D01*
X112822270Y-42460500D01*
X112822273Y-42460500D01*
X112927730Y-42460500D01*
X112927730Y-42460499D01*
X113029587Y-42433207D01*
X113120913Y-42380480D01*
X113195480Y-42305913D01*
X113248207Y-42214587D01*
X113275499Y-42112730D01*
X113275500Y-42112730D01*
X113275500Y-42007270D01*
X113275499Y-42007269D01*
X113248207Y-41905414D01*
X113248206Y-41905410D01*
X113195479Y-41814086D01*
X113120913Y-41739520D01*
X113029589Y-41686793D01*
X113029585Y-41686792D01*
X112927730Y-41659500D01*
X112927727Y-41659500D01*
X112822273Y-41659500D01*
X112822270Y-41659500D01*
X112720414Y-41686792D01*
X112720410Y-41686793D01*
X112629086Y-41739520D01*
X112629086Y-41739521D01*
X112554521Y-41814086D01*
X112554520Y-41814086D01*
X112501793Y-41905410D01*
X112501792Y-41905414D01*
X112474500Y-42007269D01*
X111875499Y-42007269D01*
X111848207Y-41905414D01*
X111848206Y-41905410D01*
X111795479Y-41814086D01*
X111720913Y-41739520D01*
X111629589Y-41686793D01*
X111629585Y-41686792D01*
X111527730Y-41659500D01*
X111527727Y-41659500D01*
X111422273Y-41659500D01*
X111422270Y-41659500D01*
X111320414Y-41686792D01*
X111320410Y-41686793D01*
X111229086Y-41739520D01*
X111229086Y-41739521D01*
X111154521Y-41814086D01*
X111154520Y-41814086D01*
X111101793Y-41905410D01*
X111101792Y-41905414D01*
X111074500Y-42007269D01*
X93000500Y-42007269D01*
X93000500Y-34299000D01*
X93014852Y-34264352D01*
X93049500Y-34250000D01*
X134450500Y-34250000D01*
X134485148Y-34264352D01*
G37*
%TD.AperFunction*%
%TD*%
M02*
