%TF.GenerationSoftware,KiCad,Pcbnew,9.0.3*%
%TF.CreationDate,2025-08-15T22:13:16-04:00*%
%TF.ProjectId,bioimpedance,62696f69-6d70-4656-9461-6e63652e6b69,rev?*%
%TF.SameCoordinates,Original*%
%TF.FileFunction,Legend,Top*%
%TF.FilePolarity,Positive*%
%FSLAX46Y46*%
G04 Gerber Fmt 4.6, Leading zero omitted, Abs format (unit mm)*
G04 Created by KiCad (PCBNEW 9.0.3) date 2025-08-15 22:13:16*
%MOMM*%
%LPD*%
G01*
G04 APERTURE LIST*
%ADD10C,0.150000*%
%ADD11C,0.120000*%
%ADD12C,0.127000*%
%ADD13C,0.200000*%
G04 APERTURE END LIST*
D10*
X123333333Y-66454819D02*
X123000000Y-65978628D01*
X122761905Y-66454819D02*
X122761905Y-65454819D01*
X122761905Y-65454819D02*
X123142857Y-65454819D01*
X123142857Y-65454819D02*
X123238095Y-65502438D01*
X123238095Y-65502438D02*
X123285714Y-65550057D01*
X123285714Y-65550057D02*
X123333333Y-65645295D01*
X123333333Y-65645295D02*
X123333333Y-65788152D01*
X123333333Y-65788152D02*
X123285714Y-65883390D01*
X123285714Y-65883390D02*
X123238095Y-65931009D01*
X123238095Y-65931009D02*
X123142857Y-65978628D01*
X123142857Y-65978628D02*
X122761905Y-65978628D01*
X124190476Y-65788152D02*
X124190476Y-66454819D01*
X123952381Y-65407200D02*
X123714286Y-66121485D01*
X123714286Y-66121485D02*
X124333333Y-66121485D01*
X99166667Y-99647200D02*
X99309524Y-99694819D01*
X99309524Y-99694819D02*
X99547619Y-99694819D01*
X99547619Y-99694819D02*
X99642857Y-99647200D01*
X99642857Y-99647200D02*
X99690476Y-99599580D01*
X99690476Y-99599580D02*
X99738095Y-99504342D01*
X99738095Y-99504342D02*
X99738095Y-99409104D01*
X99738095Y-99409104D02*
X99690476Y-99313866D01*
X99690476Y-99313866D02*
X99642857Y-99266247D01*
X99642857Y-99266247D02*
X99547619Y-99218628D01*
X99547619Y-99218628D02*
X99357143Y-99171009D01*
X99357143Y-99171009D02*
X99261905Y-99123390D01*
X99261905Y-99123390D02*
X99214286Y-99075771D01*
X99214286Y-99075771D02*
X99166667Y-98980533D01*
X99166667Y-98980533D02*
X99166667Y-98885295D01*
X99166667Y-98885295D02*
X99214286Y-98790057D01*
X99214286Y-98790057D02*
X99261905Y-98742438D01*
X99261905Y-98742438D02*
X99357143Y-98694819D01*
X99357143Y-98694819D02*
X99595238Y-98694819D01*
X99595238Y-98694819D02*
X99738095Y-98742438D01*
X100071429Y-98694819D02*
X100309524Y-99694819D01*
X100309524Y-99694819D02*
X100500000Y-98980533D01*
X100500000Y-98980533D02*
X100690476Y-99694819D01*
X100690476Y-99694819D02*
X100928572Y-98694819D01*
X101785714Y-98694819D02*
X101309524Y-98694819D01*
X101309524Y-98694819D02*
X101261905Y-99171009D01*
X101261905Y-99171009D02*
X101309524Y-99123390D01*
X101309524Y-99123390D02*
X101404762Y-99075771D01*
X101404762Y-99075771D02*
X101642857Y-99075771D01*
X101642857Y-99075771D02*
X101738095Y-99123390D01*
X101738095Y-99123390D02*
X101785714Y-99171009D01*
X101785714Y-99171009D02*
X101833333Y-99266247D01*
X101833333Y-99266247D02*
X101833333Y-99504342D01*
X101833333Y-99504342D02*
X101785714Y-99599580D01*
X101785714Y-99599580D02*
X101738095Y-99647200D01*
X101738095Y-99647200D02*
X101642857Y-99694819D01*
X101642857Y-99694819D02*
X101404762Y-99694819D01*
X101404762Y-99694819D02*
X101309524Y-99647200D01*
X101309524Y-99647200D02*
X101261905Y-99599580D01*
X95666666Y-89954819D02*
X95666666Y-90669104D01*
X95666666Y-90669104D02*
X95619047Y-90811961D01*
X95619047Y-90811961D02*
X95523809Y-90907200D01*
X95523809Y-90907200D02*
X95380952Y-90954819D01*
X95380952Y-90954819D02*
X95285714Y-90954819D01*
X96285714Y-90383390D02*
X96190476Y-90335771D01*
X96190476Y-90335771D02*
X96142857Y-90288152D01*
X96142857Y-90288152D02*
X96095238Y-90192914D01*
X96095238Y-90192914D02*
X96095238Y-90145295D01*
X96095238Y-90145295D02*
X96142857Y-90050057D01*
X96142857Y-90050057D02*
X96190476Y-90002438D01*
X96190476Y-90002438D02*
X96285714Y-89954819D01*
X96285714Y-89954819D02*
X96476190Y-89954819D01*
X96476190Y-89954819D02*
X96571428Y-90002438D01*
X96571428Y-90002438D02*
X96619047Y-90050057D01*
X96619047Y-90050057D02*
X96666666Y-90145295D01*
X96666666Y-90145295D02*
X96666666Y-90192914D01*
X96666666Y-90192914D02*
X96619047Y-90288152D01*
X96619047Y-90288152D02*
X96571428Y-90335771D01*
X96571428Y-90335771D02*
X96476190Y-90383390D01*
X96476190Y-90383390D02*
X96285714Y-90383390D01*
X96285714Y-90383390D02*
X96190476Y-90431009D01*
X96190476Y-90431009D02*
X96142857Y-90478628D01*
X96142857Y-90478628D02*
X96095238Y-90573866D01*
X96095238Y-90573866D02*
X96095238Y-90764342D01*
X96095238Y-90764342D02*
X96142857Y-90859580D01*
X96142857Y-90859580D02*
X96190476Y-90907200D01*
X96190476Y-90907200D02*
X96285714Y-90954819D01*
X96285714Y-90954819D02*
X96476190Y-90954819D01*
X96476190Y-90954819D02*
X96571428Y-90907200D01*
X96571428Y-90907200D02*
X96619047Y-90859580D01*
X96619047Y-90859580D02*
X96666666Y-90764342D01*
X96666666Y-90764342D02*
X96666666Y-90573866D01*
X96666666Y-90573866D02*
X96619047Y-90478628D01*
X96619047Y-90478628D02*
X96571428Y-90431009D01*
X96571428Y-90431009D02*
X96476190Y-90383390D01*
X121523809Y-74978628D02*
X121523809Y-75454819D01*
X121190476Y-74454819D02*
X121523809Y-74978628D01*
X121523809Y-74978628D02*
X121857142Y-74454819D01*
X122714285Y-75454819D02*
X122142857Y-75454819D01*
X122428571Y-75454819D02*
X122428571Y-74454819D01*
X122428571Y-74454819D02*
X122333333Y-74597676D01*
X122333333Y-74597676D02*
X122238095Y-74692914D01*
X122238095Y-74692914D02*
X122142857Y-74740533D01*
X111847142Y-67459580D02*
X111799523Y-67507200D01*
X111799523Y-67507200D02*
X111656666Y-67554819D01*
X111656666Y-67554819D02*
X111561428Y-67554819D01*
X111561428Y-67554819D02*
X111418571Y-67507200D01*
X111418571Y-67507200D02*
X111323333Y-67411961D01*
X111323333Y-67411961D02*
X111275714Y-67316723D01*
X111275714Y-67316723D02*
X111228095Y-67126247D01*
X111228095Y-67126247D02*
X111228095Y-66983390D01*
X111228095Y-66983390D02*
X111275714Y-66792914D01*
X111275714Y-66792914D02*
X111323333Y-66697676D01*
X111323333Y-66697676D02*
X111418571Y-66602438D01*
X111418571Y-66602438D02*
X111561428Y-66554819D01*
X111561428Y-66554819D02*
X111656666Y-66554819D01*
X111656666Y-66554819D02*
X111799523Y-66602438D01*
X111799523Y-66602438D02*
X111847142Y-66650057D01*
X112799523Y-67554819D02*
X112228095Y-67554819D01*
X112513809Y-67554819D02*
X112513809Y-66554819D01*
X112513809Y-66554819D02*
X112418571Y-66697676D01*
X112418571Y-66697676D02*
X112323333Y-66792914D01*
X112323333Y-66792914D02*
X112228095Y-66840533D01*
X113370952Y-66983390D02*
X113275714Y-66935771D01*
X113275714Y-66935771D02*
X113228095Y-66888152D01*
X113228095Y-66888152D02*
X113180476Y-66792914D01*
X113180476Y-66792914D02*
X113180476Y-66745295D01*
X113180476Y-66745295D02*
X113228095Y-66650057D01*
X113228095Y-66650057D02*
X113275714Y-66602438D01*
X113275714Y-66602438D02*
X113370952Y-66554819D01*
X113370952Y-66554819D02*
X113561428Y-66554819D01*
X113561428Y-66554819D02*
X113656666Y-66602438D01*
X113656666Y-66602438D02*
X113704285Y-66650057D01*
X113704285Y-66650057D02*
X113751904Y-66745295D01*
X113751904Y-66745295D02*
X113751904Y-66792914D01*
X113751904Y-66792914D02*
X113704285Y-66888152D01*
X113704285Y-66888152D02*
X113656666Y-66935771D01*
X113656666Y-66935771D02*
X113561428Y-66983390D01*
X113561428Y-66983390D02*
X113370952Y-66983390D01*
X113370952Y-66983390D02*
X113275714Y-67031009D01*
X113275714Y-67031009D02*
X113228095Y-67078628D01*
X113228095Y-67078628D02*
X113180476Y-67173866D01*
X113180476Y-67173866D02*
X113180476Y-67364342D01*
X113180476Y-67364342D02*
X113228095Y-67459580D01*
X113228095Y-67459580D02*
X113275714Y-67507200D01*
X113275714Y-67507200D02*
X113370952Y-67554819D01*
X113370952Y-67554819D02*
X113561428Y-67554819D01*
X113561428Y-67554819D02*
X113656666Y-67507200D01*
X113656666Y-67507200D02*
X113704285Y-67459580D01*
X113704285Y-67459580D02*
X113751904Y-67364342D01*
X113751904Y-67364342D02*
X113751904Y-67173866D01*
X113751904Y-67173866D02*
X113704285Y-67078628D01*
X113704285Y-67078628D02*
X113656666Y-67031009D01*
X113656666Y-67031009D02*
X113561428Y-66983390D01*
X116238095Y-67454819D02*
X116238095Y-68264342D01*
X116238095Y-68264342D02*
X116285714Y-68359580D01*
X116285714Y-68359580D02*
X116333333Y-68407200D01*
X116333333Y-68407200D02*
X116428571Y-68454819D01*
X116428571Y-68454819D02*
X116619047Y-68454819D01*
X116619047Y-68454819D02*
X116714285Y-68407200D01*
X116714285Y-68407200D02*
X116761904Y-68359580D01*
X116761904Y-68359580D02*
X116809523Y-68264342D01*
X116809523Y-68264342D02*
X116809523Y-67454819D01*
X117238095Y-67550057D02*
X117285714Y-67502438D01*
X117285714Y-67502438D02*
X117380952Y-67454819D01*
X117380952Y-67454819D02*
X117619047Y-67454819D01*
X117619047Y-67454819D02*
X117714285Y-67502438D01*
X117714285Y-67502438D02*
X117761904Y-67550057D01*
X117761904Y-67550057D02*
X117809523Y-67645295D01*
X117809523Y-67645295D02*
X117809523Y-67740533D01*
X117809523Y-67740533D02*
X117761904Y-67883390D01*
X117761904Y-67883390D02*
X117190476Y-68454819D01*
X117190476Y-68454819D02*
X117809523Y-68454819D01*
X114357142Y-77809580D02*
X114309523Y-77857200D01*
X114309523Y-77857200D02*
X114166666Y-77904819D01*
X114166666Y-77904819D02*
X114071428Y-77904819D01*
X114071428Y-77904819D02*
X113928571Y-77857200D01*
X113928571Y-77857200D02*
X113833333Y-77761961D01*
X113833333Y-77761961D02*
X113785714Y-77666723D01*
X113785714Y-77666723D02*
X113738095Y-77476247D01*
X113738095Y-77476247D02*
X113738095Y-77333390D01*
X113738095Y-77333390D02*
X113785714Y-77142914D01*
X113785714Y-77142914D02*
X113833333Y-77047676D01*
X113833333Y-77047676D02*
X113928571Y-76952438D01*
X113928571Y-76952438D02*
X114071428Y-76904819D01*
X114071428Y-76904819D02*
X114166666Y-76904819D01*
X114166666Y-76904819D02*
X114309523Y-76952438D01*
X114309523Y-76952438D02*
X114357142Y-77000057D01*
X114738095Y-77000057D02*
X114785714Y-76952438D01*
X114785714Y-76952438D02*
X114880952Y-76904819D01*
X114880952Y-76904819D02*
X115119047Y-76904819D01*
X115119047Y-76904819D02*
X115214285Y-76952438D01*
X115214285Y-76952438D02*
X115261904Y-77000057D01*
X115261904Y-77000057D02*
X115309523Y-77095295D01*
X115309523Y-77095295D02*
X115309523Y-77190533D01*
X115309523Y-77190533D02*
X115261904Y-77333390D01*
X115261904Y-77333390D02*
X114690476Y-77904819D01*
X114690476Y-77904819D02*
X115309523Y-77904819D01*
X115690476Y-77000057D02*
X115738095Y-76952438D01*
X115738095Y-76952438D02*
X115833333Y-76904819D01*
X115833333Y-76904819D02*
X116071428Y-76904819D01*
X116071428Y-76904819D02*
X116166666Y-76952438D01*
X116166666Y-76952438D02*
X116214285Y-77000057D01*
X116214285Y-77000057D02*
X116261904Y-77095295D01*
X116261904Y-77095295D02*
X116261904Y-77190533D01*
X116261904Y-77190533D02*
X116214285Y-77333390D01*
X116214285Y-77333390D02*
X115642857Y-77904819D01*
X115642857Y-77904819D02*
X116261904Y-77904819D01*
X102629819Y-53161904D02*
X103439342Y-53161904D01*
X103439342Y-53161904D02*
X103534580Y-53114285D01*
X103534580Y-53114285D02*
X103582200Y-53066666D01*
X103582200Y-53066666D02*
X103629819Y-52971428D01*
X103629819Y-52971428D02*
X103629819Y-52780952D01*
X103629819Y-52780952D02*
X103582200Y-52685714D01*
X103582200Y-52685714D02*
X103534580Y-52638095D01*
X103534580Y-52638095D02*
X103439342Y-52590476D01*
X103439342Y-52590476D02*
X102629819Y-52590476D01*
X103629819Y-51590476D02*
X103629819Y-52161904D01*
X103629819Y-51876190D02*
X102629819Y-51876190D01*
X102629819Y-51876190D02*
X102772676Y-51971428D01*
X102772676Y-51971428D02*
X102867914Y-52066666D01*
X102867914Y-52066666D02*
X102915533Y-52161904D01*
X96857142Y-37859580D02*
X96809523Y-37907200D01*
X96809523Y-37907200D02*
X96666666Y-37954819D01*
X96666666Y-37954819D02*
X96571428Y-37954819D01*
X96571428Y-37954819D02*
X96428571Y-37907200D01*
X96428571Y-37907200D02*
X96333333Y-37811961D01*
X96333333Y-37811961D02*
X96285714Y-37716723D01*
X96285714Y-37716723D02*
X96238095Y-37526247D01*
X96238095Y-37526247D02*
X96238095Y-37383390D01*
X96238095Y-37383390D02*
X96285714Y-37192914D01*
X96285714Y-37192914D02*
X96333333Y-37097676D01*
X96333333Y-37097676D02*
X96428571Y-37002438D01*
X96428571Y-37002438D02*
X96571428Y-36954819D01*
X96571428Y-36954819D02*
X96666666Y-36954819D01*
X96666666Y-36954819D02*
X96809523Y-37002438D01*
X96809523Y-37002438D02*
X96857142Y-37050057D01*
X97238095Y-37050057D02*
X97285714Y-37002438D01*
X97285714Y-37002438D02*
X97380952Y-36954819D01*
X97380952Y-36954819D02*
X97619047Y-36954819D01*
X97619047Y-36954819D02*
X97714285Y-37002438D01*
X97714285Y-37002438D02*
X97761904Y-37050057D01*
X97761904Y-37050057D02*
X97809523Y-37145295D01*
X97809523Y-37145295D02*
X97809523Y-37240533D01*
X97809523Y-37240533D02*
X97761904Y-37383390D01*
X97761904Y-37383390D02*
X97190476Y-37954819D01*
X97190476Y-37954819D02*
X97809523Y-37954819D01*
X98666666Y-37288152D02*
X98666666Y-37954819D01*
X98428571Y-36907200D02*
X98190476Y-37621485D01*
X98190476Y-37621485D02*
X98809523Y-37621485D01*
X110128295Y-86229819D02*
X110128295Y-87039342D01*
X110128295Y-87039342D02*
X110175914Y-87134580D01*
X110175914Y-87134580D02*
X110223533Y-87182200D01*
X110223533Y-87182200D02*
X110318771Y-87229819D01*
X110318771Y-87229819D02*
X110509247Y-87229819D01*
X110509247Y-87229819D02*
X110604485Y-87182200D01*
X110604485Y-87182200D02*
X110652104Y-87134580D01*
X110652104Y-87134580D02*
X110699723Y-87039342D01*
X110699723Y-87039342D02*
X110699723Y-86229819D01*
X111080676Y-86229819D02*
X111699723Y-86229819D01*
X111699723Y-86229819D02*
X111366390Y-86610771D01*
X111366390Y-86610771D02*
X111509247Y-86610771D01*
X111509247Y-86610771D02*
X111604485Y-86658390D01*
X111604485Y-86658390D02*
X111652104Y-86706009D01*
X111652104Y-86706009D02*
X111699723Y-86801247D01*
X111699723Y-86801247D02*
X111699723Y-87039342D01*
X111699723Y-87039342D02*
X111652104Y-87134580D01*
X111652104Y-87134580D02*
X111604485Y-87182200D01*
X111604485Y-87182200D02*
X111509247Y-87229819D01*
X111509247Y-87229819D02*
X111223533Y-87229819D01*
X111223533Y-87229819D02*
X111128295Y-87182200D01*
X111128295Y-87182200D02*
X111080676Y-87134580D01*
X117333333Y-72859580D02*
X117285714Y-72907200D01*
X117285714Y-72907200D02*
X117142857Y-72954819D01*
X117142857Y-72954819D02*
X117047619Y-72954819D01*
X117047619Y-72954819D02*
X116904762Y-72907200D01*
X116904762Y-72907200D02*
X116809524Y-72811961D01*
X116809524Y-72811961D02*
X116761905Y-72716723D01*
X116761905Y-72716723D02*
X116714286Y-72526247D01*
X116714286Y-72526247D02*
X116714286Y-72383390D01*
X116714286Y-72383390D02*
X116761905Y-72192914D01*
X116761905Y-72192914D02*
X116809524Y-72097676D01*
X116809524Y-72097676D02*
X116904762Y-72002438D01*
X116904762Y-72002438D02*
X117047619Y-71954819D01*
X117047619Y-71954819D02*
X117142857Y-71954819D01*
X117142857Y-71954819D02*
X117285714Y-72002438D01*
X117285714Y-72002438D02*
X117333333Y-72050057D01*
X118285714Y-72954819D02*
X117714286Y-72954819D01*
X118000000Y-72954819D02*
X118000000Y-71954819D01*
X118000000Y-71954819D02*
X117904762Y-72097676D01*
X117904762Y-72097676D02*
X117809524Y-72192914D01*
X117809524Y-72192914D02*
X117714286Y-72240533D01*
X102857142Y-71859580D02*
X102809523Y-71907200D01*
X102809523Y-71907200D02*
X102666666Y-71954819D01*
X102666666Y-71954819D02*
X102571428Y-71954819D01*
X102571428Y-71954819D02*
X102428571Y-71907200D01*
X102428571Y-71907200D02*
X102333333Y-71811961D01*
X102333333Y-71811961D02*
X102285714Y-71716723D01*
X102285714Y-71716723D02*
X102238095Y-71526247D01*
X102238095Y-71526247D02*
X102238095Y-71383390D01*
X102238095Y-71383390D02*
X102285714Y-71192914D01*
X102285714Y-71192914D02*
X102333333Y-71097676D01*
X102333333Y-71097676D02*
X102428571Y-71002438D01*
X102428571Y-71002438D02*
X102571428Y-70954819D01*
X102571428Y-70954819D02*
X102666666Y-70954819D01*
X102666666Y-70954819D02*
X102809523Y-71002438D01*
X102809523Y-71002438D02*
X102857142Y-71050057D01*
X103809523Y-71954819D02*
X103238095Y-71954819D01*
X103523809Y-71954819D02*
X103523809Y-70954819D01*
X103523809Y-70954819D02*
X103428571Y-71097676D01*
X103428571Y-71097676D02*
X103333333Y-71192914D01*
X103333333Y-71192914D02*
X103238095Y-71240533D01*
X104761904Y-71954819D02*
X104190476Y-71954819D01*
X104476190Y-71954819D02*
X104476190Y-70954819D01*
X104476190Y-70954819D02*
X104380952Y-71097676D01*
X104380952Y-71097676D02*
X104285714Y-71192914D01*
X104285714Y-71192914D02*
X104190476Y-71240533D01*
X109857142Y-62409580D02*
X109809523Y-62457200D01*
X109809523Y-62457200D02*
X109666666Y-62504819D01*
X109666666Y-62504819D02*
X109571428Y-62504819D01*
X109571428Y-62504819D02*
X109428571Y-62457200D01*
X109428571Y-62457200D02*
X109333333Y-62361961D01*
X109333333Y-62361961D02*
X109285714Y-62266723D01*
X109285714Y-62266723D02*
X109238095Y-62076247D01*
X109238095Y-62076247D02*
X109238095Y-61933390D01*
X109238095Y-61933390D02*
X109285714Y-61742914D01*
X109285714Y-61742914D02*
X109333333Y-61647676D01*
X109333333Y-61647676D02*
X109428571Y-61552438D01*
X109428571Y-61552438D02*
X109571428Y-61504819D01*
X109571428Y-61504819D02*
X109666666Y-61504819D01*
X109666666Y-61504819D02*
X109809523Y-61552438D01*
X109809523Y-61552438D02*
X109857142Y-61600057D01*
X110809523Y-62504819D02*
X110238095Y-62504819D01*
X110523809Y-62504819D02*
X110523809Y-61504819D01*
X110523809Y-61504819D02*
X110428571Y-61647676D01*
X110428571Y-61647676D02*
X110333333Y-61742914D01*
X110333333Y-61742914D02*
X110238095Y-61790533D01*
X111666666Y-61838152D02*
X111666666Y-62504819D01*
X111428571Y-61457200D02*
X111190476Y-62171485D01*
X111190476Y-62171485D02*
X111809523Y-62171485D01*
X131166666Y-47494819D02*
X131166666Y-48209104D01*
X131166666Y-48209104D02*
X131119047Y-48351961D01*
X131119047Y-48351961D02*
X131023809Y-48447200D01*
X131023809Y-48447200D02*
X130880952Y-48494819D01*
X130880952Y-48494819D02*
X130785714Y-48494819D01*
X132071428Y-47494819D02*
X131880952Y-47494819D01*
X131880952Y-47494819D02*
X131785714Y-47542438D01*
X131785714Y-47542438D02*
X131738095Y-47590057D01*
X131738095Y-47590057D02*
X131642857Y-47732914D01*
X131642857Y-47732914D02*
X131595238Y-47923390D01*
X131595238Y-47923390D02*
X131595238Y-48304342D01*
X131595238Y-48304342D02*
X131642857Y-48399580D01*
X131642857Y-48399580D02*
X131690476Y-48447200D01*
X131690476Y-48447200D02*
X131785714Y-48494819D01*
X131785714Y-48494819D02*
X131976190Y-48494819D01*
X131976190Y-48494819D02*
X132071428Y-48447200D01*
X132071428Y-48447200D02*
X132119047Y-48399580D01*
X132119047Y-48399580D02*
X132166666Y-48304342D01*
X132166666Y-48304342D02*
X132166666Y-48066247D01*
X132166666Y-48066247D02*
X132119047Y-47971009D01*
X132119047Y-47971009D02*
X132071428Y-47923390D01*
X132071428Y-47923390D02*
X131976190Y-47875771D01*
X131976190Y-47875771D02*
X131785714Y-47875771D01*
X131785714Y-47875771D02*
X131690476Y-47923390D01*
X131690476Y-47923390D02*
X131642857Y-47971009D01*
X131642857Y-47971009D02*
X131595238Y-48066247D01*
X125666667Y-99647200D02*
X125809524Y-99694819D01*
X125809524Y-99694819D02*
X126047619Y-99694819D01*
X126047619Y-99694819D02*
X126142857Y-99647200D01*
X126142857Y-99647200D02*
X126190476Y-99599580D01*
X126190476Y-99599580D02*
X126238095Y-99504342D01*
X126238095Y-99504342D02*
X126238095Y-99409104D01*
X126238095Y-99409104D02*
X126190476Y-99313866D01*
X126190476Y-99313866D02*
X126142857Y-99266247D01*
X126142857Y-99266247D02*
X126047619Y-99218628D01*
X126047619Y-99218628D02*
X125857143Y-99171009D01*
X125857143Y-99171009D02*
X125761905Y-99123390D01*
X125761905Y-99123390D02*
X125714286Y-99075771D01*
X125714286Y-99075771D02*
X125666667Y-98980533D01*
X125666667Y-98980533D02*
X125666667Y-98885295D01*
X125666667Y-98885295D02*
X125714286Y-98790057D01*
X125714286Y-98790057D02*
X125761905Y-98742438D01*
X125761905Y-98742438D02*
X125857143Y-98694819D01*
X125857143Y-98694819D02*
X126095238Y-98694819D01*
X126095238Y-98694819D02*
X126238095Y-98742438D01*
X126571429Y-98694819D02*
X126809524Y-99694819D01*
X126809524Y-99694819D02*
X127000000Y-98980533D01*
X127000000Y-98980533D02*
X127190476Y-99694819D01*
X127190476Y-99694819D02*
X127428572Y-98694819D01*
X128238095Y-98694819D02*
X128047619Y-98694819D01*
X128047619Y-98694819D02*
X127952381Y-98742438D01*
X127952381Y-98742438D02*
X127904762Y-98790057D01*
X127904762Y-98790057D02*
X127809524Y-98932914D01*
X127809524Y-98932914D02*
X127761905Y-99123390D01*
X127761905Y-99123390D02*
X127761905Y-99504342D01*
X127761905Y-99504342D02*
X127809524Y-99599580D01*
X127809524Y-99599580D02*
X127857143Y-99647200D01*
X127857143Y-99647200D02*
X127952381Y-99694819D01*
X127952381Y-99694819D02*
X128142857Y-99694819D01*
X128142857Y-99694819D02*
X128238095Y-99647200D01*
X128238095Y-99647200D02*
X128285714Y-99599580D01*
X128285714Y-99599580D02*
X128333333Y-99504342D01*
X128333333Y-99504342D02*
X128333333Y-99266247D01*
X128333333Y-99266247D02*
X128285714Y-99171009D01*
X128285714Y-99171009D02*
X128238095Y-99123390D01*
X128238095Y-99123390D02*
X128142857Y-99075771D01*
X128142857Y-99075771D02*
X127952381Y-99075771D01*
X127952381Y-99075771D02*
X127857143Y-99123390D01*
X127857143Y-99123390D02*
X127809524Y-99171009D01*
X127809524Y-99171009D02*
X127761905Y-99266247D01*
X102857142Y-67859580D02*
X102809523Y-67907200D01*
X102809523Y-67907200D02*
X102666666Y-67954819D01*
X102666666Y-67954819D02*
X102571428Y-67954819D01*
X102571428Y-67954819D02*
X102428571Y-67907200D01*
X102428571Y-67907200D02*
X102333333Y-67811961D01*
X102333333Y-67811961D02*
X102285714Y-67716723D01*
X102285714Y-67716723D02*
X102238095Y-67526247D01*
X102238095Y-67526247D02*
X102238095Y-67383390D01*
X102238095Y-67383390D02*
X102285714Y-67192914D01*
X102285714Y-67192914D02*
X102333333Y-67097676D01*
X102333333Y-67097676D02*
X102428571Y-67002438D01*
X102428571Y-67002438D02*
X102571428Y-66954819D01*
X102571428Y-66954819D02*
X102666666Y-66954819D01*
X102666666Y-66954819D02*
X102809523Y-67002438D01*
X102809523Y-67002438D02*
X102857142Y-67050057D01*
X103809523Y-67954819D02*
X103238095Y-67954819D01*
X103523809Y-67954819D02*
X103523809Y-66954819D01*
X103523809Y-66954819D02*
X103428571Y-67097676D01*
X103428571Y-67097676D02*
X103333333Y-67192914D01*
X103333333Y-67192914D02*
X103238095Y-67240533D01*
X104190476Y-67050057D02*
X104238095Y-67002438D01*
X104238095Y-67002438D02*
X104333333Y-66954819D01*
X104333333Y-66954819D02*
X104571428Y-66954819D01*
X104571428Y-66954819D02*
X104666666Y-67002438D01*
X104666666Y-67002438D02*
X104714285Y-67050057D01*
X104714285Y-67050057D02*
X104761904Y-67145295D01*
X104761904Y-67145295D02*
X104761904Y-67240533D01*
X104761904Y-67240533D02*
X104714285Y-67383390D01*
X104714285Y-67383390D02*
X104142857Y-67954819D01*
X104142857Y-67954819D02*
X104761904Y-67954819D01*
X106357142Y-98454819D02*
X106023809Y-97978628D01*
X105785714Y-98454819D02*
X105785714Y-97454819D01*
X105785714Y-97454819D02*
X106166666Y-97454819D01*
X106166666Y-97454819D02*
X106261904Y-97502438D01*
X106261904Y-97502438D02*
X106309523Y-97550057D01*
X106309523Y-97550057D02*
X106357142Y-97645295D01*
X106357142Y-97645295D02*
X106357142Y-97788152D01*
X106357142Y-97788152D02*
X106309523Y-97883390D01*
X106309523Y-97883390D02*
X106261904Y-97931009D01*
X106261904Y-97931009D02*
X106166666Y-97978628D01*
X106166666Y-97978628D02*
X105785714Y-97978628D01*
X107309523Y-98454819D02*
X106738095Y-98454819D01*
X107023809Y-98454819D02*
X107023809Y-97454819D01*
X107023809Y-97454819D02*
X106928571Y-97597676D01*
X106928571Y-97597676D02*
X106833333Y-97692914D01*
X106833333Y-97692914D02*
X106738095Y-97740533D01*
X108166666Y-97454819D02*
X107976190Y-97454819D01*
X107976190Y-97454819D02*
X107880952Y-97502438D01*
X107880952Y-97502438D02*
X107833333Y-97550057D01*
X107833333Y-97550057D02*
X107738095Y-97692914D01*
X107738095Y-97692914D02*
X107690476Y-97883390D01*
X107690476Y-97883390D02*
X107690476Y-98264342D01*
X107690476Y-98264342D02*
X107738095Y-98359580D01*
X107738095Y-98359580D02*
X107785714Y-98407200D01*
X107785714Y-98407200D02*
X107880952Y-98454819D01*
X107880952Y-98454819D02*
X108071428Y-98454819D01*
X108071428Y-98454819D02*
X108166666Y-98407200D01*
X108166666Y-98407200D02*
X108214285Y-98359580D01*
X108214285Y-98359580D02*
X108261904Y-98264342D01*
X108261904Y-98264342D02*
X108261904Y-98026247D01*
X108261904Y-98026247D02*
X108214285Y-97931009D01*
X108214285Y-97931009D02*
X108166666Y-97883390D01*
X108166666Y-97883390D02*
X108071428Y-97835771D01*
X108071428Y-97835771D02*
X107880952Y-97835771D01*
X107880952Y-97835771D02*
X107785714Y-97883390D01*
X107785714Y-97883390D02*
X107738095Y-97931009D01*
X107738095Y-97931009D02*
X107690476Y-98026247D01*
X97833333Y-41859580D02*
X97785714Y-41907200D01*
X97785714Y-41907200D02*
X97642857Y-41954819D01*
X97642857Y-41954819D02*
X97547619Y-41954819D01*
X97547619Y-41954819D02*
X97404762Y-41907200D01*
X97404762Y-41907200D02*
X97309524Y-41811961D01*
X97309524Y-41811961D02*
X97261905Y-41716723D01*
X97261905Y-41716723D02*
X97214286Y-41526247D01*
X97214286Y-41526247D02*
X97214286Y-41383390D01*
X97214286Y-41383390D02*
X97261905Y-41192914D01*
X97261905Y-41192914D02*
X97309524Y-41097676D01*
X97309524Y-41097676D02*
X97404762Y-41002438D01*
X97404762Y-41002438D02*
X97547619Y-40954819D01*
X97547619Y-40954819D02*
X97642857Y-40954819D01*
X97642857Y-40954819D02*
X97785714Y-41002438D01*
X97785714Y-41002438D02*
X97833333Y-41050057D01*
X98404762Y-41383390D02*
X98309524Y-41335771D01*
X98309524Y-41335771D02*
X98261905Y-41288152D01*
X98261905Y-41288152D02*
X98214286Y-41192914D01*
X98214286Y-41192914D02*
X98214286Y-41145295D01*
X98214286Y-41145295D02*
X98261905Y-41050057D01*
X98261905Y-41050057D02*
X98309524Y-41002438D01*
X98309524Y-41002438D02*
X98404762Y-40954819D01*
X98404762Y-40954819D02*
X98595238Y-40954819D01*
X98595238Y-40954819D02*
X98690476Y-41002438D01*
X98690476Y-41002438D02*
X98738095Y-41050057D01*
X98738095Y-41050057D02*
X98785714Y-41145295D01*
X98785714Y-41145295D02*
X98785714Y-41192914D01*
X98785714Y-41192914D02*
X98738095Y-41288152D01*
X98738095Y-41288152D02*
X98690476Y-41335771D01*
X98690476Y-41335771D02*
X98595238Y-41383390D01*
X98595238Y-41383390D02*
X98404762Y-41383390D01*
X98404762Y-41383390D02*
X98309524Y-41431009D01*
X98309524Y-41431009D02*
X98261905Y-41478628D01*
X98261905Y-41478628D02*
X98214286Y-41573866D01*
X98214286Y-41573866D02*
X98214286Y-41764342D01*
X98214286Y-41764342D02*
X98261905Y-41859580D01*
X98261905Y-41859580D02*
X98309524Y-41907200D01*
X98309524Y-41907200D02*
X98404762Y-41954819D01*
X98404762Y-41954819D02*
X98595238Y-41954819D01*
X98595238Y-41954819D02*
X98690476Y-41907200D01*
X98690476Y-41907200D02*
X98738095Y-41859580D01*
X98738095Y-41859580D02*
X98785714Y-41764342D01*
X98785714Y-41764342D02*
X98785714Y-41573866D01*
X98785714Y-41573866D02*
X98738095Y-41478628D01*
X98738095Y-41478628D02*
X98690476Y-41431009D01*
X98690476Y-41431009D02*
X98595238Y-41383390D01*
X99833333Y-66454819D02*
X99500000Y-65978628D01*
X99261905Y-66454819D02*
X99261905Y-65454819D01*
X99261905Y-65454819D02*
X99642857Y-65454819D01*
X99642857Y-65454819D02*
X99738095Y-65502438D01*
X99738095Y-65502438D02*
X99785714Y-65550057D01*
X99785714Y-65550057D02*
X99833333Y-65645295D01*
X99833333Y-65645295D02*
X99833333Y-65788152D01*
X99833333Y-65788152D02*
X99785714Y-65883390D01*
X99785714Y-65883390D02*
X99738095Y-65931009D01*
X99738095Y-65931009D02*
X99642857Y-65978628D01*
X99642857Y-65978628D02*
X99261905Y-65978628D01*
X100214286Y-65550057D02*
X100261905Y-65502438D01*
X100261905Y-65502438D02*
X100357143Y-65454819D01*
X100357143Y-65454819D02*
X100595238Y-65454819D01*
X100595238Y-65454819D02*
X100690476Y-65502438D01*
X100690476Y-65502438D02*
X100738095Y-65550057D01*
X100738095Y-65550057D02*
X100785714Y-65645295D01*
X100785714Y-65645295D02*
X100785714Y-65740533D01*
X100785714Y-65740533D02*
X100738095Y-65883390D01*
X100738095Y-65883390D02*
X100166667Y-66454819D01*
X100166667Y-66454819D02*
X100785714Y-66454819D01*
X123333333Y-62454819D02*
X123000000Y-61978628D01*
X122761905Y-62454819D02*
X122761905Y-61454819D01*
X122761905Y-61454819D02*
X123142857Y-61454819D01*
X123142857Y-61454819D02*
X123238095Y-61502438D01*
X123238095Y-61502438D02*
X123285714Y-61550057D01*
X123285714Y-61550057D02*
X123333333Y-61645295D01*
X123333333Y-61645295D02*
X123333333Y-61788152D01*
X123333333Y-61788152D02*
X123285714Y-61883390D01*
X123285714Y-61883390D02*
X123238095Y-61931009D01*
X123238095Y-61931009D02*
X123142857Y-61978628D01*
X123142857Y-61978628D02*
X122761905Y-61978628D01*
X124238095Y-61454819D02*
X123761905Y-61454819D01*
X123761905Y-61454819D02*
X123714286Y-61931009D01*
X123714286Y-61931009D02*
X123761905Y-61883390D01*
X123761905Y-61883390D02*
X123857143Y-61835771D01*
X123857143Y-61835771D02*
X124095238Y-61835771D01*
X124095238Y-61835771D02*
X124190476Y-61883390D01*
X124190476Y-61883390D02*
X124238095Y-61931009D01*
X124238095Y-61931009D02*
X124285714Y-62026247D01*
X124285714Y-62026247D02*
X124285714Y-62264342D01*
X124285714Y-62264342D02*
X124238095Y-62359580D01*
X124238095Y-62359580D02*
X124190476Y-62407200D01*
X124190476Y-62407200D02*
X124095238Y-62454819D01*
X124095238Y-62454819D02*
X123857143Y-62454819D01*
X123857143Y-62454819D02*
X123761905Y-62407200D01*
X123761905Y-62407200D02*
X123714286Y-62359580D01*
X123333333Y-70359580D02*
X123285714Y-70407200D01*
X123285714Y-70407200D02*
X123142857Y-70454819D01*
X123142857Y-70454819D02*
X123047619Y-70454819D01*
X123047619Y-70454819D02*
X122904762Y-70407200D01*
X122904762Y-70407200D02*
X122809524Y-70311961D01*
X122809524Y-70311961D02*
X122761905Y-70216723D01*
X122761905Y-70216723D02*
X122714286Y-70026247D01*
X122714286Y-70026247D02*
X122714286Y-69883390D01*
X122714286Y-69883390D02*
X122761905Y-69692914D01*
X122761905Y-69692914D02*
X122809524Y-69597676D01*
X122809524Y-69597676D02*
X122904762Y-69502438D01*
X122904762Y-69502438D02*
X123047619Y-69454819D01*
X123047619Y-69454819D02*
X123142857Y-69454819D01*
X123142857Y-69454819D02*
X123285714Y-69502438D01*
X123285714Y-69502438D02*
X123333333Y-69550057D01*
X123809524Y-70454819D02*
X124000000Y-70454819D01*
X124000000Y-70454819D02*
X124095238Y-70407200D01*
X124095238Y-70407200D02*
X124142857Y-70359580D01*
X124142857Y-70359580D02*
X124238095Y-70216723D01*
X124238095Y-70216723D02*
X124285714Y-70026247D01*
X124285714Y-70026247D02*
X124285714Y-69645295D01*
X124285714Y-69645295D02*
X124238095Y-69550057D01*
X124238095Y-69550057D02*
X124190476Y-69502438D01*
X124190476Y-69502438D02*
X124095238Y-69454819D01*
X124095238Y-69454819D02*
X123904762Y-69454819D01*
X123904762Y-69454819D02*
X123809524Y-69502438D01*
X123809524Y-69502438D02*
X123761905Y-69550057D01*
X123761905Y-69550057D02*
X123714286Y-69645295D01*
X123714286Y-69645295D02*
X123714286Y-69883390D01*
X123714286Y-69883390D02*
X123761905Y-69978628D01*
X123761905Y-69978628D02*
X123809524Y-70026247D01*
X123809524Y-70026247D02*
X123904762Y-70073866D01*
X123904762Y-70073866D02*
X124095238Y-70073866D01*
X124095238Y-70073866D02*
X124190476Y-70026247D01*
X124190476Y-70026247D02*
X124238095Y-69978628D01*
X124238095Y-69978628D02*
X124285714Y-69883390D01*
X102857142Y-69859580D02*
X102809523Y-69907200D01*
X102809523Y-69907200D02*
X102666666Y-69954819D01*
X102666666Y-69954819D02*
X102571428Y-69954819D01*
X102571428Y-69954819D02*
X102428571Y-69907200D01*
X102428571Y-69907200D02*
X102333333Y-69811961D01*
X102333333Y-69811961D02*
X102285714Y-69716723D01*
X102285714Y-69716723D02*
X102238095Y-69526247D01*
X102238095Y-69526247D02*
X102238095Y-69383390D01*
X102238095Y-69383390D02*
X102285714Y-69192914D01*
X102285714Y-69192914D02*
X102333333Y-69097676D01*
X102333333Y-69097676D02*
X102428571Y-69002438D01*
X102428571Y-69002438D02*
X102571428Y-68954819D01*
X102571428Y-68954819D02*
X102666666Y-68954819D01*
X102666666Y-68954819D02*
X102809523Y-69002438D01*
X102809523Y-69002438D02*
X102857142Y-69050057D01*
X103809523Y-69954819D02*
X103238095Y-69954819D01*
X103523809Y-69954819D02*
X103523809Y-68954819D01*
X103523809Y-68954819D02*
X103428571Y-69097676D01*
X103428571Y-69097676D02*
X103333333Y-69192914D01*
X103333333Y-69192914D02*
X103238095Y-69240533D01*
X104428571Y-68954819D02*
X104523809Y-68954819D01*
X104523809Y-68954819D02*
X104619047Y-69002438D01*
X104619047Y-69002438D02*
X104666666Y-69050057D01*
X104666666Y-69050057D02*
X104714285Y-69145295D01*
X104714285Y-69145295D02*
X104761904Y-69335771D01*
X104761904Y-69335771D02*
X104761904Y-69573866D01*
X104761904Y-69573866D02*
X104714285Y-69764342D01*
X104714285Y-69764342D02*
X104666666Y-69859580D01*
X104666666Y-69859580D02*
X104619047Y-69907200D01*
X104619047Y-69907200D02*
X104523809Y-69954819D01*
X104523809Y-69954819D02*
X104428571Y-69954819D01*
X104428571Y-69954819D02*
X104333333Y-69907200D01*
X104333333Y-69907200D02*
X104285714Y-69859580D01*
X104285714Y-69859580D02*
X104238095Y-69764342D01*
X104238095Y-69764342D02*
X104190476Y-69573866D01*
X104190476Y-69573866D02*
X104190476Y-69335771D01*
X104190476Y-69335771D02*
X104238095Y-69145295D01*
X104238095Y-69145295D02*
X104285714Y-69050057D01*
X104285714Y-69050057D02*
X104333333Y-69002438D01*
X104333333Y-69002438D02*
X104428571Y-68954819D01*
X113833336Y-86954819D02*
X113500003Y-86478628D01*
X113261908Y-86954819D02*
X113261908Y-85954819D01*
X113261908Y-85954819D02*
X113642860Y-85954819D01*
X113642860Y-85954819D02*
X113738098Y-86002438D01*
X113738098Y-86002438D02*
X113785717Y-86050057D01*
X113785717Y-86050057D02*
X113833336Y-86145295D01*
X113833336Y-86145295D02*
X113833336Y-86288152D01*
X113833336Y-86288152D02*
X113785717Y-86383390D01*
X113785717Y-86383390D02*
X113738098Y-86431009D01*
X113738098Y-86431009D02*
X113642860Y-86478628D01*
X113642860Y-86478628D02*
X113261908Y-86478628D01*
X114404765Y-86383390D02*
X114309527Y-86335771D01*
X114309527Y-86335771D02*
X114261908Y-86288152D01*
X114261908Y-86288152D02*
X114214289Y-86192914D01*
X114214289Y-86192914D02*
X114214289Y-86145295D01*
X114214289Y-86145295D02*
X114261908Y-86050057D01*
X114261908Y-86050057D02*
X114309527Y-86002438D01*
X114309527Y-86002438D02*
X114404765Y-85954819D01*
X114404765Y-85954819D02*
X114595241Y-85954819D01*
X114595241Y-85954819D02*
X114690479Y-86002438D01*
X114690479Y-86002438D02*
X114738098Y-86050057D01*
X114738098Y-86050057D02*
X114785717Y-86145295D01*
X114785717Y-86145295D02*
X114785717Y-86192914D01*
X114785717Y-86192914D02*
X114738098Y-86288152D01*
X114738098Y-86288152D02*
X114690479Y-86335771D01*
X114690479Y-86335771D02*
X114595241Y-86383390D01*
X114595241Y-86383390D02*
X114404765Y-86383390D01*
X114404765Y-86383390D02*
X114309527Y-86431009D01*
X114309527Y-86431009D02*
X114261908Y-86478628D01*
X114261908Y-86478628D02*
X114214289Y-86573866D01*
X114214289Y-86573866D02*
X114214289Y-86764342D01*
X114214289Y-86764342D02*
X114261908Y-86859580D01*
X114261908Y-86859580D02*
X114309527Y-86907200D01*
X114309527Y-86907200D02*
X114404765Y-86954819D01*
X114404765Y-86954819D02*
X114595241Y-86954819D01*
X114595241Y-86954819D02*
X114690479Y-86907200D01*
X114690479Y-86907200D02*
X114738098Y-86859580D01*
X114738098Y-86859580D02*
X114785717Y-86764342D01*
X114785717Y-86764342D02*
X114785717Y-86573866D01*
X114785717Y-86573866D02*
X114738098Y-86478628D01*
X114738098Y-86478628D02*
X114690479Y-86431009D01*
X114690479Y-86431009D02*
X114595241Y-86383390D01*
X116628295Y-86229819D02*
X116628295Y-87039342D01*
X116628295Y-87039342D02*
X116675914Y-87134580D01*
X116675914Y-87134580D02*
X116723533Y-87182200D01*
X116723533Y-87182200D02*
X116818771Y-87229819D01*
X116818771Y-87229819D02*
X117009247Y-87229819D01*
X117009247Y-87229819D02*
X117104485Y-87182200D01*
X117104485Y-87182200D02*
X117152104Y-87134580D01*
X117152104Y-87134580D02*
X117199723Y-87039342D01*
X117199723Y-87039342D02*
X117199723Y-86229819D01*
X118104485Y-86563152D02*
X118104485Y-87229819D01*
X117866390Y-86182200D02*
X117628295Y-86896485D01*
X117628295Y-86896485D02*
X118247342Y-86896485D01*
X97833333Y-35859580D02*
X97785714Y-35907200D01*
X97785714Y-35907200D02*
X97642857Y-35954819D01*
X97642857Y-35954819D02*
X97547619Y-35954819D01*
X97547619Y-35954819D02*
X97404762Y-35907200D01*
X97404762Y-35907200D02*
X97309524Y-35811961D01*
X97309524Y-35811961D02*
X97261905Y-35716723D01*
X97261905Y-35716723D02*
X97214286Y-35526247D01*
X97214286Y-35526247D02*
X97214286Y-35383390D01*
X97214286Y-35383390D02*
X97261905Y-35192914D01*
X97261905Y-35192914D02*
X97309524Y-35097676D01*
X97309524Y-35097676D02*
X97404762Y-35002438D01*
X97404762Y-35002438D02*
X97547619Y-34954819D01*
X97547619Y-34954819D02*
X97642857Y-34954819D01*
X97642857Y-34954819D02*
X97785714Y-35002438D01*
X97785714Y-35002438D02*
X97833333Y-35050057D01*
X98738095Y-34954819D02*
X98261905Y-34954819D01*
X98261905Y-34954819D02*
X98214286Y-35431009D01*
X98214286Y-35431009D02*
X98261905Y-35383390D01*
X98261905Y-35383390D02*
X98357143Y-35335771D01*
X98357143Y-35335771D02*
X98595238Y-35335771D01*
X98595238Y-35335771D02*
X98690476Y-35383390D01*
X98690476Y-35383390D02*
X98738095Y-35431009D01*
X98738095Y-35431009D02*
X98785714Y-35526247D01*
X98785714Y-35526247D02*
X98785714Y-35764342D01*
X98785714Y-35764342D02*
X98738095Y-35859580D01*
X98738095Y-35859580D02*
X98690476Y-35907200D01*
X98690476Y-35907200D02*
X98595238Y-35954819D01*
X98595238Y-35954819D02*
X98357143Y-35954819D01*
X98357143Y-35954819D02*
X98261905Y-35907200D01*
X98261905Y-35907200D02*
X98214286Y-35859580D01*
X119857142Y-98454819D02*
X119523809Y-97978628D01*
X119285714Y-98454819D02*
X119285714Y-97454819D01*
X119285714Y-97454819D02*
X119666666Y-97454819D01*
X119666666Y-97454819D02*
X119761904Y-97502438D01*
X119761904Y-97502438D02*
X119809523Y-97550057D01*
X119809523Y-97550057D02*
X119857142Y-97645295D01*
X119857142Y-97645295D02*
X119857142Y-97788152D01*
X119857142Y-97788152D02*
X119809523Y-97883390D01*
X119809523Y-97883390D02*
X119761904Y-97931009D01*
X119761904Y-97931009D02*
X119666666Y-97978628D01*
X119666666Y-97978628D02*
X119285714Y-97978628D01*
X120809523Y-98454819D02*
X120238095Y-98454819D01*
X120523809Y-98454819D02*
X120523809Y-97454819D01*
X120523809Y-97454819D02*
X120428571Y-97597676D01*
X120428571Y-97597676D02*
X120333333Y-97692914D01*
X120333333Y-97692914D02*
X120238095Y-97740533D01*
X121714285Y-97454819D02*
X121238095Y-97454819D01*
X121238095Y-97454819D02*
X121190476Y-97931009D01*
X121190476Y-97931009D02*
X121238095Y-97883390D01*
X121238095Y-97883390D02*
X121333333Y-97835771D01*
X121333333Y-97835771D02*
X121571428Y-97835771D01*
X121571428Y-97835771D02*
X121666666Y-97883390D01*
X121666666Y-97883390D02*
X121714285Y-97931009D01*
X121714285Y-97931009D02*
X121761904Y-98026247D01*
X121761904Y-98026247D02*
X121761904Y-98264342D01*
X121761904Y-98264342D02*
X121714285Y-98359580D01*
X121714285Y-98359580D02*
X121666666Y-98407200D01*
X121666666Y-98407200D02*
X121571428Y-98454819D01*
X121571428Y-98454819D02*
X121333333Y-98454819D01*
X121333333Y-98454819D02*
X121238095Y-98407200D01*
X121238095Y-98407200D02*
X121190476Y-98359580D01*
X110857142Y-57859580D02*
X110809523Y-57907200D01*
X110809523Y-57907200D02*
X110666666Y-57954819D01*
X110666666Y-57954819D02*
X110571428Y-57954819D01*
X110571428Y-57954819D02*
X110428571Y-57907200D01*
X110428571Y-57907200D02*
X110333333Y-57811961D01*
X110333333Y-57811961D02*
X110285714Y-57716723D01*
X110285714Y-57716723D02*
X110238095Y-57526247D01*
X110238095Y-57526247D02*
X110238095Y-57383390D01*
X110238095Y-57383390D02*
X110285714Y-57192914D01*
X110285714Y-57192914D02*
X110333333Y-57097676D01*
X110333333Y-57097676D02*
X110428571Y-57002438D01*
X110428571Y-57002438D02*
X110571428Y-56954819D01*
X110571428Y-56954819D02*
X110666666Y-56954819D01*
X110666666Y-56954819D02*
X110809523Y-57002438D01*
X110809523Y-57002438D02*
X110857142Y-57050057D01*
X111238095Y-57050057D02*
X111285714Y-57002438D01*
X111285714Y-57002438D02*
X111380952Y-56954819D01*
X111380952Y-56954819D02*
X111619047Y-56954819D01*
X111619047Y-56954819D02*
X111714285Y-57002438D01*
X111714285Y-57002438D02*
X111761904Y-57050057D01*
X111761904Y-57050057D02*
X111809523Y-57145295D01*
X111809523Y-57145295D02*
X111809523Y-57240533D01*
X111809523Y-57240533D02*
X111761904Y-57383390D01*
X111761904Y-57383390D02*
X111190476Y-57954819D01*
X111190476Y-57954819D02*
X111809523Y-57954819D01*
X112428571Y-56954819D02*
X112523809Y-56954819D01*
X112523809Y-56954819D02*
X112619047Y-57002438D01*
X112619047Y-57002438D02*
X112666666Y-57050057D01*
X112666666Y-57050057D02*
X112714285Y-57145295D01*
X112714285Y-57145295D02*
X112761904Y-57335771D01*
X112761904Y-57335771D02*
X112761904Y-57573866D01*
X112761904Y-57573866D02*
X112714285Y-57764342D01*
X112714285Y-57764342D02*
X112666666Y-57859580D01*
X112666666Y-57859580D02*
X112619047Y-57907200D01*
X112619047Y-57907200D02*
X112523809Y-57954819D01*
X112523809Y-57954819D02*
X112428571Y-57954819D01*
X112428571Y-57954819D02*
X112333333Y-57907200D01*
X112333333Y-57907200D02*
X112285714Y-57859580D01*
X112285714Y-57859580D02*
X112238095Y-57764342D01*
X112238095Y-57764342D02*
X112190476Y-57573866D01*
X112190476Y-57573866D02*
X112190476Y-57335771D01*
X112190476Y-57335771D02*
X112238095Y-57145295D01*
X112238095Y-57145295D02*
X112285714Y-57050057D01*
X112285714Y-57050057D02*
X112333333Y-57002438D01*
X112333333Y-57002438D02*
X112428571Y-56954819D01*
X97833333Y-39859580D02*
X97785714Y-39907200D01*
X97785714Y-39907200D02*
X97642857Y-39954819D01*
X97642857Y-39954819D02*
X97547619Y-39954819D01*
X97547619Y-39954819D02*
X97404762Y-39907200D01*
X97404762Y-39907200D02*
X97309524Y-39811961D01*
X97309524Y-39811961D02*
X97261905Y-39716723D01*
X97261905Y-39716723D02*
X97214286Y-39526247D01*
X97214286Y-39526247D02*
X97214286Y-39383390D01*
X97214286Y-39383390D02*
X97261905Y-39192914D01*
X97261905Y-39192914D02*
X97309524Y-39097676D01*
X97309524Y-39097676D02*
X97404762Y-39002438D01*
X97404762Y-39002438D02*
X97547619Y-38954819D01*
X97547619Y-38954819D02*
X97642857Y-38954819D01*
X97642857Y-38954819D02*
X97785714Y-39002438D01*
X97785714Y-39002438D02*
X97833333Y-39050057D01*
X98690476Y-38954819D02*
X98500000Y-38954819D01*
X98500000Y-38954819D02*
X98404762Y-39002438D01*
X98404762Y-39002438D02*
X98357143Y-39050057D01*
X98357143Y-39050057D02*
X98261905Y-39192914D01*
X98261905Y-39192914D02*
X98214286Y-39383390D01*
X98214286Y-39383390D02*
X98214286Y-39764342D01*
X98214286Y-39764342D02*
X98261905Y-39859580D01*
X98261905Y-39859580D02*
X98309524Y-39907200D01*
X98309524Y-39907200D02*
X98404762Y-39954819D01*
X98404762Y-39954819D02*
X98595238Y-39954819D01*
X98595238Y-39954819D02*
X98690476Y-39907200D01*
X98690476Y-39907200D02*
X98738095Y-39859580D01*
X98738095Y-39859580D02*
X98785714Y-39764342D01*
X98785714Y-39764342D02*
X98785714Y-39526247D01*
X98785714Y-39526247D02*
X98738095Y-39431009D01*
X98738095Y-39431009D02*
X98690476Y-39383390D01*
X98690476Y-39383390D02*
X98595238Y-39335771D01*
X98595238Y-39335771D02*
X98404762Y-39335771D01*
X98404762Y-39335771D02*
X98309524Y-39383390D01*
X98309524Y-39383390D02*
X98261905Y-39431009D01*
X98261905Y-39431009D02*
X98214286Y-39526247D01*
X121333333Y-80359580D02*
X121285714Y-80407200D01*
X121285714Y-80407200D02*
X121142857Y-80454819D01*
X121142857Y-80454819D02*
X121047619Y-80454819D01*
X121047619Y-80454819D02*
X120904762Y-80407200D01*
X120904762Y-80407200D02*
X120809524Y-80311961D01*
X120809524Y-80311961D02*
X120761905Y-80216723D01*
X120761905Y-80216723D02*
X120714286Y-80026247D01*
X120714286Y-80026247D02*
X120714286Y-79883390D01*
X120714286Y-79883390D02*
X120761905Y-79692914D01*
X120761905Y-79692914D02*
X120809524Y-79597676D01*
X120809524Y-79597676D02*
X120904762Y-79502438D01*
X120904762Y-79502438D02*
X121047619Y-79454819D01*
X121047619Y-79454819D02*
X121142857Y-79454819D01*
X121142857Y-79454819D02*
X121285714Y-79502438D01*
X121285714Y-79502438D02*
X121333333Y-79550057D01*
X121666667Y-79454819D02*
X122285714Y-79454819D01*
X122285714Y-79454819D02*
X121952381Y-79835771D01*
X121952381Y-79835771D02*
X122095238Y-79835771D01*
X122095238Y-79835771D02*
X122190476Y-79883390D01*
X122190476Y-79883390D02*
X122238095Y-79931009D01*
X122238095Y-79931009D02*
X122285714Y-80026247D01*
X122285714Y-80026247D02*
X122285714Y-80264342D01*
X122285714Y-80264342D02*
X122238095Y-80359580D01*
X122238095Y-80359580D02*
X122190476Y-80407200D01*
X122190476Y-80407200D02*
X122095238Y-80454819D01*
X122095238Y-80454819D02*
X121809524Y-80454819D01*
X121809524Y-80454819D02*
X121714286Y-80407200D01*
X121714286Y-80407200D02*
X121666667Y-80359580D01*
X103357142Y-73859580D02*
X103309523Y-73907200D01*
X103309523Y-73907200D02*
X103166666Y-73954819D01*
X103166666Y-73954819D02*
X103071428Y-73954819D01*
X103071428Y-73954819D02*
X102928571Y-73907200D01*
X102928571Y-73907200D02*
X102833333Y-73811961D01*
X102833333Y-73811961D02*
X102785714Y-73716723D01*
X102785714Y-73716723D02*
X102738095Y-73526247D01*
X102738095Y-73526247D02*
X102738095Y-73383390D01*
X102738095Y-73383390D02*
X102785714Y-73192914D01*
X102785714Y-73192914D02*
X102833333Y-73097676D01*
X102833333Y-73097676D02*
X102928571Y-73002438D01*
X102928571Y-73002438D02*
X103071428Y-72954819D01*
X103071428Y-72954819D02*
X103166666Y-72954819D01*
X103166666Y-72954819D02*
X103309523Y-73002438D01*
X103309523Y-73002438D02*
X103357142Y-73050057D01*
X103738095Y-73050057D02*
X103785714Y-73002438D01*
X103785714Y-73002438D02*
X103880952Y-72954819D01*
X103880952Y-72954819D02*
X104119047Y-72954819D01*
X104119047Y-72954819D02*
X104214285Y-73002438D01*
X104214285Y-73002438D02*
X104261904Y-73050057D01*
X104261904Y-73050057D02*
X104309523Y-73145295D01*
X104309523Y-73145295D02*
X104309523Y-73240533D01*
X104309523Y-73240533D02*
X104261904Y-73383390D01*
X104261904Y-73383390D02*
X103690476Y-73954819D01*
X103690476Y-73954819D02*
X104309523Y-73954819D01*
X105261904Y-73954819D02*
X104690476Y-73954819D01*
X104976190Y-73954819D02*
X104976190Y-72954819D01*
X104976190Y-72954819D02*
X104880952Y-73097676D01*
X104880952Y-73097676D02*
X104785714Y-73192914D01*
X104785714Y-73192914D02*
X104690476Y-73240533D01*
X112333333Y-77809580D02*
X112285714Y-77857200D01*
X112285714Y-77857200D02*
X112142857Y-77904819D01*
X112142857Y-77904819D02*
X112047619Y-77904819D01*
X112047619Y-77904819D02*
X111904762Y-77857200D01*
X111904762Y-77857200D02*
X111809524Y-77761961D01*
X111809524Y-77761961D02*
X111761905Y-77666723D01*
X111761905Y-77666723D02*
X111714286Y-77476247D01*
X111714286Y-77476247D02*
X111714286Y-77333390D01*
X111714286Y-77333390D02*
X111761905Y-77142914D01*
X111761905Y-77142914D02*
X111809524Y-77047676D01*
X111809524Y-77047676D02*
X111904762Y-76952438D01*
X111904762Y-76952438D02*
X112047619Y-76904819D01*
X112047619Y-76904819D02*
X112142857Y-76904819D01*
X112142857Y-76904819D02*
X112285714Y-76952438D01*
X112285714Y-76952438D02*
X112333333Y-77000057D01*
X113190476Y-77238152D02*
X113190476Y-77904819D01*
X112952381Y-76857200D02*
X112714286Y-77571485D01*
X112714286Y-77571485D02*
X113333333Y-77571485D01*
X123357142Y-68359580D02*
X123309523Y-68407200D01*
X123309523Y-68407200D02*
X123166666Y-68454819D01*
X123166666Y-68454819D02*
X123071428Y-68454819D01*
X123071428Y-68454819D02*
X122928571Y-68407200D01*
X122928571Y-68407200D02*
X122833333Y-68311961D01*
X122833333Y-68311961D02*
X122785714Y-68216723D01*
X122785714Y-68216723D02*
X122738095Y-68026247D01*
X122738095Y-68026247D02*
X122738095Y-67883390D01*
X122738095Y-67883390D02*
X122785714Y-67692914D01*
X122785714Y-67692914D02*
X122833333Y-67597676D01*
X122833333Y-67597676D02*
X122928571Y-67502438D01*
X122928571Y-67502438D02*
X123071428Y-67454819D01*
X123071428Y-67454819D02*
X123166666Y-67454819D01*
X123166666Y-67454819D02*
X123309523Y-67502438D01*
X123309523Y-67502438D02*
X123357142Y-67550057D01*
X124309523Y-68454819D02*
X123738095Y-68454819D01*
X124023809Y-68454819D02*
X124023809Y-67454819D01*
X124023809Y-67454819D02*
X123928571Y-67597676D01*
X123928571Y-67597676D02*
X123833333Y-67692914D01*
X123833333Y-67692914D02*
X123738095Y-67740533D01*
X124642857Y-67454819D02*
X125309523Y-67454819D01*
X125309523Y-67454819D02*
X124880952Y-68454819D01*
X117357142Y-62409580D02*
X117309523Y-62457200D01*
X117309523Y-62457200D02*
X117166666Y-62504819D01*
X117166666Y-62504819D02*
X117071428Y-62504819D01*
X117071428Y-62504819D02*
X116928571Y-62457200D01*
X116928571Y-62457200D02*
X116833333Y-62361961D01*
X116833333Y-62361961D02*
X116785714Y-62266723D01*
X116785714Y-62266723D02*
X116738095Y-62076247D01*
X116738095Y-62076247D02*
X116738095Y-61933390D01*
X116738095Y-61933390D02*
X116785714Y-61742914D01*
X116785714Y-61742914D02*
X116833333Y-61647676D01*
X116833333Y-61647676D02*
X116928571Y-61552438D01*
X116928571Y-61552438D02*
X117071428Y-61504819D01*
X117071428Y-61504819D02*
X117166666Y-61504819D01*
X117166666Y-61504819D02*
X117309523Y-61552438D01*
X117309523Y-61552438D02*
X117357142Y-61600057D01*
X118309523Y-62504819D02*
X117738095Y-62504819D01*
X118023809Y-62504819D02*
X118023809Y-61504819D01*
X118023809Y-61504819D02*
X117928571Y-61647676D01*
X117928571Y-61647676D02*
X117833333Y-61742914D01*
X117833333Y-61742914D02*
X117738095Y-61790533D01*
X119166666Y-61504819D02*
X118976190Y-61504819D01*
X118976190Y-61504819D02*
X118880952Y-61552438D01*
X118880952Y-61552438D02*
X118833333Y-61600057D01*
X118833333Y-61600057D02*
X118738095Y-61742914D01*
X118738095Y-61742914D02*
X118690476Y-61933390D01*
X118690476Y-61933390D02*
X118690476Y-62314342D01*
X118690476Y-62314342D02*
X118738095Y-62409580D01*
X118738095Y-62409580D02*
X118785714Y-62457200D01*
X118785714Y-62457200D02*
X118880952Y-62504819D01*
X118880952Y-62504819D02*
X119071428Y-62504819D01*
X119071428Y-62504819D02*
X119166666Y-62457200D01*
X119166666Y-62457200D02*
X119214285Y-62409580D01*
X119214285Y-62409580D02*
X119261904Y-62314342D01*
X119261904Y-62314342D02*
X119261904Y-62076247D01*
X119261904Y-62076247D02*
X119214285Y-61981009D01*
X119214285Y-61981009D02*
X119166666Y-61933390D01*
X119166666Y-61933390D02*
X119071428Y-61885771D01*
X119071428Y-61885771D02*
X118880952Y-61885771D01*
X118880952Y-61885771D02*
X118785714Y-61933390D01*
X118785714Y-61933390D02*
X118738095Y-61981009D01*
X118738095Y-61981009D02*
X118690476Y-62076247D01*
X107333336Y-86954819D02*
X107000003Y-86478628D01*
X106761908Y-86954819D02*
X106761908Y-85954819D01*
X106761908Y-85954819D02*
X107142860Y-85954819D01*
X107142860Y-85954819D02*
X107238098Y-86002438D01*
X107238098Y-86002438D02*
X107285717Y-86050057D01*
X107285717Y-86050057D02*
X107333336Y-86145295D01*
X107333336Y-86145295D02*
X107333336Y-86288152D01*
X107333336Y-86288152D02*
X107285717Y-86383390D01*
X107285717Y-86383390D02*
X107238098Y-86431009D01*
X107238098Y-86431009D02*
X107142860Y-86478628D01*
X107142860Y-86478628D02*
X106761908Y-86478628D01*
X107666670Y-85954819D02*
X108333336Y-85954819D01*
X108333336Y-85954819D02*
X107904765Y-86954819D01*
X123333333Y-60454819D02*
X123000000Y-59978628D01*
X122761905Y-60454819D02*
X122761905Y-59454819D01*
X122761905Y-59454819D02*
X123142857Y-59454819D01*
X123142857Y-59454819D02*
X123238095Y-59502438D01*
X123238095Y-59502438D02*
X123285714Y-59550057D01*
X123285714Y-59550057D02*
X123333333Y-59645295D01*
X123333333Y-59645295D02*
X123333333Y-59788152D01*
X123333333Y-59788152D02*
X123285714Y-59883390D01*
X123285714Y-59883390D02*
X123238095Y-59931009D01*
X123238095Y-59931009D02*
X123142857Y-59978628D01*
X123142857Y-59978628D02*
X122761905Y-59978628D01*
X124190476Y-59454819D02*
X124000000Y-59454819D01*
X124000000Y-59454819D02*
X123904762Y-59502438D01*
X123904762Y-59502438D02*
X123857143Y-59550057D01*
X123857143Y-59550057D02*
X123761905Y-59692914D01*
X123761905Y-59692914D02*
X123714286Y-59883390D01*
X123714286Y-59883390D02*
X123714286Y-60264342D01*
X123714286Y-60264342D02*
X123761905Y-60359580D01*
X123761905Y-60359580D02*
X123809524Y-60407200D01*
X123809524Y-60407200D02*
X123904762Y-60454819D01*
X123904762Y-60454819D02*
X124095238Y-60454819D01*
X124095238Y-60454819D02*
X124190476Y-60407200D01*
X124190476Y-60407200D02*
X124238095Y-60359580D01*
X124238095Y-60359580D02*
X124285714Y-60264342D01*
X124285714Y-60264342D02*
X124285714Y-60026247D01*
X124285714Y-60026247D02*
X124238095Y-59931009D01*
X124238095Y-59931009D02*
X124190476Y-59883390D01*
X124190476Y-59883390D02*
X124095238Y-59835771D01*
X124095238Y-59835771D02*
X123904762Y-59835771D01*
X123904762Y-59835771D02*
X123809524Y-59883390D01*
X123809524Y-59883390D02*
X123761905Y-59931009D01*
X123761905Y-59931009D02*
X123714286Y-60026247D01*
X121333333Y-78359580D02*
X121285714Y-78407200D01*
X121285714Y-78407200D02*
X121142857Y-78454819D01*
X121142857Y-78454819D02*
X121047619Y-78454819D01*
X121047619Y-78454819D02*
X120904762Y-78407200D01*
X120904762Y-78407200D02*
X120809524Y-78311961D01*
X120809524Y-78311961D02*
X120761905Y-78216723D01*
X120761905Y-78216723D02*
X120714286Y-78026247D01*
X120714286Y-78026247D02*
X120714286Y-77883390D01*
X120714286Y-77883390D02*
X120761905Y-77692914D01*
X120761905Y-77692914D02*
X120809524Y-77597676D01*
X120809524Y-77597676D02*
X120904762Y-77502438D01*
X120904762Y-77502438D02*
X121047619Y-77454819D01*
X121047619Y-77454819D02*
X121142857Y-77454819D01*
X121142857Y-77454819D02*
X121285714Y-77502438D01*
X121285714Y-77502438D02*
X121333333Y-77550057D01*
X121714286Y-77550057D02*
X121761905Y-77502438D01*
X121761905Y-77502438D02*
X121857143Y-77454819D01*
X121857143Y-77454819D02*
X122095238Y-77454819D01*
X122095238Y-77454819D02*
X122190476Y-77502438D01*
X122190476Y-77502438D02*
X122238095Y-77550057D01*
X122238095Y-77550057D02*
X122285714Y-77645295D01*
X122285714Y-77645295D02*
X122285714Y-77740533D01*
X122285714Y-77740533D02*
X122238095Y-77883390D01*
X122238095Y-77883390D02*
X121666667Y-78454819D01*
X121666667Y-78454819D02*
X122285714Y-78454819D01*
X123333333Y-64454819D02*
X123000000Y-63978628D01*
X122761905Y-64454819D02*
X122761905Y-63454819D01*
X122761905Y-63454819D02*
X123142857Y-63454819D01*
X123142857Y-63454819D02*
X123238095Y-63502438D01*
X123238095Y-63502438D02*
X123285714Y-63550057D01*
X123285714Y-63550057D02*
X123333333Y-63645295D01*
X123333333Y-63645295D02*
X123333333Y-63788152D01*
X123333333Y-63788152D02*
X123285714Y-63883390D01*
X123285714Y-63883390D02*
X123238095Y-63931009D01*
X123238095Y-63931009D02*
X123142857Y-63978628D01*
X123142857Y-63978628D02*
X122761905Y-63978628D01*
X123666667Y-63454819D02*
X124285714Y-63454819D01*
X124285714Y-63454819D02*
X123952381Y-63835771D01*
X123952381Y-63835771D02*
X124095238Y-63835771D01*
X124095238Y-63835771D02*
X124190476Y-63883390D01*
X124190476Y-63883390D02*
X124238095Y-63931009D01*
X124238095Y-63931009D02*
X124285714Y-64026247D01*
X124285714Y-64026247D02*
X124285714Y-64264342D01*
X124285714Y-64264342D02*
X124238095Y-64359580D01*
X124238095Y-64359580D02*
X124190476Y-64407200D01*
X124190476Y-64407200D02*
X124095238Y-64454819D01*
X124095238Y-64454819D02*
X123809524Y-64454819D01*
X123809524Y-64454819D02*
X123714286Y-64407200D01*
X123714286Y-64407200D02*
X123666667Y-64359580D01*
X114357142Y-57859580D02*
X114309523Y-57907200D01*
X114309523Y-57907200D02*
X114166666Y-57954819D01*
X114166666Y-57954819D02*
X114071428Y-57954819D01*
X114071428Y-57954819D02*
X113928571Y-57907200D01*
X113928571Y-57907200D02*
X113833333Y-57811961D01*
X113833333Y-57811961D02*
X113785714Y-57716723D01*
X113785714Y-57716723D02*
X113738095Y-57526247D01*
X113738095Y-57526247D02*
X113738095Y-57383390D01*
X113738095Y-57383390D02*
X113785714Y-57192914D01*
X113785714Y-57192914D02*
X113833333Y-57097676D01*
X113833333Y-57097676D02*
X113928571Y-57002438D01*
X113928571Y-57002438D02*
X114071428Y-56954819D01*
X114071428Y-56954819D02*
X114166666Y-56954819D01*
X114166666Y-56954819D02*
X114309523Y-57002438D01*
X114309523Y-57002438D02*
X114357142Y-57050057D01*
X115309523Y-57954819D02*
X114738095Y-57954819D01*
X115023809Y-57954819D02*
X115023809Y-56954819D01*
X115023809Y-56954819D02*
X114928571Y-57097676D01*
X114928571Y-57097676D02*
X114833333Y-57192914D01*
X114833333Y-57192914D02*
X114738095Y-57240533D01*
X115785714Y-57954819D02*
X115976190Y-57954819D01*
X115976190Y-57954819D02*
X116071428Y-57907200D01*
X116071428Y-57907200D02*
X116119047Y-57859580D01*
X116119047Y-57859580D02*
X116214285Y-57716723D01*
X116214285Y-57716723D02*
X116261904Y-57526247D01*
X116261904Y-57526247D02*
X116261904Y-57145295D01*
X116261904Y-57145295D02*
X116214285Y-57050057D01*
X116214285Y-57050057D02*
X116166666Y-57002438D01*
X116166666Y-57002438D02*
X116071428Y-56954819D01*
X116071428Y-56954819D02*
X115880952Y-56954819D01*
X115880952Y-56954819D02*
X115785714Y-57002438D01*
X115785714Y-57002438D02*
X115738095Y-57050057D01*
X115738095Y-57050057D02*
X115690476Y-57145295D01*
X115690476Y-57145295D02*
X115690476Y-57383390D01*
X115690476Y-57383390D02*
X115738095Y-57478628D01*
X115738095Y-57478628D02*
X115785714Y-57526247D01*
X115785714Y-57526247D02*
X115880952Y-57573866D01*
X115880952Y-57573866D02*
X116071428Y-57573866D01*
X116071428Y-57573866D02*
X116166666Y-57526247D01*
X116166666Y-57526247D02*
X116214285Y-57478628D01*
X116214285Y-57478628D02*
X116261904Y-57383390D01*
X123357142Y-72359580D02*
X123309523Y-72407200D01*
X123309523Y-72407200D02*
X123166666Y-72454819D01*
X123166666Y-72454819D02*
X123071428Y-72454819D01*
X123071428Y-72454819D02*
X122928571Y-72407200D01*
X122928571Y-72407200D02*
X122833333Y-72311961D01*
X122833333Y-72311961D02*
X122785714Y-72216723D01*
X122785714Y-72216723D02*
X122738095Y-72026247D01*
X122738095Y-72026247D02*
X122738095Y-71883390D01*
X122738095Y-71883390D02*
X122785714Y-71692914D01*
X122785714Y-71692914D02*
X122833333Y-71597676D01*
X122833333Y-71597676D02*
X122928571Y-71502438D01*
X122928571Y-71502438D02*
X123071428Y-71454819D01*
X123071428Y-71454819D02*
X123166666Y-71454819D01*
X123166666Y-71454819D02*
X123309523Y-71502438D01*
X123309523Y-71502438D02*
X123357142Y-71550057D01*
X123738095Y-71550057D02*
X123785714Y-71502438D01*
X123785714Y-71502438D02*
X123880952Y-71454819D01*
X123880952Y-71454819D02*
X124119047Y-71454819D01*
X124119047Y-71454819D02*
X124214285Y-71502438D01*
X124214285Y-71502438D02*
X124261904Y-71550057D01*
X124261904Y-71550057D02*
X124309523Y-71645295D01*
X124309523Y-71645295D02*
X124309523Y-71740533D01*
X124309523Y-71740533D02*
X124261904Y-71883390D01*
X124261904Y-71883390D02*
X123690476Y-72454819D01*
X123690476Y-72454819D02*
X124309523Y-72454819D01*
X124642857Y-71454819D02*
X125261904Y-71454819D01*
X125261904Y-71454819D02*
X124928571Y-71835771D01*
X124928571Y-71835771D02*
X125071428Y-71835771D01*
X125071428Y-71835771D02*
X125166666Y-71883390D01*
X125166666Y-71883390D02*
X125214285Y-71931009D01*
X125214285Y-71931009D02*
X125261904Y-72026247D01*
X125261904Y-72026247D02*
X125261904Y-72264342D01*
X125261904Y-72264342D02*
X125214285Y-72359580D01*
X125214285Y-72359580D02*
X125166666Y-72407200D01*
X125166666Y-72407200D02*
X125071428Y-72454819D01*
X125071428Y-72454819D02*
X124785714Y-72454819D01*
X124785714Y-72454819D02*
X124690476Y-72407200D01*
X124690476Y-72407200D02*
X124642857Y-72359580D01*
X114357142Y-62409580D02*
X114309523Y-62457200D01*
X114309523Y-62457200D02*
X114166666Y-62504819D01*
X114166666Y-62504819D02*
X114071428Y-62504819D01*
X114071428Y-62504819D02*
X113928571Y-62457200D01*
X113928571Y-62457200D02*
X113833333Y-62361961D01*
X113833333Y-62361961D02*
X113785714Y-62266723D01*
X113785714Y-62266723D02*
X113738095Y-62076247D01*
X113738095Y-62076247D02*
X113738095Y-61933390D01*
X113738095Y-61933390D02*
X113785714Y-61742914D01*
X113785714Y-61742914D02*
X113833333Y-61647676D01*
X113833333Y-61647676D02*
X113928571Y-61552438D01*
X113928571Y-61552438D02*
X114071428Y-61504819D01*
X114071428Y-61504819D02*
X114166666Y-61504819D01*
X114166666Y-61504819D02*
X114309523Y-61552438D01*
X114309523Y-61552438D02*
X114357142Y-61600057D01*
X115309523Y-62504819D02*
X114738095Y-62504819D01*
X115023809Y-62504819D02*
X115023809Y-61504819D01*
X115023809Y-61504819D02*
X114928571Y-61647676D01*
X114928571Y-61647676D02*
X114833333Y-61742914D01*
X114833333Y-61742914D02*
X114738095Y-61790533D01*
X116214285Y-61504819D02*
X115738095Y-61504819D01*
X115738095Y-61504819D02*
X115690476Y-61981009D01*
X115690476Y-61981009D02*
X115738095Y-61933390D01*
X115738095Y-61933390D02*
X115833333Y-61885771D01*
X115833333Y-61885771D02*
X116071428Y-61885771D01*
X116071428Y-61885771D02*
X116166666Y-61933390D01*
X116166666Y-61933390D02*
X116214285Y-61981009D01*
X116214285Y-61981009D02*
X116261904Y-62076247D01*
X116261904Y-62076247D02*
X116261904Y-62314342D01*
X116261904Y-62314342D02*
X116214285Y-62409580D01*
X116214285Y-62409580D02*
X116166666Y-62457200D01*
X116166666Y-62457200D02*
X116071428Y-62504819D01*
X116071428Y-62504819D02*
X115833333Y-62504819D01*
X115833333Y-62504819D02*
X115738095Y-62457200D01*
X115738095Y-62457200D02*
X115690476Y-62409580D01*
X97833333Y-43954819D02*
X97500000Y-43478628D01*
X97261905Y-43954819D02*
X97261905Y-42954819D01*
X97261905Y-42954819D02*
X97642857Y-42954819D01*
X97642857Y-42954819D02*
X97738095Y-43002438D01*
X97738095Y-43002438D02*
X97785714Y-43050057D01*
X97785714Y-43050057D02*
X97833333Y-43145295D01*
X97833333Y-43145295D02*
X97833333Y-43288152D01*
X97833333Y-43288152D02*
X97785714Y-43383390D01*
X97785714Y-43383390D02*
X97738095Y-43431009D01*
X97738095Y-43431009D02*
X97642857Y-43478628D01*
X97642857Y-43478628D02*
X97261905Y-43478628D01*
X98785714Y-43954819D02*
X98214286Y-43954819D01*
X98500000Y-43954819D02*
X98500000Y-42954819D01*
X98500000Y-42954819D02*
X98404762Y-43097676D01*
X98404762Y-43097676D02*
X98309524Y-43192914D01*
X98309524Y-43192914D02*
X98214286Y-43240533D01*
X113341666Y-91629819D02*
X113341666Y-92344104D01*
X113341666Y-92344104D02*
X113294047Y-92486961D01*
X113294047Y-92486961D02*
X113198809Y-92582200D01*
X113198809Y-92582200D02*
X113055952Y-92629819D01*
X113055952Y-92629819D02*
X112960714Y-92629819D01*
X113722619Y-91629819D02*
X114341666Y-91629819D01*
X114341666Y-91629819D02*
X114008333Y-92010771D01*
X114008333Y-92010771D02*
X114151190Y-92010771D01*
X114151190Y-92010771D02*
X114246428Y-92058390D01*
X114246428Y-92058390D02*
X114294047Y-92106009D01*
X114294047Y-92106009D02*
X114341666Y-92201247D01*
X114341666Y-92201247D02*
X114341666Y-92439342D01*
X114341666Y-92439342D02*
X114294047Y-92534580D01*
X114294047Y-92534580D02*
X114246428Y-92582200D01*
X114246428Y-92582200D02*
X114151190Y-92629819D01*
X114151190Y-92629819D02*
X113865476Y-92629819D01*
X113865476Y-92629819D02*
X113770238Y-92582200D01*
X113770238Y-92582200D02*
X113722619Y-92534580D01*
X106857142Y-62409580D02*
X106809523Y-62457200D01*
X106809523Y-62457200D02*
X106666666Y-62504819D01*
X106666666Y-62504819D02*
X106571428Y-62504819D01*
X106571428Y-62504819D02*
X106428571Y-62457200D01*
X106428571Y-62457200D02*
X106333333Y-62361961D01*
X106333333Y-62361961D02*
X106285714Y-62266723D01*
X106285714Y-62266723D02*
X106238095Y-62076247D01*
X106238095Y-62076247D02*
X106238095Y-61933390D01*
X106238095Y-61933390D02*
X106285714Y-61742914D01*
X106285714Y-61742914D02*
X106333333Y-61647676D01*
X106333333Y-61647676D02*
X106428571Y-61552438D01*
X106428571Y-61552438D02*
X106571428Y-61504819D01*
X106571428Y-61504819D02*
X106666666Y-61504819D01*
X106666666Y-61504819D02*
X106809523Y-61552438D01*
X106809523Y-61552438D02*
X106857142Y-61600057D01*
X107809523Y-62504819D02*
X107238095Y-62504819D01*
X107523809Y-62504819D02*
X107523809Y-61504819D01*
X107523809Y-61504819D02*
X107428571Y-61647676D01*
X107428571Y-61647676D02*
X107333333Y-61742914D01*
X107333333Y-61742914D02*
X107238095Y-61790533D01*
X108142857Y-61504819D02*
X108761904Y-61504819D01*
X108761904Y-61504819D02*
X108428571Y-61885771D01*
X108428571Y-61885771D02*
X108571428Y-61885771D01*
X108571428Y-61885771D02*
X108666666Y-61933390D01*
X108666666Y-61933390D02*
X108714285Y-61981009D01*
X108714285Y-61981009D02*
X108761904Y-62076247D01*
X108761904Y-62076247D02*
X108761904Y-62314342D01*
X108761904Y-62314342D02*
X108714285Y-62409580D01*
X108714285Y-62409580D02*
X108666666Y-62457200D01*
X108666666Y-62457200D02*
X108571428Y-62504819D01*
X108571428Y-62504819D02*
X108285714Y-62504819D01*
X108285714Y-62504819D02*
X108190476Y-62457200D01*
X108190476Y-62457200D02*
X108142857Y-62409580D01*
X127166666Y-57914819D02*
X127166666Y-58629104D01*
X127166666Y-58629104D02*
X127119047Y-58771961D01*
X127119047Y-58771961D02*
X127023809Y-58867200D01*
X127023809Y-58867200D02*
X126880952Y-58914819D01*
X126880952Y-58914819D02*
X126785714Y-58914819D01*
X128166666Y-58914819D02*
X127595238Y-58914819D01*
X127880952Y-58914819D02*
X127880952Y-57914819D01*
X127880952Y-57914819D02*
X127785714Y-58057676D01*
X127785714Y-58057676D02*
X127690476Y-58152914D01*
X127690476Y-58152914D02*
X127595238Y-58200533D01*
D11*
%TO.C,R4*%
X120272936Y-65265000D02*
X120727064Y-65265000D01*
X120272936Y-66735000D02*
X120727064Y-66735000D01*
%TO.C,SW5*%
X97290000Y-91790000D02*
X97290000Y-92200000D01*
X97290000Y-93800000D02*
X97290000Y-96200000D01*
X97290000Y-97800000D02*
X97290000Y-98210000D01*
X97290000Y-98210000D02*
X103710000Y-98210000D01*
X103710000Y-91790000D02*
X97290000Y-91790000D01*
X103710000Y-92200000D02*
X103710000Y-91790000D01*
X103710000Y-96200000D02*
X103710000Y-93800000D01*
X103710000Y-98210000D02*
X103710000Y-97930000D01*
%TO.C,J8*%
X97380000Y-89500000D02*
X96000000Y-89500000D01*
X97380000Y-88120000D02*
X97380000Y-89500000D01*
X97380000Y-86850000D02*
X97380000Y-48640000D01*
X97380000Y-86850000D02*
X94620000Y-86850000D01*
X97380000Y-48640000D02*
X94620000Y-48640000D01*
X94620000Y-86850000D02*
X94620000Y-48640000D01*
%TO.C,Y1*%
X116540000Y-73440000D02*
X116540000Y-76860000D01*
X116540000Y-76860000D02*
X120660000Y-76860000D01*
%TO.C,C18*%
X111755000Y-64811252D02*
X111755000Y-64288748D01*
X113225000Y-64811252D02*
X113225000Y-64288748D01*
D12*
%TO.C,U2*%
X111930000Y-69005000D02*
X111930000Y-69752500D01*
X111930000Y-69005000D02*
X112802500Y-69005000D01*
X111930000Y-71995000D02*
X111930000Y-71247500D01*
X111930000Y-71995000D02*
X112802500Y-71995000D01*
X115420000Y-69005000D02*
X114547500Y-69005000D01*
X115420000Y-69005000D02*
X115420000Y-69752500D01*
X115420000Y-71995000D02*
X114547500Y-71995000D01*
X115420000Y-71995000D02*
X115420000Y-71247500D01*
D13*
X111799500Y-69500000D02*
G75*
G02*
X111599500Y-69500000I-100000J0D01*
G01*
X111599500Y-69500000D02*
G75*
G02*
X111799500Y-69500000I100000J0D01*
G01*
D11*
%TO.C,C22*%
X113765000Y-74688748D02*
X113765000Y-75211252D01*
X115235000Y-74688748D02*
X115235000Y-75211252D01*
%TO.C,U1*%
X104475000Y-28100000D02*
X104475000Y-34300000D01*
X104475000Y-28100000D02*
X122875000Y-28100000D01*
X104475000Y-52950000D02*
X104475000Y-53950000D01*
X104475000Y-53950000D02*
X105975000Y-53950000D01*
X122875000Y-28100000D02*
X122875000Y-34300000D01*
X122875000Y-53950000D02*
X121375000Y-53950000D01*
X122875000Y-53950000D02*
X122875000Y-52950000D01*
X104475000Y-34975000D02*
X103975000Y-34975000D01*
X104475000Y-34475000D01*
X104475000Y-34975000D01*
G36*
X104475000Y-34975000D02*
G01*
X103975000Y-34975000D01*
X104475000Y-34475000D01*
X104475000Y-34975000D01*
G37*
%TO.C,C24*%
X101261252Y-36765000D02*
X100738748Y-36765000D01*
X101261252Y-38235000D02*
X100738748Y-38235000D01*
%TO.C,U3*%
X110890200Y-87615000D02*
X110090200Y-87615000D01*
X110890200Y-87615000D02*
X111690200Y-87615000D01*
X110890200Y-90735000D02*
X110090200Y-90735000D01*
X110890200Y-90735000D02*
X111690200Y-90735000D01*
X109590200Y-87665000D02*
X109350200Y-87335000D01*
X109830200Y-87335000D01*
X109590200Y-87665000D01*
G36*
X109590200Y-87665000D02*
G01*
X109350200Y-87335000D01*
X109830200Y-87335000D01*
X109590200Y-87665000D01*
G37*
%TO.C,C1*%
X116765000Y-70311252D02*
X116765000Y-69788748D01*
X118235000Y-70311252D02*
X118235000Y-69788748D01*
%TO.C,C11*%
X107211252Y-70765000D02*
X106688748Y-70765000D01*
X107211252Y-72235000D02*
X106688748Y-72235000D01*
%TO.C,C14*%
X109765000Y-64811252D02*
X109765000Y-64288748D01*
X111235000Y-64811252D02*
X111235000Y-64288748D01*
%TO.C,J6*%
X130120000Y-49040000D02*
X131500000Y-49040000D01*
X130120000Y-50420000D02*
X130120000Y-49040000D01*
X130120000Y-51690000D02*
X130120000Y-89900000D01*
X130120000Y-51690000D02*
X132880000Y-51690000D01*
X130120000Y-89900000D02*
X132880000Y-89900000D01*
X132880000Y-51690000D02*
X132880000Y-89900000D01*
%TO.C,SW6*%
X123790000Y-91790000D02*
X123790000Y-92200000D01*
X123790000Y-93800000D02*
X123790000Y-96200000D01*
X123790000Y-97800000D02*
X123790000Y-98210000D01*
X123790000Y-98210000D02*
X130210000Y-98210000D01*
X130210000Y-91790000D02*
X123790000Y-91790000D01*
X130210000Y-92200000D02*
X130210000Y-91790000D01*
X130210000Y-96200000D02*
X130210000Y-93800000D01*
X130210000Y-98210000D02*
X130210000Y-97930000D01*
%TO.C,C12*%
X107311252Y-66765000D02*
X106788748Y-66765000D01*
X107311252Y-68235000D02*
X106788748Y-68235000D01*
%TO.C,R16*%
X106265000Y-95814564D02*
X106265000Y-95360436D01*
X107735000Y-95814564D02*
X107735000Y-95360436D01*
%TO.C,C8*%
X101261252Y-40765000D02*
X100738748Y-40765000D01*
X101261252Y-42235000D02*
X100738748Y-42235000D01*
%TO.C,R2*%
X103139564Y-65265000D02*
X102685436Y-65265000D01*
X103139564Y-66735000D02*
X102685436Y-66735000D01*
%TO.C,R5*%
X120272936Y-61265000D02*
X120727064Y-61265000D01*
X120272936Y-62735000D02*
X120727064Y-62735000D01*
%TO.C,C9*%
X120761252Y-69265000D02*
X120238748Y-69265000D01*
X120761252Y-70735000D02*
X120238748Y-70735000D01*
%TO.C,C10*%
X107261252Y-68765000D02*
X106738748Y-68765000D01*
X107261252Y-70235000D02*
X106738748Y-70235000D01*
%TO.C,R8*%
X113517700Y-88860436D02*
X113517700Y-89314564D01*
X114987700Y-88860436D02*
X114987700Y-89314564D01*
%TO.C,U4*%
X117390200Y-87615000D02*
X116590200Y-87615000D01*
X117390200Y-87615000D02*
X118190200Y-87615000D01*
X117390200Y-90735000D02*
X116590200Y-90735000D01*
X117390200Y-90735000D02*
X118190200Y-90735000D01*
X116090200Y-87665000D02*
X115850200Y-87335000D01*
X116330200Y-87335000D01*
X116090200Y-87665000D01*
G36*
X116090200Y-87665000D02*
G01*
X115850200Y-87335000D01*
X116330200Y-87335000D01*
X116090200Y-87665000D01*
G37*
%TO.C,C5*%
X101261252Y-34765000D02*
X100738748Y-34765000D01*
X101261252Y-36235000D02*
X100738748Y-36235000D01*
%TO.C,R15*%
X119765000Y-95272936D02*
X119765000Y-95727064D01*
X121235000Y-95272936D02*
X121235000Y-95727064D01*
%TO.C,C20*%
X111265000Y-59788748D02*
X111265000Y-60311252D01*
X112735000Y-59788748D02*
X112735000Y-60311252D01*
%TO.C,C6*%
X101261252Y-38765000D02*
X100738748Y-38765000D01*
X101261252Y-40235000D02*
X100738748Y-40235000D01*
%TO.C,C3*%
X118188748Y-79265000D02*
X118711252Y-79265000D01*
X118188748Y-80735000D02*
X118711252Y-80735000D01*
%TO.C,C21*%
X107311252Y-72765000D02*
X106788748Y-72765000D01*
X107311252Y-74235000D02*
X106788748Y-74235000D01*
%TO.C,C4*%
X111765000Y-74688748D02*
X111765000Y-75211252D01*
X113235000Y-74688748D02*
X113235000Y-75211252D01*
%TO.C,C17*%
X120188748Y-67265000D02*
X120711252Y-67265000D01*
X120188748Y-68735000D02*
X120711252Y-68735000D01*
%TO.C,C16*%
X116765000Y-64288748D02*
X116765000Y-64811252D01*
X118235000Y-64288748D02*
X118235000Y-64811252D01*
%TO.C,R7*%
X106605200Y-88772936D02*
X106605200Y-89227064D01*
X108075200Y-88772936D02*
X108075200Y-89227064D01*
%TO.C,R6*%
X120727064Y-60735000D02*
X120272936Y-60735000D01*
X120727064Y-59265000D02*
X120272936Y-59265000D01*
%TO.C,C2*%
X118188748Y-77255000D02*
X118711252Y-77255000D01*
X118188748Y-78725000D02*
X118711252Y-78725000D01*
%TO.C,R3*%
X120272936Y-63265000D02*
X120727064Y-63265000D01*
X120272936Y-64735000D02*
X120727064Y-64735000D01*
%TO.C,C19*%
X113765000Y-60261252D02*
X113765000Y-59738748D01*
X115235000Y-60261252D02*
X115235000Y-59738748D01*
%TO.C,C23*%
X120238748Y-71265000D02*
X120761252Y-71265000D01*
X120238748Y-72735000D02*
X120761252Y-72735000D01*
%TO.C,C15*%
X114765000Y-64811252D02*
X114765000Y-64288748D01*
X116235000Y-64811252D02*
X116235000Y-64288748D01*
%TO.C,R1*%
X100772936Y-42765000D02*
X101227064Y-42765000D01*
X100772936Y-44235000D02*
X101227064Y-44235000D01*
%TO.C,J3*%
X109080000Y-96375000D02*
X109080000Y-97275000D01*
X109080000Y-99975000D02*
X109080000Y-102705000D01*
X109080000Y-102705000D02*
X118270000Y-102705000D01*
X109200000Y-93295000D02*
X118150000Y-93295000D01*
X118270000Y-96375000D02*
X118270000Y-97275000D01*
X118270000Y-99975000D02*
X118270000Y-102705000D01*
%TO.C,C13*%
X107765000Y-64811252D02*
X107765000Y-64288748D01*
X109235000Y-64811252D02*
X109235000Y-64288748D01*
%TO.C,J1*%
X126120000Y-59460000D02*
X127500000Y-59460000D01*
X126120000Y-60840000D02*
X126120000Y-59460000D01*
X126120000Y-62110000D02*
X126120000Y-72380000D01*
X126120000Y-62110000D02*
X128880000Y-62110000D01*
X126120000Y-72380000D02*
X128880000Y-72380000D01*
X128880000Y-62110000D02*
X128880000Y-72380000D01*
%TD*%
M02*
