%TF.GenerationSoftware,KiCad,Pcbnew,9.0.3*%
%TF.CreationDate,2025-08-15T22:13:16-04:00*%
%TF.ProjectId,bioimpedance,62696f69-6d70-4656-9461-6e63652e6b69,rev?*%
%TF.SameCoordinates,Original*%
%TF.FileFunction,Soldermask,Top*%
%TF.FilePolarity,Negative*%
%FSLAX46Y46*%
G04 Gerber Fmt 4.6, Leading zero omitted, Abs format (unit mm)*
G04 Created by KiCad (PCBNEW 9.0.3) date 2025-08-15 22:13:16*
%MOMM*%
%LPD*%
G01*
G04 APERTURE LIST*
G04 Aperture macros list*
%AMRoundRect*
0 Rectangle with rounded corners*
0 $1 Rounding radius*
0 $2 $3 $4 $5 $6 $7 $8 $9 X,Y pos of 4 corners*
0 Add a 4 corners polygon primitive as box body*
4,1,4,$2,$3,$4,$5,$6,$7,$8,$9,$2,$3,0*
0 Add four circle primitives for the rounded corners*
1,1,$1+$1,$2,$3*
1,1,$1+$1,$4,$5*
1,1,$1+$1,$6,$7*
1,1,$1+$1,$8,$9*
0 Add four rect primitives between the rounded corners*
20,1,$1+$1,$2,$3,$4,$5,0*
20,1,$1+$1,$4,$5,$6,$7,0*
20,1,$1+$1,$6,$7,$8,$9,0*
20,1,$1+$1,$8,$9,$2,$3,0*%
G04 Aperture macros list end*
%ADD10RoundRect,0.250000X-0.262500X-0.450000X0.262500X-0.450000X0.262500X0.450000X-0.262500X0.450000X0*%
%ADD11R,2.800000X1.000000*%
%ADD12R,1.700000X1.700000*%
%ADD13C,1.700000*%
%ADD14RoundRect,0.250000X-0.450000X-0.350000X0.450000X-0.350000X0.450000X0.350000X-0.450000X0.350000X0*%
%ADD15RoundRect,0.250000X0.475000X-0.250000X0.475000X0.250000X-0.475000X0.250000X-0.475000X-0.250000X0*%
%ADD16C,0.554000*%
%ADD17RoundRect,0.250000X-0.475000X0.250000X-0.475000X-0.250000X0.475000X-0.250000X0.475000X0.250000X0*%
%ADD18R,1.500000X0.900000*%
%ADD19R,0.900000X1.500000*%
%ADD20C,0.600000*%
%ADD21R,3.900000X3.900000*%
%ADD22RoundRect,0.250000X0.250000X0.475000X-0.250000X0.475000X-0.250000X-0.475000X0.250000X-0.475000X0*%
%ADD23RoundRect,0.150000X-0.512500X-0.150000X0.512500X-0.150000X0.512500X0.150000X-0.512500X0.150000X0*%
%ADD24RoundRect,0.250000X0.450000X-0.262500X0.450000X0.262500X-0.450000X0.262500X-0.450000X-0.262500X0*%
%ADD25RoundRect,0.250000X0.262500X0.450000X-0.262500X0.450000X-0.262500X-0.450000X0.262500X-0.450000X0*%
%ADD26RoundRect,0.250000X-0.450000X0.262500X-0.450000X-0.262500X0.450000X-0.262500X0.450000X0.262500X0*%
%ADD27RoundRect,0.250000X-0.250000X-0.475000X0.250000X-0.475000X0.250000X0.475000X-0.250000X0.475000X0*%
%ADD28C,0.700000*%
%ADD29O,0.900000X2.400000*%
%ADD30O,0.900000X1.700000*%
G04 APERTURE END LIST*
D10*
%TO.C,R4*%
X119587500Y-66000000D03*
X121412500Y-66000000D03*
%TD*%
D11*
%TO.C,SW5*%
X97600000Y-93000000D03*
X103400000Y-93000000D03*
X97600000Y-97000000D03*
X103400000Y-97000000D03*
%TD*%
D12*
%TO.C,J8*%
X96000000Y-88120000D03*
D13*
X96000000Y-85580000D03*
X96000000Y-83040000D03*
X96000000Y-80500000D03*
X96000000Y-77960000D03*
X96000000Y-75420000D03*
X96000000Y-72880000D03*
X96000000Y-70340000D03*
X96000000Y-67800000D03*
X96000000Y-65260000D03*
X96000000Y-62720000D03*
X96000000Y-60180000D03*
X96000000Y-57640000D03*
X96000000Y-55100000D03*
X96000000Y-52560000D03*
X96000000Y-50020000D03*
%TD*%
D14*
%TO.C,Y1*%
X117500000Y-76000000D03*
X119700000Y-76000000D03*
X119700000Y-74300000D03*
X117500000Y-74300000D03*
%TD*%
D15*
%TO.C,C18*%
X112490000Y-65500000D03*
X112490000Y-63600000D03*
%TD*%
D16*
%TO.C,U2*%
X112425000Y-69500000D03*
X112925000Y-69500000D03*
X113425000Y-69500000D03*
X113925000Y-69500000D03*
X114425000Y-69500000D03*
X114925000Y-69500000D03*
X112425000Y-70000000D03*
X112925000Y-70000000D03*
X113425000Y-70000000D03*
X113925000Y-70000000D03*
X114425000Y-70000000D03*
X114925000Y-70000000D03*
X112425000Y-70500000D03*
X112925000Y-70500000D03*
X113425000Y-70500000D03*
X113925000Y-70500000D03*
X114425000Y-70500000D03*
X114925000Y-70500000D03*
X112425000Y-71000000D03*
X112925000Y-71000000D03*
X113425000Y-71000000D03*
X113925000Y-71000000D03*
X114425000Y-71000000D03*
X114925000Y-71000000D03*
X112425000Y-71500000D03*
X112925000Y-71500000D03*
X113425000Y-71500000D03*
X113925000Y-71500000D03*
X114425000Y-71500000D03*
X114925000Y-71500000D03*
%TD*%
D17*
%TO.C,C22*%
X114500000Y-74000000D03*
X114500000Y-75900000D03*
%TD*%
D18*
%TO.C,U1*%
X104925000Y-35740000D03*
X104925000Y-37010000D03*
X104925000Y-38280000D03*
X104925000Y-39550000D03*
X104925000Y-40820000D03*
X104925000Y-42090000D03*
X104925000Y-43360000D03*
X104925000Y-44630000D03*
X104925000Y-45900000D03*
X104925000Y-47170000D03*
X104925000Y-48440000D03*
X104925000Y-49710000D03*
X104925000Y-50980000D03*
X104925000Y-52250000D03*
D19*
X106690000Y-53500000D03*
X107960000Y-53500000D03*
X109230000Y-53500000D03*
X110500000Y-53500000D03*
X111770000Y-53500000D03*
X113040000Y-53500000D03*
X114310000Y-53500000D03*
X115580000Y-53500000D03*
X116850000Y-53500000D03*
X118120000Y-53500000D03*
X119390000Y-53500000D03*
X120660000Y-53500000D03*
D18*
X122425000Y-52250000D03*
X122425000Y-50980000D03*
X122425000Y-49710000D03*
X122425000Y-48440000D03*
X122425000Y-47170000D03*
X122425000Y-45900000D03*
X122425000Y-44630000D03*
X122425000Y-43360000D03*
X122425000Y-42090000D03*
X122425000Y-40820000D03*
X122425000Y-39550000D03*
X122425000Y-38280000D03*
X122425000Y-37010000D03*
X122425000Y-35740000D03*
D20*
X110775000Y-42760000D03*
X110775000Y-44160000D03*
X111475000Y-42060000D03*
X111475000Y-43460000D03*
X111475000Y-44860000D03*
X112175000Y-42760000D03*
D21*
X112175000Y-43460000D03*
D20*
X112175000Y-44160000D03*
X112875000Y-42060000D03*
X112875000Y-43460000D03*
X112875000Y-44860000D03*
X113575000Y-42760000D03*
X113575000Y-44160000D03*
%TD*%
D22*
%TO.C,C24*%
X101950000Y-37500000D03*
X100050000Y-37500000D03*
%TD*%
D23*
%TO.C,U3*%
X109752700Y-88225000D03*
X109752700Y-89175000D03*
X109752700Y-90125000D03*
X112027700Y-90125000D03*
X112027700Y-88225000D03*
%TD*%
D15*
%TO.C,C1*%
X117500000Y-71000000D03*
X117500000Y-69100000D03*
%TD*%
D22*
%TO.C,C11*%
X107900000Y-71500000D03*
X106000000Y-71500000D03*
%TD*%
D15*
%TO.C,C14*%
X110500000Y-65500000D03*
X110500000Y-63600000D03*
%TD*%
D12*
%TO.C,J6*%
X131500000Y-50420000D03*
D13*
X131500000Y-52960000D03*
X131500000Y-55500000D03*
X131500000Y-58040000D03*
X131500000Y-60580000D03*
X131500000Y-63120000D03*
X131500000Y-65660000D03*
X131500000Y-68200000D03*
X131500000Y-70740000D03*
X131500000Y-73280000D03*
X131500000Y-75820000D03*
X131500000Y-78360000D03*
X131500000Y-80900000D03*
X131500000Y-83440000D03*
X131500000Y-85980000D03*
X131500000Y-88520000D03*
%TD*%
D11*
%TO.C,SW6*%
X124100000Y-93000000D03*
X129900000Y-93000000D03*
X124100000Y-97000000D03*
X129900000Y-97000000D03*
%TD*%
D22*
%TO.C,C12*%
X108000000Y-67500000D03*
X106100000Y-67500000D03*
%TD*%
D24*
%TO.C,R16*%
X107000000Y-96500000D03*
X107000000Y-94675000D03*
%TD*%
D22*
%TO.C,C8*%
X101950000Y-41500000D03*
X100050000Y-41500000D03*
%TD*%
D25*
%TO.C,R2*%
X103825000Y-66000000D03*
X102000000Y-66000000D03*
%TD*%
D10*
%TO.C,R5*%
X119587500Y-62000000D03*
X121412500Y-62000000D03*
%TD*%
D22*
%TO.C,C9*%
X121450000Y-70000000D03*
X119550000Y-70000000D03*
%TD*%
%TO.C,C10*%
X107950000Y-69500000D03*
X106050000Y-69500000D03*
%TD*%
D26*
%TO.C,R8*%
X114252700Y-88175000D03*
X114252700Y-90000000D03*
%TD*%
D23*
%TO.C,U4*%
X116252700Y-88225000D03*
X116252700Y-89175000D03*
X116252700Y-90125000D03*
X118527700Y-90125000D03*
X118527700Y-88225000D03*
%TD*%
D22*
%TO.C,C5*%
X101950000Y-35500000D03*
X100050000Y-35500000D03*
%TD*%
D26*
%TO.C,R15*%
X120500000Y-94587500D03*
X120500000Y-96412500D03*
%TD*%
D17*
%TO.C,C20*%
X112000000Y-59100000D03*
X112000000Y-61000000D03*
%TD*%
D22*
%TO.C,C6*%
X101950000Y-39500000D03*
X100050000Y-39500000D03*
%TD*%
D27*
%TO.C,C3*%
X117500000Y-80000000D03*
X119400000Y-80000000D03*
%TD*%
D22*
%TO.C,C21*%
X108000000Y-73500000D03*
X106100000Y-73500000D03*
%TD*%
D17*
%TO.C,C4*%
X112500000Y-74000000D03*
X112500000Y-75900000D03*
%TD*%
D27*
%TO.C,C17*%
X119500000Y-68000000D03*
X121400000Y-68000000D03*
%TD*%
D17*
%TO.C,C16*%
X117500000Y-63600000D03*
X117500000Y-65500000D03*
%TD*%
D26*
%TO.C,R7*%
X107340200Y-88087500D03*
X107340200Y-89912500D03*
%TD*%
D25*
%TO.C,R6*%
X121412500Y-60000000D03*
X119587500Y-60000000D03*
%TD*%
D27*
%TO.C,C2*%
X117500000Y-77990000D03*
X119400000Y-77990000D03*
%TD*%
D10*
%TO.C,R3*%
X119587500Y-64000000D03*
X121412500Y-64000000D03*
%TD*%
D15*
%TO.C,C19*%
X114500000Y-60950000D03*
X114500000Y-59050000D03*
%TD*%
D27*
%TO.C,C23*%
X119550000Y-72000000D03*
X121450000Y-72000000D03*
%TD*%
D15*
%TO.C,C15*%
X115500000Y-65500000D03*
X115500000Y-63600000D03*
%TD*%
D10*
%TO.C,R1*%
X100087500Y-43500000D03*
X101912500Y-43500000D03*
%TD*%
D28*
%TO.C,J3*%
X110700000Y-93975000D03*
X111550000Y-93975000D03*
X112400000Y-93975000D03*
X113250000Y-93975000D03*
X114100000Y-93975000D03*
X114950000Y-93975000D03*
X115800000Y-93975000D03*
X116650000Y-93975000D03*
X116650000Y-95325000D03*
X115800000Y-95325000D03*
X114950000Y-95325000D03*
X114100000Y-95325000D03*
X113250000Y-95325000D03*
X112400000Y-95325000D03*
X111550000Y-95325000D03*
X110700000Y-95325000D03*
D29*
X109350000Y-94955000D03*
D30*
X109350000Y-98335000D03*
D29*
X118000000Y-94955000D03*
D30*
X118000000Y-98335000D03*
%TD*%
D15*
%TO.C,C13*%
X108500000Y-65500000D03*
X108500000Y-63600000D03*
%TD*%
D12*
%TO.C,J1*%
X127500000Y-60840000D03*
D13*
X127500000Y-63380000D03*
X127500000Y-65920000D03*
X127500000Y-68460000D03*
X127500000Y-71000000D03*
%TD*%
M02*
